<svg xmlns="http://www.w3.org/2000/svg" viewBox="0 0 1161 220" xml:space="preserve">
	<style type="text/css">
		.st0 {
			fill-rule: evenodd;
			clip-rule: evenodd;
			fill: rgba(164, 131, 55, 0.85);
		}
		
		.st1 {
			fill: rgba(164, 131, 55, 0.85);
		}

	</style>
	<g>
		<g>
			<path class="st0" d="M110.5,204.1c1.5,1,0.8,5.2,5.1,3.6c0.8-0.3,2,1,3,0.9c2.7-0.2,5.4-0.7,7.9-1.1c-0.1-0.8-0.2-1.4-0.4-2.3
			c1,0.5,2.1,1.2,2.1,1.1c1.2-1.8,4.9-0.6,4.6-4.2c2,0.9,3.7,1.6,5.5,2.4c0.7-0.4,1.6-2,3-0.5c-0.4,1.4-0.7,2.5-1,3.7
			c0.2,0.1,0.4,0.3,0.7,0.4c1.6-0.8,3.2-1.7,5-2.7c0.3,0.4,0.7,1,1.2,1.5c-5,4.2-11.2,4.3-17,5.6c0.1,0.9,0.2,1.9,0.3,2.9
			c-0.3,0-0.5,0.1-0.8,0.1c-0.2-0.7-0.4-1.4-0.7-2.2c-0.7,0.8-1.5,1.6-1.7,1.8c-2.6-0.3-4.7-0.5-6.7-0.7c-0.6,0.6-1.4,1.2-2.1,1.9
			c-0.5,0.5-0.8,1.1-1.3,1.7c0.7,0.3,1.5,0.7,2.2,0.9c0.3,0.1,0.6-0.2,1.1-0.3c0.3,2.1,1.3,2.7,3.2,2.1c1.8-0.5,3.7-0.8,5.5-0.9
			c0.6,0,1.3,0.9,2.1,1.6c2.7-0.7,2.7-0.7,3,1.2c-1.7,1-3.3,2-4.8,2.9c0.1,0.2,0.2,0.5,0.3,0.7c-0.6-0.3-1.1-0.6-1.7-1
			c-0.1,0.3-0.3,0.7-0.2,0.8c0.7,0.7,1.5,2,2.3,2c1.6,0.1,3.3-0.3,4.8-0.9c2.2-0.9,3.8-0.3,5.2,1.6c1.8-0.9,3.5-1.7,5.2-2.6
			c3.6,4.8,7.5,4.9,10.2,0.2c1.4,0.1,3,2.3,4,0.2c0.6-1.3-0.1-3.3-0.2-5.2c-0.2,0,0.3,0,0.8,0.1c0.5,0.1,1.1,0.3,1.9,0.6
			c-0.4-2.2-2.4-4-0.7-6c0.4-0.5,1.3-0.4,2-0.7c0.1,0.2,0.2,0.4,0.2,0.7c-0.7,0.3-1.4,0.6-2.5,1.1c1.9,0.9,5.5,1,2.2,4.4
			c0.5-0.2,1-0.3,1.7-0.5c-0.1,0.5-0.2,1.1-0.4,1.7c1,0.1,2,0.2,3.8,0.3c-1.2-2.1-2.3-4.2-3.5-6.3c0.2-0.2,0.4-0.5,0.6-0.7
			c2.7,1.2,5.5,2.4,8.2,3.5c0.6,0.3,1.4,0,2,0.4c0.9,0.5,1.7,1.2,2.6,1.9l-0.7,1c-1.2-0.6-2.4-1.3-3.7-1.9c-0.2,0.2-0.4,0.4-0.5,0.6
			c0.9,0.8,1.9,1.5,2.7,2.3c0.8,0.9,2,1.9,2.1,2.8c0.2,8,0.1,16,0.1,24.2c0.1,0,0.2,0,0.2,0c2.1-0.1,4.2-0.2,6.3,0
			c-0.3-10.6-0.7-20.7-1-30c1.8-1.3,2.8-2.4,4.1-2.9c2.4-0.9,5-1.5,7.5-2.2c2.8-0.8,5.5-1.8,8.4-2.4c2.3-0.5,4.7-0.7,7-0.9
			c2-0.2,4-0.3,5.9-0.5c-0.3-1-0.7-2-1-3c1.2-0.2,2.3-0.3,3.5-0.6c0.9-0.2,1.7-0.5,2.5-0.8c-0.3-0.2-0.5-0.3-0.8-0.5
			c0.3-2,0.7-3.9,1.1-6.2c-1.1,0.5-2.3,1.1-3.2,1.5c-0.4-0.6-0.7-1.1-1.1-1.8c0,0,0,0,0,0c0,0,0,0,0,0c0,0.1,0,0,0,0c0,0,0,0,0-0.1
			c0,0,0,0,0,0.1c1.8-0.5,3.6-1.3,5.4-1.5c0.7-0.1,1.6,1.1,2.3,1.7c1,0,2.2,0.2,3.4,0c1.3-0.3,2.7-0.8,2-2.9c-0.6,0.4-1,0.7-1.3,0.9
			c-0.8-0.5-1.6-0.9-2.6-1.5c0-0.1,0.2-0.6,0.4-1.1c-1.8-0.2-3.5-0.4-5.2-0.6c0-0.2,0-0.3,0-0.5c1.2-0.5,2.5-0.9,3.8-1.4
			c-0.1-0.2-0.1-0.5-0.2-0.7c-0.6,0-1.2,0.1-2,0.2c0.1-0.5,0.1-1,0.2-1.5c-0.2-0.1-0.4-0.3-0.6-0.4c-0.4,0.7-0.8,1.4-1.2,2.1
			c0-2.5-1-3.8-3.2-4.2c0.1-0.3,0.1-0.6,0.2-0.8c2.1,0.5,4.1,0.9,6.6,1.5c-0.5-0.8-0.7-1.1-1.1-1.7c2,0.8,3.7,1.5,5.5,2.2
			c0.2-0.3,0.4-0.5,0.6-0.8c-1.6-2.2-6.1-2.7-4.4-7c1.9-0.4,2.5,1.2,2.9,2.5c0.6,2.1,1.2,3.1,3.3,1.4c0.3-0.2,1,0,2.2,0
			c0.3-0.6,1-1.6,1.4-2.3c-3.5-2.1-6.5-4-9.5-5.8c0.2-0.3,0.3-0.5,0.5-0.8c2,1.1,4.1,2.2,6.1,3.2c0.1-0.2,0.3-0.3,0.4-0.5
			c-0.3-0.6-0.6-1.3-1.1-2.1c0.6,0,1.6,0,1.6,0c0.2,4.3,2.8,1.9,4.6,1.8c0.7-4.1,0.2-4.6-7.1-7.6c0.1-1.6,0.2-3.2,0.3-5.1
			c-2.9,0.5-3.3-1.5-3.7-3.8c-0.6,0.2-1.2,0.4-2.6,0.9c1.9-4.5,0.7-8.2-1.1-12c-1.1,0.1-2.1,0.2-3.2,0.3c-0.9-3-8.3-6.3-10.8-5.3
			c-1.6-0.8-2.7-1.3-3.8-1.9c-1.1-1.2-2.7-2.3-2.3-4.8c0.2-1.2-2.5-2.7-3.8-4.1c-1,0.9-1.7,1.6-2.5,2.3c0.3-1.8,1.5-3.4-0.2-5
			c-0.1-0.1,0.7-1.4,1-1.4c2,0.1,2-0.8,1.6-2.4c-0.4-1.8-0.3-3.7,2.2-4.2c-1.1-1.9-3.9-1.9-5.6-0.2c-1.1-0.8-2.1-1.5-3.4-2.4
			c0.2-0.4,0.4-1,0.6-1.5c1.9,0.5,3.6,1,5.4,1.5l0.4-0.6c-2.2-3.7-4.3-7.3-6.5-11.1c-0.1,0.1-0.6,0.2-1,0.4
			c-0.8-0.5-0.2-3.2,0.7-3.7c0.1-0.1,0.2-0.2,0.3-0.4c-1.3-3.7-2.1-4-5.6-2.9c-0.8,0.3-1.8-0.1-2.8-0.3c1-1.6,1.8-2.8,2.6-4
			c-0.2-0.3-0.3-0.6-0.5-0.9c-1,0.3-1.9,0.5-2.4,0.6c-1.6-0.5-3.1-1-4.7-1.5c-0.3,1.3-0.7,2.5-0.9,3.3h-4.6c0.1,1.1,0.2,2.2,0.3,3.3
			c0.2,0,0.5,0,0.7,0c-0.8,0.9-1.6,1.8-2.6,2.9c-0.6-1-1.2-1.8-2.1-3.2c-1.2,3-2.2,5.6-3.2,8.2c0,0-0.6-0.3-0.7-0.3
			c-1.8,1.1-3.3,2-4,2.4c0.6,2.2,1.1,3.7,1.3,5.3c0.1,0.5-1.5,1.2-1.4,1.6c0.8,2.8-0.8,2.7-2.6,2.5c-0.3,0-0.9,0.1-0.9,0.3
			c-0.2,1.6-1,2.3-2.7,2.6c-1.1,0.2-1.9,1.5-2.9,2.3c-0.4-0.8-0.8-1.6-1.2-2.5c-1.3,0.2-3.4-0.2-4,0.6c-0.8,1-0.5,2.9-0.6,4.4
			c-4.1,0.3-4.5,0.8-2.7,4.3c-1,0.2-2.1,0.1-2.7,0.6c-1.2,1-3.2,2.3-3.1,3.4c0.2,2.6-1.1,3.9-2.8,5.2c1.6,1.7,4,2,5.1,0.3
			c2-3.2,3.8-1.6,5.8-0.3c0.5,0.3,1.1,0.4,1.1,0.4v2.6c-0.2,0.1-0.9,0.4-2,0.8c1,0.7,1.6,1.1,1.7,1.2c0,0.9-0.2,1.6,0,2.2
			c0.4,1,1,1.9,1.6,2.8c-0.1,0.2-0.2,0.5-0.4,0.7c-0.9-0.3-1.8-0.6-2.7-0.8c-0.3-0.1-0.7,0-0.9,0.2c-1.3,0.9-2.6,1.3-4.4,1.1
			c-0.8-0.1-1.8,2-2.7,3.2c-0.6,0.7-1.1,1.5-1.7,2.2c-0.4,0-0.9,0-1.3-0.1c0.6,1.3,1.2,2.7,1.7,3.9c-2.2,0.8-5.4,0.9-6.8,4.3
			c-0.1,0.3-1.7,0-2.8,0c0,0.8-0.1,1.8-0.1,2.8c-2.9,1-3.8,2.4-3.7,5.8c0,1.4,3.3,4.6,5.2,4.7c1.7,0.1,3.4-0.4,5.1-0.7
			c1.3-0.2,2.7-0.4,4.5-0.6c-0.5,1.5,2,3.9-1.9,3.9c-0.8,2.2-2.9,1.2-4.3,1.9c0.3,1.5,0.7,3.2,1.1,4.7c-2.3-1.1-4.4-2.2-7-3.4v5.1
			c-1.7,0.1-3.6,0.5-5.4,0.2c-1.7-0.3-3.4-1.3-5.3-2.2c-1.1,1.5-1,3.3,1,5c-0.6,0.8-1.2,1.6-2.1,2.8c-0.3-0.7-0.5-1.3-0.6-1.7
			C112.7,201.1,111.7,202.5,110.5,204.1z M212.8,179c1-0.6,2.2-1.5,3-1.1c3,1.3,4.7-1,6.9-1.9c3.8,4.6,3.8,9.5,0.6,10.3
			c-1.4-0.7-2.3-1.2-3.4-1.7c0.8-2.2-1.1-6-2.8-5.2C215.3,180.1,214.2,179.5,212.8,179z M194.3,142.6c-4.5,0.6-0.9,3.3-0.9,5.7
			c-2.1-0.9-3.9-1.6-5.8-2.4c1.1-0.6,1.9-1.1,3.4-2c-1.4-0.8-2.3-1.3-3.1-1.8c0.2-0.2,0.3-0.4,0.5-0.6c0.6,0.3,1.2,0.6,1.7,0.8
			c0.4-0.8,0.9-1.6,1-1.8C192.2,141.2,193.2,141.9,194.3,142.6z M184.3,215.9c3.7-1.7,7.2-4.7,12.3-1.6
			C192.1,214.4,188.5,217.4,184.3,215.9z M183,204.4c0.8-0.6,2.4-1.6,2.3-1.8c-1-2.1,1-2.1,1.8-2.7c1.5-1.1,3.1-1.9,4.2-2.6
			c1.4,0.8,2.7,1.6,4.3,2.5c-0.1,0.6-0.2,1.4-0.3,2.3c0.2,0.1,0.5,0.1,0.7,0.2c0.3-1.7,0.7-3.5,1-5.4h5.1c-1.5-1.6-2.6-2.8-3.7-4
			c0.6-0.4,1.3-0.7,1.9-1.1c1.2,3.1,3.8,0.9,5.6,1.6c-1.3,1.3-2.6,2.6-4.3,4.3c1.1,0.3,1.8,0.3,2.1,0.6c0.5,0.6,1,1.4,1,2.1
			c-0.1,0.9-0.7,2.4-1,2.4c-1.6,0-2.7,0.9-4,1.3c-1.5,0.5-3.3,0-4.9,0c-0.5,0-0.9,0.3-1.6,0.6c0.2-1,0.3-1.8,0.4-2.3
			c-1.5-0.2-2.8-0.4-4.5-0.6c-0.2,0.4-0.7,1.3-1.3,2.3c-1.4,0.3-3,0.7-4.7,1.1C183.1,204.9,183,204.7,183,204.4z M182.8,199.1
			c1.3-0.7,2.5-1.6,3.8-2.1c1.3-0.5,2.6-0.8,4-1.2c0.1,0.2,0.1,0.4,0.2,0.7c-2.5,1.2-4.4,3.6-7.4,3.7
			C183.2,199.8,183,199.4,182.8,199.1z M174.2,157.2c-0.5,0.9-1.1,1.9-1.8,3.1c-1.2-1.9-2.4-3.8-3.6-5.7c-0.7,0.6-1.2,1.1-2.1,1.9
			c1.1-2.9,2-4.1,4.4-4.2C174.4,152.2,173.8,155.2,174.2,157.2z M175.6,177.7c-2.7-1.2-4.9-2.1-7.2-3.1c0.9-1.3,1.8-2.4,2.7-3.7
			c0.9,0.5,1.7,1,2.7,1.5c-0.7,0.6-1.3,1.1-2,1.7c0.9,0.5,1.6,0.9,2.1,1.4C174.4,176,174.8,176.6,175.6,177.7z M167.5,212.4
			c3.5,0.3,6.9,0.7,10.3,1c0,0.3,0,0.7,0,1c-2.6,1.6-4.9,3.2-8.3,1.6C167.8,215.2,167.1,214.7,167.5,212.4z M168,209.3
			c0.2-0.2,0.3-0.4,0.5-0.6c0.3,0.3,0.5,0.6,0.8,0.9c1.4-0.2,2.8-0.3,4.1-0.7c3.5-1.1,4-0.8,3.6,2.8c-2.7-0.2-5.5-0.5-8.2-0.7
			c-1.2,0-3.2,0.3-3.3,0C164.9,208.8,167.3,210.1,168,209.3z M161.9,137.1c-0.9,0.8-1.8,2.3-2.7,2.3c-1.3,0-2.5-1-3.8-1.6
			C156.5,135.3,159.2,135.1,161.9,137.1z M152.9,155c0.9-1.2,2-2.8,3.2-4.4c0.6,1.8,0.7,3.3,1.3,3.6c1.5,0.7,3.2,0.8,4.6,1.2
			c-0.3,0.2-1.1,0.6-1.9,1.1v1.4c-1.9-0.2-3.7-0.4-5.5-0.6C154.2,156.7,153.7,156,152.9,155z" />
			<path class="st1" d="M125.8,339.5c-7.2,0-14.4,0-21.6,0c0.3-1,0.6-2,1-2.9c2.6-5.1,3.2-10.7,3.4-16.2c0-0.8-0.5-2-1.2-2.5
			c-1.1-0.8-2.4-1.2-3.7-1.8c-0.1,0.9-0.1,1.8-0.2,2.6c-0.1,0.9-0.4,1.8-0.7,2.9c-0.7-0.3-1.2-0.5-1.2-0.6c-1.7,1.6-3.3,3.1-4.9,4.6
			c-0.2-0.2-0.4-0.4-0.7-0.5c0-0.9,0-1.7,0-3.4c-1.2,1.8-2,3-2.7,4.2c-2.6,4.5-2.5,4.5-6.7,2.7c-1.9,1.9-3.6,3.6-5.4,5.4
			c-0.7-0.5-1.3-1-1.4-1c-2,0.5-4,1.6-4.6,1.1c-1-0.9-1.1-2.8-1.6-4.5c-1.2,1.1-2.2,2.1-3.3,2.9c-1.1,0.8-2.2,1.5-3.9,2.6
			c0-2.3,0-3.8,0-5.4c-6.5,5.1-7.2,5.3-9.3,1.9c-0.9,0.6-1.9,1.2-2.3,1.5c-1.8-0.8-3.2-1.4-4.8-2.1c0.7-1.4,1.5-2.8,2.5-4.6
			c-3.5,1.1-6.6,2-9.7,3c-0.1-0.3-0.3-0.5-0.4-0.8c1.4-1.6,2.8-3.1,4.7-5.3c-2.2,0.4-3.5,0.8-4.9,0.9c-1,0.1-2-0.3-3-0.5
			c0.8-0.7,1.5-1.7,2.5-2.2c1-0.5,2.2-0.6,3.3-0.9c1.9-0.5,3.9-1,5.8-1.5c-3.7-2.9-6.4,1.6-9.8,1.2c-0.1-1-0.2-1.8-0.3-2.2
			c-2.1,0.4-4.1,0.8-6.2,1.2c0-1.2,0-1.8,0-2.4c-2,0.9-3.9,1.8-6.4,3c0.6-1.7,0.9-2.5,1.3-3.4c-1.3,0.1-2.4,0.1-3.5,0.2
			c-0.2-0.2-0.3-0.5-0.5-0.7c0.9-1.2,1.8-2.3,2.8-3.5c-3.4,0.5-6.9,1-10.3,1.6c0-0.4,0-0.8,0-1.1c2.9-1.5,5.8-3,9.3-4.8
			c-2.4-0.7-3.9-1.1-5.4-1.6c0-0.4,0.1-0.8,0.1-1.1c2.6-0.2,5.2-0.5,7.9-0.7c-0.4-0.8-0.7-1.5-1.1-2.5c2,0.1,3.7,0.2,4.6,0.2
			c0.8-0.8,1.1-1.6,1.6-1.6c0.9-0.1,2,0,2.8,0.4c5.3,2.6,10.6,0.7,15.8-0.2c2.1-0.4,2.9-1.7,2.6-4c-1.5,1.1-2.8,2-4.1,3
			c-0.3-0.2-0.6-0.4-0.9-0.6c0.7-1.8,1.5-3.7,2.1-5.4c-3,2.5-6.2,5.1-9.3,7.7c-0.2-0.2-0.3-0.3-0.5-0.5c0.3-1.9,0.6-3.7,0.9-5.7
			c-2.5,1.5-4.6,2.7-7,4.1c-0.6-2.3-1.1-4-1.5-5.7c-2.2,0.5-4.2,1-6.3,1.5c-0.2-0.3-0.4-0.5-0.6-0.8c1.2-1.7,2.3-3.5,3.7-5.6
			c-1.7,0.5-2.8,1-4,1.1c-2.3,0.3-4.7,0.5-7,0.4c-0.6,0-1.2-1-1.8-1.5c0.5-0.5,1-1.1,1.6-1.3c1-0.3,2-0.3,3.1-0.5
			c1.5-0.2,3.1-0.5,4.6-0.7c0.1-0.3,0.2-0.6,0.2-0.9c-1.4-0.9-2.8-1.8-4.6-2.9c8.9-1.5,17.8,0.5,26.3-1.4c0-0.4,0-0.8,0-1.2
			c-2.3-0.2-4.5-0.4-6.9-0.6c0.5-0.7,0.8-1.4,1.4-2.3c-2.2,0.7-3.9,1.2-5.9,1.8c0.3-0.9,0.4-1.3,0.5-1.8c-2.1-0.4-4.2-0.7-6.2-1.2
			c-0.3-0.1-0.5-1.8-0.2-2.1c1.1-1.1,2.5-1.8,4-2.8c-8.3-0.4-8.3-0.4-9.4-2.6c4.1-0.7,8-1.4,12.4-2.2c1.7-2.2,0.7-4-1.2-5.2
			c-2,0.6-3.7,1.6-5.2,1.5c-1.7-0.2-3.4-1.2-4.7-2.3c-1.2-1-1.9-2.7-2.8-4.1c-0.4,0-0.8,0-1.2,0c1.2-1.5,2.5-3.1,3.8-4.7
			c-3.7-0.6-7.5-0.6-10.7-3.7c4-1.9,7.6-0.1,11.4,0.2c-1-1.4-1.7-2.5-2.5-3.6c0.1-0.3,0.2-0.5,0.4-0.8c3.2,0.5,6.3,1,9.5,1.5
			c-0.2-0.8-0.3-1.5-0.6-3c3.4,0.7,6.3,1.3,9.2,1.8c1.7,0.3,3.6,1,5.2,0.7c4.3-1,8.6-2.3,12.7-4c1.4-0.6,2.3-2.5,3.5-3.8
			c-0.2-0.1-0.4-0.2-0.6-0.3c-2.3,0.8-4.6,1.7-7.6,2.8c0.6-2.2,1-3.3,1.4-4.7c-0.9,0.7-1.6,1.1-1.7,1.2c-1.8-1-3.2-1.8-4.7-2.7
			c0.1-0.1,0.4-0.7,0.6-1.3c-2.9-0.3-6,2.9-8.3-0.9c-1.2,0.3-2.2,0.5-3.9,0.9c1-1.4,1.6-2.2,2.4-3.2c-1.1-0.2-1.8-0.2-2.5-0.4
			c-1.3-0.5-2.6-1.2-3.8-1.8c1.1-0.5,2.2-1.1,3.3-1.6c0.1-0.1,0.3-0.2,0.4-0.3c-5-1.4-7.3-2.7-8.4-4.9c6,0.9,12.2,1.7,18.7,2.7
			c-0.8-1.2-1.3-2-1.8-2.7c0.1-0.2,0.3-0.4,0.4-0.6c1.1,0.4,2.3,0.6,3.2,1.2c2.3,1.5,4.7,2,7.3,1.4c5.8-1.4,11.5-2.9,17.3-4.4
			c0.9-0.2,1.6-0.9,2.1-1.1c-2.2-1-4.7-3.2-6.1-2.7c-2.6,1-4.5-0.8-7-0.1c0.1-1.2,0.2-2,0.3-2.9c-1.9,1-3.5,1.9-5.7,3
			c0-2.2,0-3.6,0-5.3c-1.6,0.9-3.1,2.4-4.7,2.5c-1.3,0.1-2.7-1.6-3.9-2.4c-1.5,0.4-3,0.8-4.6,1.3c-0.1-0.2-0.2-0.5-0.3-0.7
			c0.6-1.1,1.2-2.2,1.8-3.3c-1.1,0.2-1.8,0.9-2.6,1.3c-0.7,0.3-1.6,0.7-2.3,0.5c-2.9-0.9-5.8-2-8.8-3.1c1.3-1,2.9-2.2,4.7-3.5
			c-2.1-1.6-5.7-0.6-6.8-3.7c13.5-3.9,27.6-1.6,41-5.2c-2.6-1.6-6.5-0.1-7.6-3.9c3.5-1,6.9-2,10.3-2.8c3.4-0.8,6.9-1.5,9.4-4.8
			c-2-0.2-3.7-0.4-5.7-0.7c-0.4,0.8-1.1,2.1-2.1,3.9c-0.6-1.5-0.9-2.4-1.3-3.5c-1,1.1-1.9,2.1-2.9,3.2c-0.6-1.2-1-2.3-1.2-2.6
			c-1.6,1.2-3.1,3-5,3.6c-2.1,0.7-4.4,0-4.9-2.6c-1.1,1-2.1,1.8-3.2,2.8c-1.4-5.9-5.3-1.7-7.5-3.2c-1.3-0.8-2.6-1.5-3.9-2.3
			c0.4-0.7,0.9-1.6,1.5-2.6c-4.7-0.8-6.6-1.7-8.1-4.3c1.9-0.2,3.6-0.4,5.4-0.5c1.9-0.1,3.5-0.4,4.1-2.7c0.2-0.6,1.5-1.2,2.4-1.3
			c7.5-0.6,14.9-1.8,21.2-6.1c-0.5-1.4-1-2.9-1.5-4.4c1.5-0.5,3-0.9,4.5-1.4c-1.8-2.3-3.5-2.4-6-0.1c-2.5,2.2-4.5,5.4-8.6,2.2
			c0-0.2-0.1-0.8-0.2-1.4c-1-0.1-1.8-0.1-2.7-0.2c-0.3-1.1-0.6-2-0.9-3c-0.1,0.3-0.3,0.5-0.4,0.8c-1.7-0.6-4.3-0.8-4.7-1.8
			c-0.7-1.8-1.9-2.4-3.2-3.2c-0.8-0.5-1.6-0.9-2.6-1.5c0.5-0.5,0.6-0.7,0.8-0.7c2,0,4,0,6.1,0c0.5-2.6,2-2.3,3.8-1
			c0.4,0.3,0.8,0.5,1.2,0.7c3.2,1.6,9.1,0.4,10.7-2.1c-1.9-0.8-5.7,1.8-5.4-2.9c-4.3,1.3-4.8,1-5.8-2.8c-1-0.1-2-0.2-3-0.4
			c0.2-0.2,0.4-0.5,0.6-0.7c-1.7-1.9-3.4-3.8-5.2-5.7c2.5-3.6,6.1,1.4,8.9-1.1c0-0.4-0.1-0.9-0.1-1.3c0-0.5,0.1-1,0.3-2.3
			c7.1,5.4,13.9,2.8,20.7,0.4c-3.9-4-7.7-7.9-11.6-11.8c-0.8,0.7-1.6,1.4-2.1,1.9c-3-3.3-6.8-4.5-10.8-5.3c0.3-1,0.5-1.7,0.6-2.1
			c-2.5-1.3-4.8-2.5-7.1-3.7c0.1-0.4,0.3-0.7,0.4-1.1c3,0.4,6,0.7,9.3,1.1c-0.2-1.5-0.4-2.6-0.7-4.7c3.1,1.9,5.5,3.4,7.8,4.8
			c2.4-3.2-0.3-5-1.8-7c3.6-0.8,6.9-2.5,10.3,0.7c0.4-1.2,0.8-2.9,0.3-3.2c-1.4-0.9-3.1-1.2-4.6-1.7c-0.1,0.3-0.3,0.5-0.4,0.8
			c-0.2-0.8-0.3-1.7-0.5-2.5c-1.1-0.1-2.1-0.1-3.1-0.2c0.5-3.8-3-1.3-4.1-2.8c0.3-0.7,0.7-1.4,0.8-1.6c-0.9-0.9-1.6-1.6-2.2-2.3
			c1-0.8,1.8-1.8,2.9-2.2c0.6-0.3,1.6,0.4,2.4,0.5c2.1,0.4,4,0.6,3.9-2.5c3,0.8,5.7,1.6,8.7,2.4c-0.5-1.5-0.8-2.6-1.2-3.6
			c0.2-0.2,0.4-0.3,0.6-0.5c2.6,1.2,5.2,2.4,7.9,3.5c0.9,0.4,2.2,0.9,2.9,0.5c4.8-2.9,9.5-5.8,14-9c1-0.7,1.3-2.5,1.9-3.8
			c-0.2-0.1-0.5-0.2-0.7-0.3c-2.5,3.6-4.5,4.9-7.4,5.4c-3.2,0.6-6.8,0.5-8.9,3.7c-0.2,0.2-0.7,0.3-1.2,0.5c-0.2-0.9-0.3-1.7-0.5-2.5
			c-0.5,0.3-0.8,0.6-1.2,0.6c-1.2,0.1-2.4,0.2-3.6,0.3c0.6-1,1.1-2.1,1.9-2.9c1.1-1.1,2.4-2,3.6-2.9c-3.4,1.3-6.5,2.8-9.7,4.2
			c-0.4,0.2-1.4-0.3-1.7-0.8c-0.7-1-1.2-2.2-1.9-3.7c1.2-0.9,2.6-1.9,4-2.8c-0.2-0.2-0.3-0.5-0.5-0.7c-1.1,0.7-2.2,1.5-3.4,2.1
			c-1.4,0.8-2.7,1.8-4.2,2.3c-0.6,0.2-1.8-0.2-2.1-0.8c-0.3-0.4,0.3-1.5,0.7-2.1c0.5-0.7,1.3-1.2,1.5-1.4c-3.2-0.7-6.5-1.4-9.7-2.2
			c-0.6-0.2-0.9-1.2-1.4-1.8c0.6-0.3,1.2-0.8,1.9-1c2.4-0.4,4.8-0.7,6.7-1c0.3-1.5,0.2-3.1,0.7-3.3c0.9-0.3,2.1,0.1,3.1,0.4
			c0.8,0.3,1.3,1.1,2.1,1.5c3.4,1.7,6.8,3.3,10.1,5c0.1-0.2,0.2-0.5,0.3-0.7c-1.2-1-2.3-2-3.6-3.1c2.1-1.8,3.9-0.7,5.1,0.2
			c5.3,4,11.2,3.5,17.2,2.7c2.1-0.3,2.6-1.2,1.8-3.1c-0.4-0.8-0.7-1.6-1.4-3c-0.8,3.5-3.3,3.6-5.5,3.8c-0.3,0-0.7-2.1-1-2.8
			c-1.6,0.2-3.2,0.4-4.9,0.6c-0.1-0.3-0.2-0.6-0.3-1c1-1.1,2-2.1,3-3.2c-1.3-0.2-2.2,0.2-3.3,0.5c-0.9,0.3-2.4,0.9-2.8,0.5
			c-1.9-1.9-3.9-1.6-6.3-1.1c-0.9,0.2-2.1-1.2-3.1-1.8c0.7-0.7,1.3-1.6,2.1-1.9c1.4-0.6,2.9-0.8,4.7-1.2c-2.8-1.9-3.3-5.8-7.3-5.7
			c-1.2,0-0.9-1.6,0.3-2.2c0.9-0.5,2-0.7,3.1-1.2c-2.3-1.8-5-2.9-3.8-7c3.1,1.8,5.9,3.4,8.8,5c1.8,1.1,3.6,2.7,5.5-0.1
			c0.3-0.4,1.3-0.4,2-0.6c-1.4-2.3-4.7-3.4-3.8-7.2c2.1,1,3.9,1.8,6.1,2.8c-0.1-2-0.2-3.4-0.3-4.9c-0.2,0.3-0.3,0.5-0.5,0.8
			c-1.5-0.2-3.8,0.2-4.5-0.6c-1.8-2.2,1.5-2.3,2.2-3.9c-1.5-2.1-3.2-4.3-4.6-6.6c-0.4-0.7-0.1-1.9-0.1-2.9c0.9,0.2,1.8,0.1,2.6,0.5
			c1.4,0.6,2.6,1.5,3.4,2c1.1-1.5,1.8-2.4,2.5-3.4c0.7,1,1.5,2,2.1,3.1c0.3,0.5,0.2,1.1,0.3,1.7c0.7,2.2,1.5,4.4,2.2,6.7
			c0.9-0.6,1.1-1.1,1.1-1.7c0.4-4.3-0.5-8.2-3.6-11.5c-1.7-1.8-3.8-3.8-2.7-7.4c2.4,2.3,4.5,4.2,6.6,6.2c0.2-0.1,0.5-0.2,0.7-0.3
			c0-4.7,0-9.4,0-14.3c5.4,2.8,2.2,8.3,4.6,12.6c1.8-2.8,2.9-5.7,7-4.9c-2.3,6.5-10,10.3-7.5,18.7c2-3.1,4-6.3,6.1-9.5
			c0.2,0.1,0.5,0.3,0.7,0.4c0.1,0.8,0.3,1.7,0.4,2.3c2.9-1.2,5.6-2.3,8.4-3.4c0.2,0.3,0.4,0.7,0.6,1c-1.7,1.5-3.4,3-5.1,4.5
			c2,1.2,3.8,2.2,6.1,3.5c-4,2.4-8.1-0.1-11.8,1.2c3.5,1,6.4,2.6,8.2,6.1c-0.7,0.3-1.3,0.8-1.7,0.7c-2.3-0.4-4.2-0.1-5.8,1.7
			c-0.1,0.1-1.4-0.4-1.7-0.9c-0.3-0.5-0.1-1.4-0.2-2.1c-3.8,0.5-5.1,2.5-4.4,6.2c0.5,2.7,0.7,5.4,1.1,8.1c0.1,0.9,0.2,1.8,0.4,3.4
			c4.5-2.7,8.1-5.2,10.1-9.7c1-2.4,2.4-4.7,3.8-7.2c1.5,1.3,2.3,2.1,3.3,3c1.5-1.4,2.9-2.8,4.5-4c0.5-0.4,1.4-0.4,2.2-0.5
			c0,0.8,0.1,1.7-0.2,2.3c-0.7,1.5-1.7,2.8-2.6,4.2c2.2,0.4,4,0.7,6.3,1c-2.5,2.4-4.5,4.2-6.5,6.1c0.1,0.3,0.3,0.6,0.4,0.9
			c1.5,0.4,3,0.6,4.5,1.2c0.6,0.2,1.1,1,1.2,1.6c0.1,0.2-0.8,0.8-1.3,1.1c-1.8,1.2-3.6,2.4-5.5,3.7c-4.1-1.7-4.3-1.6-4.5,2
			c2.6,0.5,5.3,1.1,8,1.6c0,0.3,0.1,0.7,0.1,1c-1.7,0.9-3.4,1.8-5.3,2.8c0.1,0.4,0.3,1.1,0.5,1.8c-1.2,0.6-2.4,1.2-3.5,1.8
			c0.1,0.3,0.3,0.6,0.4,0.9c1.5-0.6,3-1.5,4.6-1.8c1.5-0.3,3.1,0,4.7,0c-0.1,1-0.3,2-0.5,3.4c4.8,1,9.4,2.7,13,6.5
			c-3.1,3.1-8.4,4.1-11.5,1.8c-0.5,0.9-1.2,1.7-1.3,2.6c-0.4,2.3-1.6,2.5-3.1,1.1c-1.8-1.6-3.3-3.5-5-5.3c-0.6,0.4-1.4,1-2.1,1.5
			c0.3,1.1,0.6,2.1,1,3.1c-3.5,0.6-4.5,0-7-4.4c-0.2,0.6-0.3,1.2-0.5,1.7c-0.5,0.9-1.1,1.7-1.7,2.5c-0.8-0.6-1.9-1-2.3-1.8
			c-0.8-1.6-1.3-3.5-1.9-5.2c-0.2-0.7-0.3-1.4-0.4-2c-0.4,0.1-0.8,0.2-1.1,0.3c0.7,2.4,1.2,4.8,2.1,7.1c2,5.1,7.2,2.3,11,4.1
			c-0.8,1.2-1.4,2.2-2.1,3.3c2.6,1.4,5.2,2.5,8,1c2.5-1.2,4.8-2.7,7.3-4.2c0.2,1.1,0.3,1.9,0.5,2.7c1.5-0.3,2.7-0.5,3.7-0.7
			c1,1.7,1.8,3.1,2.6,4.6c2.3-0.8,4.5-1.7,6.9-2.5c0.8-0.3,2.5-0.3,2.6,0c1,2.5,3.1,1.6,4.8,1.9c1.2,0.3,2.4,0.6,3.7,0.9
			c-1.5,4.1-4.8,2.4-7.4,3.2c0.6,0.6,1.1,1.2,1.7,1.8c-1.9,0.7-3.5,1.3-5.4,2c0.7,0.9,1.3,1.5,1.8,2c-0.2,0.3-0.3,0.6-0.4,0.9
			c-2.8-1.2-5.6-2.4-9.1-3.9c2.1,2.2,3.6,3.8,5.1,5.4c-0.2,0.3-0.5,0.7-0.7,1c-1.9-0.9-3.9-1.8-5.8-2.7c-0.9-0.4-1.8-0.9-2.7-1.3
			c-0.2,1-0.7,2.1-0.7,3.1c-0.1,2.3-0.8,2.9-2.9,1.8c-1.5-0.7-2.7-1.9-4-2.8c-0.3,0.8-0.6,2-0.7,2c-1-0.2-1.9-0.5-2.8-0.9
			c-1.4-0.6-2.7-1.4-4-2.1c-0.2,0.3-0.4,0.6-0.6,0.9c0.6,0.9,1.1,2.1,1.9,2.6c3.6,1.9,7.3,3.5,10.9,5.3c6.5,3.2,10.4-2.3,15.4-4.3
			c-0.5,0.9-1,1.7-1.3,2.3c0.8,1.1,1.3,1.9,2,2.8c2.2-1.2,4.5-2.5,7.2-3.9c-0.4,1.3-0.6,2.1-1,3.3c2.9,0,5.4,0,7.9,0
			c0.1,0.3,0.2,0.5,0.3,0.8c-2.4,1.2-4.7,2.4-7.2,3.6c0.2,0.8,0.4,1.6,0.6,2.3c-3.2,2.1-5-1.3-8-1.9c0.8,1.5,1.3,2.4,1.9,3.4
			c-0.5,0.3-1,0.6-1.5,0.8c0.3,0.9,0.5,1.7,0.9,2.8c-1.8-0.4-3.2-0.7-4.7-1c0.1,2.3-1.8,5.7-3.4,5.6c-2.1,0-4.5-0.3-5.1-3
			c-2.9,4.2-4.9-0.3-7.3-0.5c-0.2,1-0.4,2-0.7,3.2c-3.3-2-6.7-3.2-10.8-2.4c4.5,3.5,9.4,5.7,14.7,7.5c5.5,1.9,10.7,1.3,15.7-2
			c0.2,0.2,0.5,0.5,0.7,0.7c-0.5,1.6-0.9,3.2-1.6,5.4c4.2-1,8.2-2,12.5-3c-0.2,1-0.3,1.7-0.3,2c3.3,1,6.4,1.9,10.1,3.1
			c-3.2,2.2-6,4.2-8.8,6.1c0.5,0.4,0.9,0.8,1.6,1.5c-1.5,0.8-2.7,1.4-3.9,2c0.6,1,1,1.9,1.9,3.4c-4.2,0-7.9,0-11.7,0
			c-0.1,1-0.1,1.8-0.2,3c-2.2-1-4-1.9-6-2.8c-0.3,1-0.6,1.8-0.9,3c-3.6-1.6-8,0.4-11.1-3.6c1.4,7.3,7,7.8,12.2,8.9
			c5.7,1.2,10.4-1,14.8-4.6c0.1,0.2,0.2,0.5,0.3,0.7c-0.4,0.9-0.8,1.7-1.3,3c1.7-0.4,3.1-0.8,5.2-1.3c-1.6,1.7-2.7,2.9-4.3,4.5
			c3.7-0.7,6.7-1.2,8.8-1.6c3.4,1.7,6.1,3.1,9.6,4.9c-2,1.3-3.3,2.2-4.7,3.1c1.2,1.6-0.4,1.7-1.5,1.8c-2.8,0.3-4.8,1.2-4.4,4.8
			c-3.1-0.2-6-0.4-8.9-0.7c-0.2,0.3-0.4,0.7-0.6,1c1.7,1.1,3.4,2.3,5.4,3.6c-9.3,3.1-9.3,3.1-13.4,1c-0.8,1.1-1.5,2.2-2.5,3.6
			c9.1,2.7,18.4,2.3,27.8,0.7c0.2,0.2,0.4,0.4,0.6,0.6c-0.9,0.9-1.9,1.7-3.1,2.8c0.2,0.1,0.9,0.3,1.7,0.6c-0.1,0.3-0.3,0.6-0.4,0.9
			c-1.7,0.2-3.3,0.4-5.2,0.6c1.3,1.5,2.4,2.8,4,4.7c-3.3-0.4-5.7-0.7-8.4-1.1c1.5,3.8,4.2,5.3,8.2,4.5c4.1-0.8,8.1-2,12.1-2.9
			c1-0.2,2.1-0.3,3.8-0.5c-1.7,2-2.8,3.3-3.9,4.7c0.6,0.9,1.2,1.6,1.8,2.5c-1.4,1.9-2.7,3.7-4.2,5.7c-1-0.2-2.1-0.5-3.3-0.8
			c0.4,0.9,0.8,1.6,1.5,3.1c-3,0-6,0.9-7.6-0.2c-3.6-2.4-6.2,0.7-9.3,0.5c7.7,4.5,15.6,7.1,24.3,2.9c0.2,1.5,0.3,2.4,0.4,3.7
			c2.1-0.5,4-1.1,5.9-1.5c1.8-0.4,3.7-0.7,5.8-1.1c-0.2,4-3.3,4.5-5.2,6c-1.9,1.5-4.2,2.3-6.3,3.3c1,0.5,2.3,1.2,4.3,2.3
			c-3,0.2-5,0.4-7.1,0.6c-0.2,0.2-0.3,0.5-0.5,0.7c1,0.6,2.1,1.2,3.1,1.7c-0.2,0.4-0.3,0.8-0.5,1.2c-4.8-1.4-9.5-2.8-14.1,1
			c6,3.6,13,2.6,19.8,3.9c-0.6,0.8-1,1.3-1.8,2.5c6.9-0.3,13.1-0.6,19.4-0.9c0.1,0.2,0.1,0.3,0.2,0.5c-2.8,1.2-5.6,2.3-8.5,3.5
			c1.6,2,3.1,3.9,4.8,5.9c-0.5,0.1-1.3,0.3-2.1,0.5c-3.9,1.2-7.9,1.9-11.5,3.7c-1.9,1-3.3,1.2-5.1,0.6c-0.1,0-0.3,0.1-0.5,0.1
			c0.5,0.6,0.9,1.3,1.5,2c-3.3,1.5-6,4.9-9.7,1.4c-0.5,0.9-0.8,1.4-1.2,2.2c-1.2-0.8-2.3-1.6-3-2.1c-0.6,0.5-1.2,1.3-1.6,1.3
			c-4.5-0.5-9.1-0.6-13.4-1.8c-2.9-0.9-5.4-0.8-9,0.1c5.8,4.8,12.4,5.8,18.5,8.1c6.4,2.4,12.8,2,19.7-0.3c-0.5,1.9-0.7,2.9-1,4
			c5.6,0,11,0,16.3,0c0.1,0.2,0.1,0.4,0.2,0.5c-0.9,0.7-1.7,1.3-2.7,2c2.4,1.1,5.4-0.1,7.2,2.6c-4.4,2.3-8.8,0.6-13.7,0.2
			c3.2,1.6,5.8,3,8.4,4.3c-0.1,0.4-0.2,0.8-0.2,1.2c-7.1-0.9-14-0.8-20.7,2.4c1.4,2,2.5,3.7,3.7,5.4c-0.3,0.3-0.5,0.5-0.8,0.8
			c-2.2-1.6-4.3-3.3-6.6-5c-1.4,3.8-3.8,2.6-6.3,1.4c0.1,1.6,0.1,2.9,0.2,4.5c-3.1-1.7-5.8-3.1-8.8-4.8c0,1.9,0,3.2,0,4.8
			c-1.5-1.2-2.9-2.3-4.2-3.4c-3.1,2.8-4.7-0.8-7-1.4c0.6,1,1.3,1.8,2.1,2.4c1.8,1.2,3.7,2.3,5.7,3.2c5.3,2.4,10.7,4.8,16.1,7
			c5.1,2,10.2,1.5,15.1-1.1c2.4-1.3,5-2.2,7.5-3.2c0.2,0.3,0.3,0.6,0.5,0.8c-1.3,1.4-2.5,2.8-4,4.4c4.6-0.2,8.5-2.6,12.8-1.7
			c0.1,0.4,0.2,0.7,0.3,1.1c-4.4,1.5-8.7,3-13.1,4.5c0,0.2,0.1,0.3,0.1,0.5c3.6,0.6,7.2,1.3,10.9,1.9c0,0.3,0,0.6,0,0.9
			c-2.2,0.2-4.5,0.3-6.7,0.4c0,0.2-0.1,0.4-0.1,0.6c1.9,0.9,3.8,1.7,5.7,2.6c-0.1,0.2-0.2,0.4-0.3,0.6c-2.7,0-5.3,0-8.2,0
			c0.8,0.8,1.4,1.5,2.3,2.4c-1.7,0.4-3,0.8-4.5,1.1c1.5,0.7,2.7,1.3,4,1.8c0,0.3,0,0.6-0.1,0.9c-2.3,0.2-4.6,0.4-6.9,0.6
			c-0.1,0.2-0.2,0.3-0.4,0.5c0.9,0.4,1.8,0.9,2.7,1.3c-0.2,0.3-0.4,0.7-0.6,1c-2,0.1-4,0.2-6.2,0.3c0.3,0.8,0.6,1.4,1,2.4
			c-1.9-0.2-3.5-0.4-5.1-0.6c-0.1,0.3-0.1,0.7-0.2,1c7.5,3.9,16,3.9,24.1,5.5c0,0.3,0.1,0.6,0.1,0.8c-2.6,0.6-5.2,1.3-7.9,2
			c0.8,0.8,1.5,1.4,2.3,2.1c-0.2,0.3-0.3,0.6-0.5,0.9c-3.2-1.4-6.5-2.8-9.7-4.2c-0.1,0.2-0.3,0.5-0.4,0.7c1.1,1.1,2.2,2.2,3.2,3.3
			c-1,0.4-2.1,0.8-3.4,1.2c0.7,1.2,1.3,2.3,1.9,3.3c-0.2,0.3-0.3,0.5-0.5,0.8c-2.5-1.2-4.9-2.4-7.3-3.5c-1.5,3.7-2.4,3.9-5.6,1.3
			c-1.5-1.3-3-2.5-5.2-4.4c0.7,2.2,1.2,3.6,1.5,5.1c0.6,2.8-2.4,3.4-5.4,1.1c-0.5,1-1.1,1.9-1.7,3.1c-0.6-0.8-1-1.6-1.7-2
			c-0.6-0.4-1.8-0.8-2.3-0.5c-1.8,1.2-2.7,0.2-3.3-1.2c-0.8-2-2.1-2.4-4-2c0,0.5,0.1,1,0.2,1.9c-2.2-0.8-4.1-1.5-5.5-2
			c-0.2,2-0.3,3.8-0.5,5.3c-4.4-0.3-8.5-0.5-12.5-0.8c-0.1,0.5-0.2,1.2-0.3,1.6c-2.2-0.5-4.2-1.2-6.2-1.5c-3.7-0.5-6.6-1.9-7.8-5.7
			c0-0.1-0.3-0.2-0.4-0.3c-0.1,0.6-0.2,1.2-0.4,2.1c-1.6-1.9-3-3.4-5-5.6c-0.2,1.7-0.5,2.6-0.4,3.5c0.5,3.3,1.2,6.5,1.8,9.7
			C125.7,337.1,125.7,338.3,125.8,339.5z M43.6,265.5c4.7,2.4,16.8,1.6,19.4-1.5c-1.4,0.5-2.8,1-3.9,1.5c-1.7-1.1-3.5-2.2-5.4-3.5
			c-1,1.2-1.9,2.4-3.3,4.1c-1.1-1.6-2.2-3.1-3.4-4.8C45.6,263.1,44.6,264.3,43.6,265.5z M93,97.8c-3.9,5.6-7.3,2-10.7-0.1
			c-0.6,3.4,0.5,5.4,2.9,5.2c3.5-0.2,7.1-0.8,10.6-1.5c0.9-0.2,1.6-1.2,2.4-1.8C93.8,100.2,93.8,100.2,93,97.8z M125.5,51.6
			c-0.2-0.4-0.4-0.9-0.6-1.3c-0.7,0.3-1.4,0.5-2,0.9c-2.1,1.8-3.7,4.2-7.2,3.6c-2.2-0.4-2.8,1.2-1.4,3.7
			C118,56.2,121.7,53.9,125.5,51.6z M106.4,50.3c0.1-3.8-3.1-6.8-7.4-6.2C101.4,46.1,103.8,48.1,106.4,50.3z M102.1,30.7
			c1.5,3.2,2.9,6.4,4.7,10.3C107.7,35.8,105.5,33,102.1,30.7z M115.5,90.3c0.4,0,0.8-0.1,1.2-0.1c-0.1-2.5-0.2-5-0.4-7.5
			c-0.3,0-0.6,0-0.8,0C115.5,85.2,115.5,87.8,115.5,90.3z M122.5,64.4c-2.9-0.2-4.9-0.3-7.2-0.5C117.3,66,119.4,66.6,122.5,64.4z" />
			<path class="st0" d="M97.2,222c0.7-2.7,1.2-4.9,1.7-7.1c-2.9,0.3-5.8,0.6-9.1,0.9c-0.1,0.3-0.3,1.9-0.7,1.9
			c-6.3,0.5-12.6,1.4-18.8,1c-3.1-0.2-2.4-2.8,0-4.7c0.8,1.4,1.5,2.5,2.3,4c1.8-2.5,3.5-4.8,5.1-7c0.9,1.2,2,2.6,2.4,3.1
			c2.6-2.4,4.8-4.5,6.9-6.6c1.8-1.9,3.5-3.9,5.3-5.8c-0.4-0.4-0.7-0.9-1.1-1.3c-6.4,7.2-15.2,3.1-22.7,5.1c-1.3,0.3-2.9-0.8-4-1.2
			c1.6-3.2,3-6.1,4.4-9.2c0.9,4.4,3.7,5.1,7.2,3.4c-0.2-1.9-0.5-3.9-0.7-5.6c3.3-0.3,6-0.6,9-0.9c0.8-1,2-2.4,3.5-4.1
			c-2.4-1.2-4.7-2.4-7-3.6c0-0.4,0-0.8,0-1.2c1.8-0.3,3.8-0.3,5.4-1c2-0.9,3.7-2.5,5.6-3.8c-0.3-0.1-0.5-0.1-0.8-0.2
			c1-2.9,1.9-5.8,2.8-8.4c-3.6-3.2-7.7,6.3-11.3-0.4c1.5-0.9,2.6-1.6,4.2-2.6c-2-0.7-3.2-1.1-5-1.7c2.1-3.4,4-6.5,6.2-10.3
			c-2.4,0.9-4.1,1.5-5.8,2.1c-0.3-0.3-0.5-0.5-0.8-0.8c0.8-1.1,1.7-2.1,2.4-3.1c-0.3-3.2-0.6-6.6-0.9-9.9c-0.8,2-5.3,1.9-3,5.2
			c-0.8,0.3-1.7,1-2.5,0.9c-1.2-0.2-2.3-0.9-3.5-1.4c2.7-4.4-0.7-10.6-7.7-13.5c-0.6,3.9-1.2,7.6-1.8,11.5c-1.5-0.5-3.9-1.3-6.2-2.1
			c0.1-0.3,0.1-0.5,0.2-0.8c1.1-0.1,2.1-0.1,3.8-0.2c-3.8-3.5,1.2-1.9,1.3-3.7c-1.1-0.6-2.3-1.2-3.5-1.9c0.3-0.1,0.7-0.3,1-0.4
			c-0.5-1.2-1.1-2.4-1.5-3.4c2.2-0.9,4.6-2,6-2.5c-0.5-3.6-0.8-6.3-1.3-8.9c-0.2-1.2-0.9-2.3-1.4-3.4c-0.4,0.1-0.8,0.1-1.2,0.2
			c0.4-1.3,0.8-2.6,1.1-3.9c-0.3-0.3-0.6-0.6-1-0.9c-2.4,4-5.4,6.5-11.4,4.7c6.7-4.3,2.6-9.6,2.9-14.3c0.1-1-0.3-2.1-0.6-3.4
			c-2.7,3.6-5.1,6.8-7.4,9.9c-0.7-2.1-1.1-4.5-0.3-6.4c1.2-2.5,3.3-4.5,5.9-7.8c-3.2,0.9-5.1,1.4-6.7,1.9c1.8-2.9,3.5-5.6,5.3-8.3
			c-0.3-0.2-0.5-0.4-0.8-0.6c-0.9,0.5-1.8,1-4,2.1c1.3-2.9,2.1-4.6,2.9-6.2c-0.9-1-1.8-2-2.2-2.5c-1.3,0.8-2.4,1.6-3.6,2.3
			c0.2,0.1,0.5,0.1,0.7,0.2c-0.7,1.5-1.5,3-2.2,4.5c-1-0.5-2.1-1.1-3.4-1.7c-0.4,0.3-1.2,1-2.1,1.6c-0.3-0.2-0.6-0.5-0.8-0.7
			c0.9-1.2,2-2.3,2.8-3.6c0.7-1.1,1-2.3,1.5-3.5c-3.5-1.2-1.5-3.9-1.7-6.1c-0.1-1-0.5-2.7-0.8-2.7c-2.8-0.2-1.8-1.9-1.7-3.4
			c0.1-1.4,0-2.8,0-4.5c-1.6,0.2-2.8,0.3-4.7,0.5c0.8-2.1,1.6-3.8,2.2-5.4c0.3-1,0.9-2.4,0.5-2.9c-0.7-0.8-2.1-1.1-3.8-1.8
			c-0.7-2.4-2-5.3-4-8.3c-3.1-4.9-4.1-11.2-5.8-17c-0.9-3.1-2.7-3.9-5-1.6c-1.6,1.6-2.9,3.6-4,5.6c-2.8,4.8-5.8,9.4-10.9,12.3
			c1,1.1,1.9,2.1,2.5,2.7c-2,4,0.8,6.4,2.8,9.2c-1.6,0.1-2.8,0.1-3.9,0.2c-0.6-2-1.1-3.8-1.6-5.6L-3,53.4c-0.4,4.4-0.7,8.8-1.2,13.8
			c-0.3,0.5-1.2,1.9-2.4,3.7c-1.1-2.6-2.1-4.9-3.2-7.3c-0.3,0.1-0.7,0.1-1,0.2c-0.2,3.4-0.5,6.7-0.7,10.8c1,1.6,2.5,4.1,4.1,6.6
			c-0.3,0.2-0.6,0.4-1,0.7c-2.7-0.8-5.4-1.7-8.7-2.7c0.4,2.6,0.8,4.7,1.2,7.3c-2-1-3.5-1.8-4.9-2.5c3.4,4.1,2.6,11.4,9.6,12.2
			c0,0.3-0.1,0.5-0.1,1.1c-2.6-0.3-5.2-0.6-7.8-0.9c-0.1,0.3-0.2,0.6-0.3,0.9c1.2,0.7,2.4,1.5,3.6,2.2c-0.8,0.5-1.7,0.9-2.6,1.4
			c0.1,0.3,0.1,0.5,0.2,0.8h8c-3.3,3.9-3.3,3.9-7.9,1.6c-1.2,1.7-2.3,3.5-3.7,5.5c-0.8-2.1-1.4-3.7-2-5.3c-7.2,3.8-6.1,8.6-1.6,13.5
			c-2.3,0.5-3.8,0.9-5.3,1.2c0,0.3,0,0.7-0.1,1c2.7,1.3,5.4,2.6,9,4.4c-1.2,1.4-2.3,4-4.1,4.5c-1.8,0.5-4.2-1.2-7.2-2.2
			c-0.5,0.4-2,1.4-3.7,2.7c-0.9-2.2-1.6-4-2.6-6.4c-2,2.4-3.7,4.5-5.8,7c1.1,0.9,2.5,1.9,4.6,3.6c-2.7,0.2-4.6,0.4-6.4,0.6
			c-0.7,1.6-1.5,3.2-2.6,5.4c-1.5-4.1-2.8-7.4-4.2-11.1c-1.1,5.3-2,10.1-3,15c1.4,1.2,3.1,2.6,4.9,4c-0.3,0.3-0.6,0.7-0.9,1
			c-1.8,0.1-3.5,0.2-6.2,0.4c1.9,1.8,3.2,2.9,4.4,4.1c1.4-0.6,2.7-1.3,4-1.9c0.2,0.3,0.3,0.5,0.5,0.8c-1.3,1-2.6,2-4.1,3.2
			c0.6,0.9,1.1,1.7,1.8,2.7c-1.5,0.2-2.9,0.3-4.1,0.5c2.9,3.6,5.6,6.9,9,11.1c-0.5,2.2-2.6,1.7-5.2,0.7c-1.1-0.5-2.7,0-4,0
			c1,2.3-3,5.9,2,7.1c0.8,0.2,1.4,1.5,2.1,2.2c-2.8,0.4-5.4-1-7.5-0.4c-2.1,0.5-3.8,3-6.2,5c-0.2-1.3-0.4-2.9-0.6-4.2
			c-2.3-1.3-4.7-2.7-7.5-4.4c0.3,1.3,0.9,2.6,0.6,3.7c-0.2,1-1.2,1.9-1.9,2.8c0.8,0.8,1.6,1.5,2.9,2.8c-1.9,0.3-2.9,0.5-3.9,0.7
			c-0.1,0.3-0.2,0.7-0.3,1c3,1.6,5.9,3.2,8.8,4.8c-0.1,0.1-0.5,0.7-1,1.3c-4.9,5.3-4.8,6.2,1.6,10.2c0.5,0.3,1.1,1.4,0.9,1.8
			c-0.8,1.8-1.8,3.6-3.2,6.3c3.3,0.3,6.3,0.6,9.7,1c-0.5,1.3-0.9,2.5-1.5,3.9c1.4,0.3,2.7,0.7,4.3,1.1c-0.8,1.7-1.5,3.4-2,4.6
			c1.8,2.6,3.4,4.9,5.4,7.7c3.5-0.6,7.3-1.3,10.7-2c-1.6,3.3-3,6-4.4,8.7c2.3,0.5,4.5,0.9,7.1,1.5v6.3c1.2-0.9,1.7-1.4,2.3-1.9
			c0.1,1.1,0.2,2,0.2,2.8c4.1,0.4,7.9,0.9,12,1.3c0.2,1.2,0.4,2.4,0.5,3.6c0.9-0.3,1.6-0.5,2.2-0.7c0.1,1,0.2,2,0.3,3.4
			c3.7-3.4,8.6-4.9,9-10.4c0-0.5,1.4-0.9,2.6-1.5c-0.6,2.1-1.1,3.6-1.5,5l1,1c1.5-1.1,3-2.3,4.7-3.5c1,3.4,2,7,3,10.6
			c4.5-1.7,8.7-3.3,13.4-5.1c0.7,3,1.9,5.5,1.9,7.9c-0.2,7.2-0.5,14.4-1.4,21.5c-0.2,1.4-0.5,2.7-0.9,3.7c3.8-0.6,7.7-1.1,11.5-1.1
			c-0.3-0.8-0.5-1.6-0.5-2.7c-0.2-4.6-0.9-9.2-0.7-13.8c0.1-4.6,0.8-9.2,1.7-13.7c0.5-2.7,2.3-4.5,5.5-4.5c3.1,0,6.4,1.3,9.1-1.4
			c0.3-0.3,1.6,0.5,2.5,0.7c0.6,0.2,1.4,0.7,1.6,0.5c2.8-2.5,3.7,0,4.7,1.6c1.6-0.4,3.5-1.6,4.3-1.1c6.9,4.5,12.2-0.4,17.6-3.1
			c2.6-1.3,3.9-1.2,6.1,0c2.1,1.2,4.5,1.6,7.3,2.5c-0.6-3.2-1-5.3-1.4-7.4c2.9-0.7,5.7-1.4,8.8-2.2c-0.3-2.8-0.6-5.4-1-8
			c3.9-0.3,7.3-0.6,10.7-0.9c0-0.3,0-0.5,0-0.8c-2-0.8-4-1.6-6.1-2.4c0.1-0.2,0.1-0.5,0.2-0.7H97.2z M-57.1,186
			c-1.1,0.2-2.6-1.8-4-2.8c1.7-1,3.5-2,5.6-3.2c2,1.2,3.5,2,4.9,2.8C-52.7,183.9-54.8,185.5-57.1,186z" />
			<path class="st0" d="M293.2,218.1c1.5,1,0.8,5.2,5.1,3.6c0.8-0.3,2,1,3,0.9c2.7-0.2,5.4-0.7,7.9-1.1c-0.1-0.8-0.2-1.4-0.4-2.3
			c1,0.5,2.1,1.2,2.1,1.1c1.2-1.8,4.9-0.6,4.6-4.2c2,0.9,3.7,1.6,5.5,2.4c0.7-0.4,1.6-2,3-0.5c-0.4,1.4-0.7,2.5-1,3.7
			c0.2,0.1,0.4,0.3,0.7,0.4c1.6-0.8,3.2-1.7,5-2.7c0.3,0.4,0.7,1,1.2,1.5c-5,4.2-11.2,4.3-17,5.6c0.1,0.9,0.2,1.9,0.3,2.9
			c-0.3,0-0.5,0.1-0.8,0.1c-0.2-0.7-0.4-1.4-0.7-2.2c-0.7,0.8-1.5,1.6-1.7,1.8c-2.6-0.3-4.7-0.5-6.7-0.7c-0.6,0.6-1.4,1.2-2.1,1.9
			c-0.5,0.5-0.8,1.1-1.3,1.7c0.7,0.3,1.5,0.7,2.2,0.9c0.3,0.1,0.6-0.2,1.1-0.3c0.3,2.1,1.3,2.7,3.2,2.1c1.8-0.5,3.7-0.8,5.5-0.9
			c0.6,0,1.3,0.9,2.1,1.6c2.7-0.7,2.7-0.7,3,1.2c-1.7,1-3.3,2-4.8,2.9c0.1,0.2,0.2,0.5,0.3,0.7c-0.6-0.3-1.1-0.6-1.7-1
			c-0.1,0.3-0.3,0.7-0.2,0.8c0.7,0.7,1.5,2,2.3,2c1.6,0.1,3.3-0.3,4.8-0.9c2.2-0.9,3.8-0.3,5.2,1.6c1.8-0.9,3.5-1.7,5.2-2.6
			c3.6,4.8,7.5,4.9,10.2,0.2c1.4,0.1,3,2.3,4,0.2c0.6-1.3-0.1-3.3-0.2-5.2c-0.2,0,0.3,0,0.8,0.1c0.5,0.1,1.1,0.3,1.9,0.6
			c-0.4-2.2-2.4-4-0.7-6c0.4-0.5,1.3-0.4,2-0.7c0.1,0.2,0.2,0.4,0.2,0.7c-0.7,0.3-1.4,0.6-2.5,1.1c1.9,0.9,5.5,1,2.2,4.4
			c0.5-0.2,1-0.3,1.7-0.5c-0.1,0.5-0.2,1.1-0.4,1.7c1.1,0.1,2,0.2,3.8,0.3c-1.2-2.1-2.3-4.2-3.5-6.3c0.2-0.2,0.4-0.5,0.6-0.7
			c2.7,1.2,5.5,2.4,8.2,3.5c0.6,0.3,1.4,0,2,0.4c0.9,0.5,1.7,1.2,2.6,1.9l-0.7,1c-1.2-0.6-2.4-1.3-3.7-1.9c-0.2,0.2-0.4,0.4-0.5,0.6
			c0.9,0.8,1.9,1.5,2.7,2.3c0.8,0.9,2,1.9,2.1,2.8c0.2,8,0.1,16,0.1,24.2c0.1,0,0.2,0,0.2,0c2.1-0.1,4.2-0.2,6.3,0
			c-0.3-10.6-0.7-20.7-1-30c1.8-1.3,2.8-2.4,4.1-2.9c2.4-0.9,5-1.5,7.4-2.2c2.8-0.8,5.5-1.8,8.4-2.4c2.3-0.5,4.7-0.7,7-0.9
			c2-0.2,4-0.3,5.9-0.5c-0.3-1-0.7-2-1-3c1.2-0.2,2.3-0.3,3.5-0.6c0.9-0.2,1.7-0.5,2.5-0.8c-0.3-0.2-0.5-0.3-0.8-0.5
			c0.3-2,0.7-3.9,1.1-6.2c-1.1,0.5-2.3,1.1-3.2,1.5c-0.4-0.6-0.7-1.1-1.1-1.8c0,0,0,0,0,0c0,0,0,0,0,0c0,0.1,0,0,0,0c0,0,0,0,0-0.1
			c0,0,0,0,0,0.1c1.8-0.5,3.6-1.3,5.4-1.5c0.7-0.1,1.6,1.1,2.3,1.7c1,0,2.2,0.2,3.4,0c1.3-0.3,2.7-0.8,2-2.9c-0.6,0.4-1,0.7-1.3,0.9
			c-0.8-0.5-1.6-0.9-2.6-1.5c0-0.1,0.2-0.6,0.4-1.1c-1.8-0.2-3.5-0.4-5.2-0.6c0-0.2,0-0.3,0-0.5c1.2-0.5,2.5-0.9,3.8-1.4
			c-0.1-0.2-0.1-0.5-0.2-0.7c-0.6,0-1.2,0.1-2,0.2c0.1-0.5,0.2-1,0.2-1.5c-0.2-0.1-0.4-0.3-0.6-0.4c-0.4,0.7-0.8,1.4-1.2,2.1
			c0-2.5-1-3.8-3.2-4.2c0.1-0.3,0.1-0.6,0.2-0.8c2.1,0.5,4.1,0.9,6.6,1.5c-0.5-0.8-0.7-1.1-1.1-1.7c2,0.8,3.7,1.5,5.5,2.2
			c0.2-0.3,0.4-0.5,0.6-0.8c-1.6-2.2-6.1-2.7-4.4-7c1.9-0.4,2.5,1.2,2.9,2.5c0.6,2.1,1.2,3.1,3.3,1.4c0.3-0.2,1,0,2.2,0
			c0.3-0.6,1-1.6,1.4-2.3c-3.5-2.1-6.5-4-9.5-5.8c0.2-0.3,0.3-0.5,0.5-0.8c2,1.1,4.1,2.2,6.1,3.2c0.1-0.2,0.3-0.3,0.4-0.5
			c-0.3-0.6-0.6-1.3-1.1-2.1c0.6,0,1.6,0,1.6,0c0.2,4.3,2.8,1.9,4.6,1.8c0.7-4.1,0.2-4.6-7.1-7.6c0.1-1.6,0.2-3.2,0.3-5.1
			c-2.9,0.5-3.3-1.5-3.7-3.8c-0.6,0.2-1.2,0.4-2.6,0.9c1.9-4.5,0.7-8.2-1.1-12c-1.1,0.1-2.1,0.2-3.2,0.3c-0.9-3-8.3-6.3-10.8-5.3
			c-1.6-0.8-2.7-1.3-3.8-1.9c-1.1-1.2-2.7-2.3-2.3-4.8c0.2-1.2-2.5-2.7-3.8-4.1c-1,0.9-1.7,1.6-2.5,2.3c0.3-1.8,1.5-3.4-0.2-5
			c-0.1-0.1,0.7-1.4,1-1.4c2,0.1,2-0.8,1.6-2.4c-0.4-1.8-0.3-3.7,2.2-4.2c-1.1-1.9-3.9-1.9-5.6-0.2c-1.1-0.8-2.1-1.5-3.4-2.4
			c0.2-0.4,0.4-1,0.6-1.5c1.9,0.5,3.6,1,5.4,1.5l0.4-0.6c-2.2-3.7-4.3-7.3-6.5-11.1c-0.1,0.1-0.6,0.2-1,0.4
			c-0.8-0.5-0.2-3.2,0.7-3.7c0.1-0.1,0.2-0.2,0.3-0.4c-1.3-3.7-2.1-4-5.6-2.9c-0.8,0.3-1.8-0.1-2.8-0.3c1-1.6,1.8-2.8,2.6-4
			c-0.2-0.3-0.3-0.6-0.5-0.9c-1,0.3-1.9,0.5-2.4,0.6c-1.6-0.5-3.1-1-4.7-1.5c-0.3,1.3-0.7,2.5-0.9,3.3h-4.6c0.1,1.1,0.2,2.2,0.3,3.3
			c0.2,0,0.5,0,0.7,0c-0.8,0.9-1.6,1.8-2.6,2.9c-0.6-1-1.2-1.8-2.1-3.2c-1.2,3-2.2,5.6-3.2,8.2c0,0-0.6-0.3-0.7-0.3
			c-1.8,1.1-3.3,2-4,2.4c0.6,2.2,1.1,3.7,1.3,5.3c0.1,0.5-1.5,1.2-1.4,1.6c0.8,2.8-0.8,2.7-2.6,2.5c-0.3,0-0.9,0.1-0.9,0.3
			c-0.2,1.6-1,2.3-2.7,2.6c-1.1,0.2-1.9,1.5-2.9,2.3c-0.4-0.8-0.8-1.6-1.2-2.5c-1.3,0.2-3.4-0.2-4,0.6c-0.8,1-0.5,2.9-0.6,4.4
			c-4.1,0.3-4.5,0.8-2.7,4.3c-1,0.2-2.1,0.1-2.7,0.6c-1.2,1-3.2,2.3-3.1,3.4c0.2,2.6-1.1,3.9-2.8,5.2c1.6,1.7,4,2,5.1,0.3
			c2-3.2,3.8-1.6,5.8-0.3c0.5,0.3,1.1,0.4,1.1,0.4v2.6c-0.2,0.1-0.9,0.4-2,0.8c1,0.7,1.6,1.1,1.7,1.2c0,0.9-0.2,1.6,0,2.2
			c0.4,1,1,1.9,1.6,2.8c-0.1,0.2-0.2,0.5-0.4,0.7c-0.9-0.3-1.8-0.6-2.7-0.8c-0.3-0.1-0.7,0-0.9,0.2c-1.3,0.9-2.6,1.3-4.4,1.1
			c-0.8-0.1-1.8,2-2.7,3.2c-0.6,0.7-1.1,1.5-1.7,2.2c-0.4,0-0.9,0-1.3-0.1c0.6,1.3,1.2,2.7,1.7,3.9c-2.2,0.8-5.4,0.9-6.8,4.3
			c-0.1,0.3-1.7,0-2.8,0c0,0.8-0.1,1.8-0.1,2.8c-2.9,1-3.8,2.4-3.7,5.8c0,1.4,3.3,4.6,5.2,4.7c1.7,0.1,3.4-0.4,5.1-0.7
			c1.3-0.2,2.7-0.4,4.5-0.6c-0.5,1.5,2,3.9-1.9,3.9c-0.8,2.2-2.9,1.2-4.3,1.9c0.3,1.5,0.7,3.2,1.1,4.7c-2.2-1.1-4.4-2.2-7-3.4v5.1
			c-1.7,0.1-3.6,0.5-5.4,0.2c-1.7-0.3-3.4-1.3-5.3-2.2c-1.1,1.5-1,3.3,1,5c-0.6,0.8-1.2,1.6-2.1,2.8c-0.3-0.7-0.5-1.3-0.6-1.7
			C295.4,215.2,294.4,216.5,293.2,218.1z M395.5,193c1-0.6,2.2-1.5,3-1.1c3,1.3,4.7-1,6.9-1.9c3.8,4.6,3.8,9.5,0.6,10.3
			c-1.4-0.7-2.3-1.2-3.4-1.7c0.8-2.2-1.1-6-2.8-5.2C398.1,194.1,396.9,193.5,395.5,193z M377.1,156.6c-4.5,0.6-0.9,3.3-0.9,5.7
			c-2.1-0.9-3.9-1.6-5.8-2.4c1.1-0.6,1.9-1.1,3.4-2c-1.4-0.8-2.3-1.3-3.1-1.8c0.2-0.2,0.3-0.4,0.5-0.6c0.6,0.3,1.2,0.6,1.7,0.8
			c0.4-0.8,0.9-1.6,1-1.8C374.9,155.3,375.9,155.9,377.1,156.6z M367.1,229.9c3.7-1.7,7.2-4.7,12.3-1.6
			C374.8,228.4,371.2,231.4,367.1,229.9z M365.7,218.5c0.8-0.6,2.4-1.6,2.3-1.8c-1-2.1,1-2.1,1.8-2.7c1.5-1.1,3.1-1.9,4.2-2.6
			c1.4,0.8,2.7,1.6,4.3,2.5c-0.1,0.6-0.2,1.4-0.3,2.3c0.2,0.1,0.5,0.1,0.7,0.2c0.3-1.7,0.7-3.5,1-5.4h5.1c-1.5-1.6-2.6-2.8-3.7-4
			c0.6-0.4,1.3-0.7,1.9-1.1c1.2,3.1,3.8,0.9,5.6,1.6c-1.3,1.3-2.6,2.6-4.3,4.3c1.1,0.3,1.8,0.3,2.1,0.6c0.5,0.6,1,1.4,1,2.1
			c-0.1,0.9-0.7,2.4-1,2.4c-1.6,0-2.7,0.9-4,1.3c-1.5,0.5-3.3,0-4.9,0c-0.5,0-0.9,0.3-1.6,0.6c0.2-1,0.3-1.8,0.4-2.3
			c-1.5-0.2-2.8-0.4-4.5-0.6c-0.2,0.4-0.7,1.3-1.3,2.3c-1.4,0.3-3,0.7-4.7,1.1C365.8,218.9,365.8,218.7,365.7,218.5z M365.5,213.1
			c1.3-0.7,2.5-1.6,3.8-2.1c1.3-0.5,2.6-0.8,4-1.2c0.1,0.2,0.1,0.4,0.2,0.7c-2.5,1.2-4.4,3.6-7.4,3.7
			C365.9,213.8,365.7,213.4,365.5,213.1z M357,171.2c-0.5,0.9-1.1,1.9-1.8,3.1c-1.2-1.9-2.4-3.8-3.6-5.7c-0.7,0.6-1.2,1.1-2.1,1.9
			c1.1-2.9,2-4.1,4.4-4.2C357.2,166.2,356.5,169.2,357,171.2z M358.3,191.7c-2.7-1.2-4.9-2.1-7.2-3.1c0.9-1.3,1.8-2.4,2.7-3.7
			c0.9,0.5,1.7,1,2.7,1.5c-0.7,0.6-1.3,1.1-2,1.7c0.9,0.5,1.6,0.9,2.1,1.4C357.1,190,357.5,190.6,358.3,191.7z M350.2,226.4
			c3.5,0.3,6.9,0.7,10.3,1c0,0.3,0,0.7,0,1c-2.6,1.6-4.9,3.2-8.3,1.6C350.6,229.3,349.8,228.8,350.2,226.4z M350.7,223.3
			c0.2-0.2,0.3-0.4,0.5-0.6c0.3,0.3,0.5,0.6,0.8,0.9c1.4-0.2,2.8-0.3,4.1-0.7c3.5-1.1,4-0.8,3.6,2.8c-2.7-0.2-5.5-0.5-8.2-0.7
			c-1.2,0-3.2,0.3-3.3,0C347.7,222.8,350,224.1,350.7,223.3z M344.6,151.1c-0.9,0.8-1.8,2.3-2.7,2.3c-1.3,0-2.5-1-3.8-1.6
			C339.2,149.4,342,149.2,344.6,151.1z M335.6,169c0.9-1.2,2-2.8,3.2-4.4c0.6,1.8,0.7,3.3,1.3,3.6c1.5,0.7,3.2,0.8,4.6,1.2
			c-0.3,0.2-1.1,0.6-1.9,1.1v1.4c-1.9-0.2-3.7-0.4-5.5-0.6C337,170.7,336.4,170,335.6,169z" />
			<path class="st1" d="M307.3,328.3c-5,0-10,0-15,0c0.2-0.7,0.4-1.4,0.7-2c1.8-3.6,2.2-7.4,2.4-11.3c0-0.6-0.4-1.4-0.8-1.7
			c-0.7-0.6-1.7-0.8-2.6-1.2c-0.1,0.7-0.1,1.2-0.2,1.8c-0.1,0.6-0.3,1.3-0.5,2c-0.5-0.2-0.8-0.4-0.8-0.4c-1.2,1.1-2.3,2.2-3.4,3.2
			c-0.2-0.1-0.3-0.3-0.5-0.4c0-0.6,0-1.2,0-2.4c-0.8,1.3-1.4,2.1-1.9,2.9c-1.8,3.1-1.8,3.1-4.6,1.9c-1.3,1.3-2.5,2.5-3.8,3.7
			c-0.5-0.3-0.9-0.7-1-0.7c-1.4,0.4-2.8,1.1-3.2,0.7c-0.7-0.6-0.7-1.9-1.1-3.1c-0.8,0.7-1.5,1.4-2.3,2c-0.7,0.6-1.5,1-2.7,1.8
			c0-1.6,0-2.7,0-3.8c-4.6,3.6-5,3.7-6.5,1.3c-0.6,0.4-1.3,0.9-1.6,1c-1.3-0.6-2.2-1-3.3-1.5c0.5-1,1-2,1.7-3.2
			c-2.5,0.8-4.6,1.4-6.8,2.1c-0.1-0.2-0.2-0.4-0.3-0.6c1-1.1,1.9-2.2,3.2-3.7c-1.5,0.3-2.5,0.6-3.4,0.6c-0.7,0-1.4-0.2-2.1-0.4
			c0.6-0.5,1.1-1.2,1.7-1.5c0.7-0.4,1.5-0.4,2.3-0.6c1.3-0.4,2.7-0.7,4-1.1c-2.6-2.1-4.5,1.1-6.8,0.8c-0.1-0.7-0.2-1.2-0.2-1.6
			c-1.5,0.3-2.8,0.6-4.3,0.9c0-0.8,0-1.2,0-1.7c-1.4,0.7-2.7,1.3-4.5,2.1c0.4-1.2,0.7-1.7,0.9-2.3c-0.9,0-1.7,0.1-2.4,0.1
			c-0.1-0.2-0.2-0.3-0.3-0.5c0.6-0.8,1.3-1.6,1.9-2.4c-2.4,0.4-4.8,0.7-7.2,1.1c0-0.3,0-0.5,0-0.8c2-1,4-2.1,6.5-3.3
			c-1.7-0.5-2.7-0.8-3.7-1.1c0-0.3,0.1-0.5,0.1-0.8c1.8-0.2,3.6-0.3,5.5-0.5c-0.3-0.6-0.5-1-0.8-1.7c1.4,0.1,2.6,0.1,3.2,0.2
			c0.5-0.6,0.8-1.1,1.1-1.1c0.6-0.1,1.4,0,1.9,0.3c3.7,1.8,7.4,0.5,11-0.1c1.5-0.3,2-1.2,1.8-2.8c-1,0.8-2,1.4-2.9,2.1
			c-0.2-0.1-0.4-0.3-0.6-0.4c0.5-1.3,1-2.6,1.5-3.7c-2.1,1.8-4.3,3.6-6.5,5.4c-0.1-0.1-0.2-0.2-0.4-0.3c0.2-1.3,0.4-2.6,0.6-4
			c-1.8,1-3.2,1.9-4.9,2.9c-0.4-1.6-0.7-2.8-1.1-4c-1.5,0.4-3,0.7-4.4,1.1c-0.1-0.2-0.3-0.4-0.4-0.5c0.8-1.2,1.6-2.4,2.6-3.9
			c-1.2,0.3-2,0.7-2.8,0.8c-1.6,0.2-3.3,0.3-4.9,0.3c-0.4,0-0.8-0.7-1.2-1.1c0.4-0.3,0.7-0.8,1.1-0.9c0.7-0.2,1.4-0.2,2.1-0.3
			c1.1-0.2,2.1-0.3,3.2-0.5c0.1-0.2,0.1-0.4,0.2-0.6c-1-0.6-2-1.2-3.2-2c6.2-1,12.4,0.3,18.3-1c0-0.3,0-0.6,0-0.8
			c-1.6-0.1-3.2-0.3-4.8-0.4c0.3-0.5,0.6-0.9,1-1.6c-1.5,0.5-2.7,0.8-4.1,1.2c0.2-0.6,0.3-0.9,0.4-1.2c-1.5-0.3-2.9-0.5-4.3-0.9
			c-0.2-0.1-0.4-1.2-0.2-1.5c0.8-0.7,1.8-1.3,2.8-2c-5.8-0.3-5.8-0.3-6.5-1.8c2.8-0.5,5.6-1,8.6-1.5c1.2-1.5,0.5-2.8-0.8-3.6
			c-1.4,0.4-2.6,1.1-3.6,1c-1.2-0.1-2.4-0.8-3.3-1.6c-0.8-0.7-1.3-1.9-2-2.8c-0.3,0-0.6,0-0.9,0c0.9-1.1,1.7-2.1,2.7-3.3
			c-2.5-0.4-5.2-0.4-7.4-2.6c2.8-1.3,5.3-0.1,8,0.2c-0.7-0.9-1.2-1.7-1.7-2.5c0.1-0.2,0.2-0.4,0.3-0.6c2.2,0.3,4.4,0.7,6.6,1
			c-0.1-0.6-0.2-1.1-0.4-2.1c2.4,0.5,4.4,0.9,6.4,1.2c1.2,0.2,2.5,0.7,3.7,0.5c3-0.7,6-1.6,8.8-2.8c1-0.4,1.6-1.7,2.4-2.6
			c-0.1-0.1-0.3-0.2-0.4-0.2c-1.6,0.6-3.2,1.2-5.3,1.9c0.4-1.5,0.7-2.3,1-3.3c-0.6,0.5-1.1,0.8-1.2,0.9c-1.2-0.7-2.2-1.2-3.3-1.9
			c0-0.1,0.2-0.5,0.4-0.9c-2-0.2-4.2,2-5.8-0.6c-0.8,0.2-1.5,0.3-2.8,0.6c0.7-1,1.1-1.5,1.6-2.3c-0.7-0.1-1.3-0.1-1.7-0.3
			c-0.9-0.4-1.8-0.8-2.7-1.2c0.8-0.4,1.5-0.7,2.3-1.1c0.1-0.1,0.2-0.1,0.3-0.2c-3.5-0.9-5.1-1.9-5.9-3.4c4.2,0.6,8.5,1.2,13,1.8
			c-0.6-0.9-0.9-1.4-1.2-1.9c0.1-0.1,0.2-0.3,0.3-0.4c0.7,0.3,1.6,0.4,2.2,0.8c1.6,1,3.3,1.4,5.1,0.9c4-1,8-2,12-3.1
			c0.6-0.2,1.1-0.6,1.4-0.8c-1.5-0.7-3.3-2.3-4.3-1.9c-1.8,0.7-3.2-0.6-4.8,0c0.1-0.8,0.1-1.4,0.2-2c-1.3,0.7-2.5,1.3-3.9,2.1
			c0-1.5,0-2.5,0-3.7c-1.1,0.6-2.2,1.7-3.2,1.8c-0.9,0-1.9-1.1-2.7-1.7c-1,0.3-2.1,0.6-3.2,0.9c-0.1-0.2-0.1-0.3-0.2-0.5
			c0.4-0.8,0.8-1.5,1.2-2.3c-0.8,0.2-1.2,0.6-1.8,0.9c-0.5,0.2-1.1,0.5-1.6,0.4c-2-0.6-4.1-1.4-6.2-2.1c0.9-0.7,2-1.5,3.3-2.5
			c-1.5-1.1-3.9-0.4-4.7-2.6c9.4-2.7,19.2-1.1,28.6-3.6c-1.8-1.1-4.5-0.1-5.3-2.7c2.4-0.7,4.8-1.4,7.2-2c2.4-0.6,4.8-1,6.6-3.3
			c-1.4-0.2-2.6-0.3-4-0.5c-0.3,0.6-0.8,1.4-1.4,2.7c-0.4-1.1-0.6-1.7-0.9-2.4c-0.7,0.8-1.3,1.5-2,2.2c-0.4-0.9-0.7-1.6-0.8-1.8
			c-1.1,0.9-2.2,2.1-3.5,2.5c-1.5,0.5-3,0-3.4-1.8c-0.8,0.7-1.5,1.3-2.2,2c-1-4.1-3.7-1.2-5.2-2.2c-0.9-0.5-1.8-1.1-2.7-1.6
			c0.3-0.5,0.6-1.1,1-1.8c-3.3-0.5-4.6-1.2-5.6-3c1.3-0.1,2.5-0.3,3.8-0.3c1.3-0.1,2.4-0.3,2.8-1.9c0.1-0.4,1.1-0.9,1.7-0.9
			c5.2-0.5,10.3-1.3,14.8-4.2c-0.3-1-0.7-2-1.1-3.1c1-0.3,2.1-0.6,3.1-0.9c-1.3-1.6-2.4-1.7-4.2-0.1c-1.7,1.5-3.2,3.8-6,1.5
			c0-0.1-0.1-0.6-0.1-1c-0.7,0-1.2-0.1-1.9-0.1c-0.2-0.7-0.4-1.4-0.6-2.1c-0.1,0.2-0.2,0.4-0.3,0.6c-1.2-0.4-3-0.5-3.3-1.3
			c-0.5-1.3-1.3-1.7-2.2-2.2c-0.6-0.3-1.1-0.7-1.8-1c0.3-0.3,0.4-0.5,0.5-0.5c1.4,0,2.8,0,4.2,0c0.4-1.8,1.4-1.6,2.6-0.7
			c0.3,0.2,0.6,0.4,0.8,0.5c2.2,1.1,6.3,0.3,7.5-1.5c-1.3-0.6-4,1.3-3.8-2c-3,0.9-3.4,0.7-4-1.9c-0.7-0.1-1.4-0.2-2.1-0.2
			c0.1-0.2,0.3-0.3,0.4-0.5c-1.2-1.3-2.4-2.6-3.6-3.9c1.8-2.5,4.3,0.9,6.2-0.8c0-0.3-0.1-0.6,0-0.9c0-0.4,0.1-0.7,0.2-1.6
			c5,3.8,9.7,1.9,14.4,0.3c-2.7-2.8-5.4-5.5-8.1-8.2c-0.6,0.5-1.1,1-1.5,1.3c-2.1-2.3-4.7-3.1-7.5-3.7c0.2-0.7,0.3-1.2,0.4-1.4
			c-1.8-0.9-3.4-1.7-5-2.6c0.1-0.3,0.2-0.5,0.3-0.8c2.1,0.2,4.2,0.5,6.4,0.8c-0.2-1-0.3-1.8-0.5-3.2c2.2,1.3,3.8,2.4,5.5,3.4
			c1.6-2.2-0.2-3.5-1.2-4.9c2.5-0.6,4.8-1.7,7.2,0.5c0.2-0.9,0.5-2,0.2-2.2c-0.9-0.6-2.1-0.8-3.2-1.2c-0.1,0.2-0.2,0.4-0.3,0.5
			c-0.1-0.6-0.2-1.2-0.3-1.7c-0.8-0.1-1.4-0.1-2.2-0.1c0.4-2.7-2.1-0.9-2.9-1.9c0.2-0.5,0.5-1,0.5-1.1c-0.6-0.7-1.1-1.1-1.5-1.6
			c0.7-0.5,1.3-1.2,2-1.5c0.4-0.2,1.1,0.3,1.7,0.4c1.4,0.3,2.8,0.4,2.7-1.8c2.1,0.6,4,1.1,6,1.7c-0.3-1-0.6-1.8-0.8-2.5
			c0.1-0.1,0.3-0.2,0.4-0.4c1.8,0.8,3.7,1.7,5.5,2.5c0.6,0.3,1.5,0.6,2,0.3c3.3-2,6.6-4.1,9.8-6.3c0.7-0.5,0.9-1.7,1.3-2.6
			c-0.2-0.1-0.3-0.1-0.5-0.2c-1.7,2.5-3.2,3.4-5.2,3.8c-2.2,0.4-4.7,0.3-6.2,2.6c-0.1,0.2-0.5,0.2-0.8,0.3c-0.1-0.6-0.2-1.2-0.3-1.8
			c-0.3,0.2-0.6,0.4-0.8,0.4c-0.8,0.1-1.7,0.1-2.5,0.2c0.4-0.7,0.8-1.5,1.3-2c0.7-0.8,1.7-1.4,2.5-2c-2.4,0.9-4.5,2-6.7,2.9
			c-0.3,0.1-1-0.2-1.2-0.5c-0.5-0.7-0.8-1.6-1.4-2.6c0.9-0.6,1.8-1.3,2.8-2c-0.1-0.2-0.2-0.3-0.3-0.5c-0.8,0.5-1.5,1-2.3,1.5
			c-0.9,0.6-1.9,1.2-2.9,1.6c-0.4,0.2-1.3-0.2-1.5-0.5c-0.2-0.3,0.2-1,0.5-1.5c0.3-0.5,0.9-0.8,1-1c-2.2-0.5-4.5-0.9-6.8-1.5
			c-0.4-0.1-0.7-0.8-1-1.3c0.4-0.2,0.8-0.6,1.3-0.7c1.7-0.3,3.3-0.5,4.7-0.7c0.2-1,0.2-2.2,0.5-2.3c0.6-0.2,1.5,0,2.2,0.3
			c0.5,0.2,0.9,0.8,1.4,1c2.3,1.2,4.7,2.3,7.1,3.5c0.1-0.2,0.2-0.3,0.2-0.5c-0.8-0.7-1.6-1.4-2.5-2.2c1.5-1.3,2.7-0.5,3.6,0.2
			c3.7,2.8,7.8,2.4,12,1.9c1.5-0.2,1.8-0.9,1.2-2.1c-0.2-0.6-0.5-1.1-1-2.1c-0.6,2.4-2.3,2.5-3.8,2.6c-0.2,0-0.5-1.4-0.7-2
			c-1.1,0.1-2.3,0.3-3.4,0.4c-0.1-0.2-0.1-0.4-0.2-0.7c0.7-0.7,1.4-1.5,2.1-2.2c-0.9-0.1-1.6,0.2-2.3,0.4c-0.7,0.2-1.7,0.6-1.9,0.4
			c-1.3-1.4-2.7-1.1-4.4-0.8c-0.6,0.1-1.4-0.8-2.2-1.3c0.5-0.5,0.9-1.1,1.5-1.3c1-0.4,2-0.6,3.3-0.9c-2-1.3-2.3-4-5.1-4
			c-0.8,0-0.6-1.1,0.2-1.6c0.6-0.3,1.4-0.5,2.2-0.8c-1.6-1.2-3.5-2-2.6-4.9c2.2,1.2,4.1,2.4,6.1,3.5c1.3,0.7,2.5,1.9,3.8-0.1
			c0.2-0.3,0.9-0.3,1.4-0.4c-1-1.6-3.2-2.4-2.6-5c1.5,0.7,2.7,1.2,4.3,1.9c-0.1-1.4-0.2-2.4-0.2-3.4c-0.1,0.2-0.2,0.4-0.4,0.6
			c-1.1-0.1-2.6,0.1-3.1-0.5c-1.3-1.5,1-1.6,1.6-2.7c-1.1-1.5-2.2-3-3.2-4.6c-0.3-0.5-0.1-1.3-0.1-2c0.6,0.1,1.3,0.1,1.8,0.3
			c0.9,0.5,1.8,1.1,2.4,1.4c0.8-1,1.2-1.7,1.7-2.4c0.5,0.7,1,1.4,1.5,2.1c0.2,0.3,0.1,0.8,0.2,1.2c0.5,1.6,1,3.1,1.5,4.6
			c0.6-0.5,0.8-0.8,0.8-1.2c0.3-3-0.4-5.7-2.5-8c-1.2-1.3-2.7-2.6-1.9-5.2c1.7,1.6,3.1,2.9,4.6,4.3c0.2-0.1,0.3-0.2,0.5-0.2
			c0-3.3,0-6.5,0-10c3.7,2,1.6,5.8,3.2,8.7c1.2-1.9,2-4,4.9-3.4c-1.6,4.5-7,7.2-5.2,13c1.4-2.2,2.8-4.4,4.2-6.6
			c0.2,0.1,0.3,0.2,0.5,0.3c0.1,0.6,0.2,1.2,0.3,1.6c2-0.8,3.9-1.6,5.9-2.4c0.1,0.2,0.3,0.5,0.4,0.7c-1.2,1.1-2.4,2.1-3.5,3.1
			c1.4,0.8,2.7,1.5,4.2,2.4c-2.8,1.7-5.6-0.1-8.2,0.8c2.4,0.7,4.5,1.8,5.7,4.3c-0.5,0.2-0.9,0.5-1.2,0.5c-1.6-0.3-2.9,0-4,1.2
			c-0.1,0.1-1-0.3-1.2-0.6c-0.2-0.4-0.1-0.9-0.1-1.4c-2.7,0.4-3.5,1.8-3.1,4.3c0.3,1.9,0.5,3.7,0.7,5.6c0.1,0.6,0.1,1.3,0.2,2.4
			c3.1-1.9,5.7-3.6,7-6.7c0.7-1.7,1.7-3.2,2.6-5c1,0.9,1.6,1.4,2.3,2.1c1.1-1,2-1.9,3.1-2.8c0.4-0.3,1-0.3,1.5-0.4
			c0,0.5,0.1,1.2-0.1,1.6c-0.5,1-1.2,1.9-1.8,2.9c1.5,0.2,2.8,0.5,4.4,0.7c-1.7,1.6-3.1,3-4.5,4.3c0.1,0.2,0.2,0.4,0.3,0.6
			c1,0.3,2.1,0.4,3.1,0.8c0.4,0.2,0.7,0.7,0.9,1.1c0,0.2-0.6,0.6-0.9,0.8c-1.2,0.9-2.5,1.7-3.9,2.6c-2.8-1.2-3-1.1-3.1,1.4
			c1.8,0.4,3.7,0.8,5.5,1.1c0,0.2,0,0.5,0.1,0.7c-1.2,0.6-2.4,1.2-3.7,1.9c0.1,0.3,0.2,0.7,0.3,1.2c-0.9,0.4-1.6,0.8-2.4,1.2
			c0.1,0.2,0.2,0.4,0.3,0.6c1.1-0.4,2.1-1,3.2-1.3c1-0.2,2.2,0,3.2,0c-0.1,0.7-0.2,1.4-0.3,2.4c3.3,0.7,6.6,1.9,9,4.5
			c-2.2,2.2-5.8,2.8-8,1.3c-0.3,0.6-0.8,1.2-0.9,1.8c-0.3,1.6-1.1,1.7-2.2,0.8c-1.2-1.1-2.3-2.4-3.5-3.7c-0.4,0.3-1,0.7-1.5,1
			c0.2,0.8,0.5,1.5,0.7,2.1c-2.4,0.4-3.1,0-4.9-3.1c-0.1,0.4-0.2,0.8-0.4,1.2c-0.3,0.6-0.8,1.2-1.2,1.7c-0.6-0.4-1.3-0.7-1.6-1.3
			c-0.6-1.1-0.9-2.4-1.3-3.6c-0.1-0.5-0.2-0.9-0.3-1.4c-0.3,0.1-0.5,0.1-0.8,0.2c0.5,1.7,0.9,3.4,1.5,5c1.4,3.6,5,1.6,7.7,2.8
			c-0.5,0.8-1,1.5-1.5,2.3c1.8,1,3.6,1.7,5.6,0.7c1.7-0.9,3.3-1.9,5.1-2.9c0.1,0.8,0.2,1.3,0.3,1.9c1-0.2,1.9-0.3,2.6-0.5
			c0.7,1.2,1.2,2.2,1.8,3.2c1.6-0.6,3.2-1.2,4.8-1.7c0.6-0.2,1.7-0.2,1.8,0c0.7,1.7,2.2,1.1,3.4,1.3c0.8,0.2,1.7,0.4,2.6,0.6
			c-1,2.9-3.3,1.7-5.1,2.2c0.4,0.5,0.8,0.8,1.2,1.3c-1.3,0.5-2.5,0.9-3.8,1.4c0.5,0.6,0.9,1,1.2,1.4c-0.1,0.2-0.2,0.4-0.3,0.6
			c-1.9-0.8-3.9-1.6-6.3-2.7c1.5,1.6,2.5,2.7,3.6,3.8c-0.2,0.2-0.3,0.5-0.5,0.7c-1.3-0.6-2.7-1.3-4-1.9c-0.6-0.3-1.2-0.6-1.9-0.9
			c-0.2,0.7-0.5,1.4-0.5,2.2c-0.1,1.6-0.6,2-2.1,1.3c-1-0.5-1.9-1.3-2.8-1.9c-0.2,0.5-0.4,1.4-0.5,1.4c-0.7-0.1-1.3-0.3-2-0.6
			c-0.9-0.5-1.9-1-2.8-1.5c-0.1,0.2-0.3,0.4-0.4,0.7c0.4,0.6,0.7,1.5,1.3,1.8c2.5,1.3,5.1,2.4,7.6,3.7c4.5,2.2,7.2-1.6,10.7-3
			c-0.3,0.6-0.7,1.2-0.9,1.6c0.5,0.8,0.9,1.3,1.4,1.9c1.6-0.9,3.1-1.7,5-2.7c-0.3,0.9-0.4,1.5-0.7,2.3c2,0,3.7,0,5.5,0
			c0.1,0.2,0.1,0.4,0.2,0.6c-1.6,0.8-3.3,1.6-5,2.5c0.1,0.5,0.3,1.1,0.4,1.6c-2.2,1.5-3.5-0.9-5.6-1.3c0.6,1,0.9,1.7,1.3,2.4
			c-0.4,0.2-0.7,0.4-1,0.6c0.2,0.6,0.4,1.2,0.6,2c-1.3-0.3-2.2-0.5-3.3-0.7c0.1,1.6-1.2,3.9-2.4,3.9c-1.5,0-3.1-0.2-3.6-2.1
			c-2,3-3.4-0.2-5.1-0.4c-0.1,0.7-0.3,1.4-0.5,2.3c-2.3-1.4-4.7-2.2-7.5-1.7c3.2,2.4,6.6,4,10.2,5.2c3.9,1.3,7.5,0.9,10.9-1.4
			c0.2,0.2,0.3,0.3,0.5,0.5c-0.3,1.1-0.6,2.2-1.1,3.7c2.9-0.7,5.7-1.4,8.7-2.1c-0.1,0.7-0.2,1.2-0.2,1.4c2.3,0.7,4.5,1.4,7,2.1
			c-2.2,1.6-4.2,2.9-6.2,4.3c0.3,0.3,0.6,0.6,1.1,1c-1,0.5-1.9,1-2.7,1.4c0.4,0.7,0.7,1.3,1.3,2.3c-3,0-5.5,0-8.1,0
			c0,0.7-0.1,1.2-0.1,2.1c-1.5-0.7-2.8-1.3-4.2-1.9c-0.2,0.7-0.4,1.3-0.6,2.1c-2.5-1.1-5.6,0.3-7.8-2.5c1,5.1,4.9,5.4,8.5,6.2
			c4,0.9,7.3-0.7,10.3-3.2c0.1,0.2,0.2,0.3,0.2,0.5c-0.3,0.6-0.5,1.2-0.9,2.1c1.2-0.3,2.1-0.5,3.6-0.9c-1.1,1.2-1.9,2-3,3.2
			c2.6-0.5,4.6-0.9,6.1-1.1c2.3,1.2,4.3,2.2,6.7,3.4c-1.4,0.9-2.3,1.5-3.3,2.2c0.8,1.1-0.3,1.2-1,1.2c-1.9,0.2-3.3,0.8-3.1,3.4
			c-2.2-0.2-4.2-0.3-6.2-0.5c-0.1,0.2-0.3,0.5-0.4,0.7c1.2,0.8,2.3,1.6,3.8,2.5c-6.5,2.1-6.5,2.1-9.3,0.7c-0.5,0.8-1,1.5-1.7,2.5
			c6.3,1.9,12.8,1.6,19.4,0.5c0.1,0.1,0.3,0.3,0.4,0.4c-0.7,0.6-1.3,1.2-2.2,2c0.2,0.1,0.7,0.2,1.2,0.4c-0.1,0.2-0.2,0.4-0.3,0.6
			c-1.2,0.1-2.3,0.3-3.6,0.4c0.9,1,1.6,1.9,2.8,3.3c-2.3-0.3-4-0.5-5.9-0.7c1,2.7,2.9,3.7,5.7,3.1c2.8-0.6,5.6-1.4,8.4-2
			c0.7-0.2,1.4-0.2,2.6-0.3c-1.2,1.4-1.9,2.3-2.8,3.3c0.4,0.6,0.8,1.1,1.3,1.7c-1,1.3-1.9,2.6-2.9,3.9c-0.7-0.2-1.4-0.4-2.3-0.6
			c0.3,0.6,0.5,1.1,1,2.2c-2.1,0-4.2,0.6-5.3-0.1c-2.5-1.7-4.3,0.5-6.5,0.4c5.4,3.2,10.9,5,16.9,2c0.1,1.1,0.2,1.7,0.3,2.6
			c1.5-0.4,2.8-0.7,4.1-1c1.3-0.3,2.6-0.5,4-0.8c-0.2,2.8-2.3,3.2-3.6,4.2c-1.3,1-3,1.6-4.4,2.3c0.7,0.4,1.6,0.9,3,1.6
			c-2.1,0.2-3.5,0.3-5,0.4c-0.1,0.2-0.2,0.3-0.3,0.5c0.7,0.4,1.5,0.8,2.2,1.2c-0.1,0.3-0.2,0.5-0.3,0.8c-3.3-1-6.6-1.9-9.8,0.7
			c4.2,2.5,9.1,1.8,13.8,2.7c-0.4,0.6-0.7,0.9-1.2,1.7c4.8-0.2,9.1-0.4,13.5-0.6c0,0.1,0.1,0.2,0.1,0.4c-1.9,0.8-3.9,1.6-5.9,2.5
			c1.1,1.4,2.2,2.7,3.3,4.1c-0.4,0.1-0.9,0.2-1.5,0.4c-2.7,0.8-5.5,1.3-8,2.6c-1.3,0.7-2.3,0.8-3.6,0.4c-0.1,0-0.2,0.1-0.4,0.1
			c0.3,0.4,0.6,0.9,1,1.4c-2.3,1-4.2,3.4-6.8,1c-0.3,0.6-0.5,1-0.8,1.5c-0.8-0.6-1.6-1.1-2.1-1.4c-0.4,0.4-0.8,0.9-1.1,0.9
			c-3.1-0.3-6.4-0.4-9.3-1.3c-2-0.6-3.8-0.5-6.2,0.1c4,3.4,8.6,4.1,12.9,5.6c4.4,1.7,8.9,1.4,13.7-0.2c-0.3,1.3-0.5,2-0.7,2.8
			c3.9,0,7.6,0,11.4,0c0,0.1,0.1,0.3,0.1,0.4c-0.6,0.5-1.2,0.9-1.9,1.4c1.7,0.8,3.8-0.1,5,1.8c-3.1,1.6-6.1,0.4-9.5,0.1
			c2.2,1.1,4,2.1,5.8,3c-0.1,0.3-0.1,0.5-0.2,0.8c-4.9-0.6-9.8-0.5-14.4,1.7c0.9,1.4,1.8,2.6,2.6,3.8c-0.2,0.2-0.4,0.4-0.6,0.5
			c-1.5-1.1-3-2.3-4.6-3.5c-0.9,2.6-2.6,1.8-4.4,1c0.1,1.1,0.1,2,0.1,3.1c-2.2-1.2-4-2.2-6.1-3.3c0,1.3,0,2.2,0,3.3
			c-1.1-0.9-2-1.6-3-2.4c-2.2,2-3.3-0.6-4.9-1c0.4,0.7,0.9,1.3,1.5,1.6c1.3,0.8,2.6,1.6,4,2.2c3.7,1.7,7.4,3.4,11.2,4.8
			c3.6,1.4,7.1,1.1,10.5-0.8c1.7-0.9,3.5-1.5,5.2-2.2c0.1,0.2,0.2,0.4,0.3,0.6c-0.9,1-1.8,2-2.8,3.1c3.2-0.1,5.9-1.8,8.9-1.2
			c0.1,0.3,0.1,0.5,0.2,0.8c-3,1-6.1,2.1-9.1,3.1c0,0.1,0,0.2,0.1,0.4c2.5,0.4,5,0.9,7.6,1.3c0,0.2,0,0.4,0,0.6
			c-1.6,0.1-3.1,0.2-4.7,0.3c0,0.1,0,0.3-0.1,0.4c1.3,0.6,2.6,1.2,4,1.8c-0.1,0.1-0.1,0.3-0.2,0.4c-1.9,0-3.7,0-5.7,0
			c0.5,0.6,1,1,1.6,1.7c-1.2,0.3-2.1,0.5-3.1,0.8c1.1,0.5,1.9,0.9,2.8,1.3c0,0.2,0,0.4,0,0.6c-1.6,0.1-3.2,0.3-4.8,0.4
			c-0.1,0.1-0.2,0.2-0.2,0.4c0.6,0.3,1.3,0.6,1.9,0.9c-0.1,0.2-0.3,0.5-0.4,0.7c-1.4,0.1-2.8,0.1-4.3,0.2c0.2,0.5,0.4,1,0.7,1.7
			c-1.3-0.2-2.4-0.3-3.5-0.4c0,0.2-0.1,0.5-0.1,0.7c5.2,2.7,11.1,2.7,16.8,3.8c0,0.2,0,0.4,0.1,0.6c-1.8,0.5-3.7,0.9-5.5,1.4
			c0.6,0.5,1.1,1,1.6,1.5c-0.1,0.2-0.2,0.4-0.3,0.7c-2.3-1-4.5-2-6.8-2.9c-0.1,0.2-0.2,0.3-0.3,0.5c0.8,0.8,1.5,1.5,2.2,2.3
			c-0.7,0.3-1.5,0.5-2.3,0.9c0.5,0.9,0.9,1.6,1.3,2.3c-0.1,0.2-0.2,0.4-0.3,0.5c-1.7-0.8-3.4-1.6-5.1-2.5c-1,2.6-1.7,2.7-3.9,0.9
			c-1-0.9-2.1-1.8-3.6-3.1c0.5,1.6,0.9,2.5,1.1,3.5c0.4,1.9-1.6,2.4-3.8,0.7c-0.4,0.7-0.8,1.4-1.2,2.1c-0.4-0.5-0.7-1.1-1.2-1.4
			c-0.4-0.3-1.3-0.6-1.6-0.3c-1.3,0.9-1.9,0.1-2.3-0.9c-0.5-1.4-1.5-1.7-2.8-1.4c0,0.4,0.1,0.7,0.1,1.3c-1.5-0.5-2.9-1-3.9-1.4
			c-0.1,1.4-0.2,2.6-0.3,3.7c-3.1-0.2-5.9-0.4-8.7-0.5c-0.1,0.3-0.2,0.9-0.2,1.1c-1.6-0.4-2.9-0.9-4.3-1c-2.6-0.3-4.6-1.3-5.4-4
			c0-0.1-0.2-0.1-0.3-0.2c-0.1,0.4-0.2,0.8-0.3,1.5c-1.1-1.3-2.1-2.4-3.5-3.9c-0.2,1.2-0.4,1.8-0.3,2.4c0.4,2.3,0.8,4.5,1.2,6.8
			C307.2,326.6,307.2,327.5,307.3,328.3z M250,276.8c3.3,1.6,11.7,1.1,13.5-1.1c-1,0.4-1.9,0.7-2.7,1c-1.2-0.8-2.4-1.6-3.7-2.4
			c-0.7,0.8-1.3,1.6-2.3,2.9c-0.8-1.1-1.5-2.1-2.3-3.3C251.4,275.1,250.7,276,250,276.8z M284.4,160c-2.7,3.9-5.1,1.4-7.4-0.1
			c-0.4,2.3,0.3,3.7,2,3.6c2.5-0.2,4.9-0.6,7.4-1.1c0.6-0.1,1.1-0.8,1.7-1.2C285,161.7,285,161.7,284.4,160z M307,127.8
			c-0.1-0.3-0.3-0.6-0.4-0.9c-0.5,0.2-1,0.3-1.4,0.7c-1.5,1.3-2.6,2.9-5,2.5c-1.6-0.3-2,0.9-1,2.6C301.9,131,304.4,129.4,307,127.8z
			 M293.7,126.9c0.1-2.6-2.2-4.7-5.1-4.3C290.3,124,291.9,125.4,293.7,126.9z M290.7,113.3c1,2.2,2,4.5,3.3,7.2
			C294.7,116.9,293.1,114.9,290.7,113.3z M300.1,154.8c0.3,0,0.6-0.1,0.9-0.1c-0.1-1.7-0.2-3.5-0.3-5.2c-0.2,0-0.4,0-0.6,0
			C300.1,151.3,300.1,153,300.1,154.8z M305,136.8c-2-0.1-3.4-0.2-5-0.3C301.4,137.9,302.8,138.3,305,136.8z" />
			<path class="st0" d="M301.8,266.4c0.5-2,0.9-3.7,1.3-5.4c-2.2,0.2-4.4,0.4-6.9,0.7c-0.1,0.3-0.2,1.4-0.5,1.5
			c-4.7,0.4-9.5,1.1-14.2,0.8c-2.3-0.1-1.8-2.1,0-3.5c0.6,1,1.1,1.9,1.8,3c1.4-1.9,2.6-3.6,3.9-5.3c0.7,0.9,1.5,1.9,1.8,2.3
			c2-1.8,3.6-3.4,5.2-5c1.4-1.4,2.7-2.9,4-4.4c-0.3-0.3-0.6-0.7-0.8-1c-4.9,5.5-11.5,2.4-17.2,3.8c-0.9,0.2-2.2-0.6-3-0.9
			c1.2-2.5,2.2-4.7,3.4-7c0.7,3.4,2.8,3.9,5.5,2.6c-0.2-1.4-0.4-3-0.5-4.2c2.5-0.2,4.6-0.4,6.8-0.6c0.6-0.8,1.5-1.8,2.6-3.1
			c-1.8-0.9-3.5-1.8-5.3-2.7c0-0.3,0-0.6,0-0.9c1.4-0.2,2.9-0.2,4.1-0.8c1.5-0.7,2.8-1.9,4.2-2.9c-0.2,0-0.4-0.1-0.6-0.1
			c0.7-2.2,1.5-4.4,2.1-6.4c-2.7-2.4-5.8,4.8-8.5-0.3c1.1-0.7,2-1.2,3.2-1.9c-1.5-0.5-2.4-0.8-3.8-1.3c1.6-2.6,3-5,4.7-7.8
			c-1.8,0.7-3.1,1.1-4.4,1.6c-0.2-0.2-0.4-0.4-0.6-0.6c0.6-0.8,1.3-1.6,1.8-2.3c-0.2-2.4-0.5-5-0.7-7.5c-0.6,1.5-4,1.5-2.3,4
			c-0.6,0.2-1.3,0.8-1.9,0.7c-0.9-0.1-1.8-0.7-2.7-1.1c2.1-3.3-0.5-8-5.9-10.2c-0.5,2.9-0.9,5.8-1.3,8.7c-1.2-0.4-2.9-1-4.7-1.6
			c0.1-0.2,0.1-0.4,0.2-0.6c0.8-0.1,1.6-0.1,2.9-0.2c-2.9-2.7,0.9-1.5,1-2.8c-0.8-0.4-1.7-0.9-2.7-1.4c0.2-0.1,0.5-0.2,0.7-0.3
			c-0.4-0.9-0.8-1.8-1.1-2.6c1.7-0.7,3.5-1.5,4.5-1.9c-0.4-2.7-0.6-4.7-1-6.7c-0.2-0.9-0.7-1.7-1.1-2.6c-0.3,0.1-0.6,0.1-0.9,0.2
			c0.3-1,0.6-2,0.9-3c-0.2-0.2-0.5-0.4-0.7-0.7c-1.9,3-4.1,4.9-8.7,3.6c5.1-3.3,2-7.2,2.2-10.8c0.1-0.8-0.3-1.6-0.4-2.6
			c-2,2.7-3.8,5.1-5.6,7.5c-0.6-1.6-0.9-3.4-0.2-4.8c0.9-1.9,2.5-3.4,4.4-5.9c-2.4,0.7-3.9,1.1-5.1,1.4c1.4-2.2,2.7-4.2,4-6.3
			c-0.2-0.2-0.4-0.3-0.6-0.5c-0.7,0.4-1.4,0.7-3,1.6c1-2.2,1.6-3.5,2.2-4.7c-0.6-0.7-1.3-1.5-1.7-1.9c-1,0.6-1.8,1.2-2.7,1.8
			c0.2,0,0.4,0.1,0.5,0.1c-0.6,1.1-1.1,2.3-1.7,3.4c-0.8-0.4-1.6-0.8-2.6-1.3c-0.3,0.2-0.9,0.7-1.6,1.2c-0.2-0.2-0.4-0.4-0.6-0.5
			c0.7-0.9,1.5-1.7,2.1-2.7c0.5-0.8,0.8-1.7,1.2-2.6c-2.6-0.9-1.2-3-1.3-4.6c-0.1-0.7-0.4-2.1-0.6-2.1c-2.1-0.1-1.4-1.4-1.3-2.6
			c0.1-1,0-2.1,0-3.4c-1.2,0.1-2.1,0.2-3.5,0.4c0.6-1.6,1.2-2.8,1.6-4.1c0.2-0.7,0.7-1.8,0.4-2.2c-0.5-0.6-1.6-0.8-2.9-1.4
			c-0.6-1.8-1.5-4-3-6.3c-2.4-3.7-3.1-8.5-4.4-12.9c-0.7-2.3-2.1-2.9-3.8-1.2c-1.2,1.2-2.2,2.7-3,4.2c-2.1,3.6-4.4,7.1-8.3,9.3
			c0.7,0.8,1.5,1.6,1.9,2.1c-1.5,3,0.6,4.8,2.1,6.9c-1.2,0.1-2.1,0.1-3,0.1c-0.4-1.5-0.8-2.9-1.2-4.3l-1.1,0.3
			c-0.3,3.3-0.6,6.6-0.9,10.5c-0.3,0.4-0.9,1.4-1.8,2.8c-0.9-2-1.6-3.7-2.4-5.5c-0.3,0-0.5,0.1-0.8,0.1c-0.2,2.6-0.3,5.1-0.5,8.2
			c0.7,1.2,1.9,3.1,3.1,5c-0.2,0.2-0.5,0.3-0.7,0.5c-2-0.6-4.1-1.3-6.6-2.1c0.3,2,0.6,3.6,0.9,5.6c-1.5-0.8-2.6-1.3-3.7-1.9
			c2.5,3.1,1.9,8.6,7.2,9.3c0,0.2,0,0.4-0.1,0.8c-2-0.2-3.9-0.4-5.9-0.7c-0.1,0.2-0.2,0.5-0.2,0.7c0.9,0.6,1.9,1.1,2.8,1.7
			c-0.6,0.3-1.3,0.7-1.9,1c0.1,0.2,0.1,0.4,0.2,0.6h6.1c-2.5,2.9-2.5,2.9-6,1.2c-0.9,1.3-1.8,2.6-2.8,4.2c-0.6-1.6-1-2.8-1.5-4
			c-5.5,2.9-4.7,6.5-1.2,10.2c-1.7,0.4-2.9,0.7-4,0.9c0,0.3,0,0.5,0,0.8c2,1,4.1,2,6.8,3.3c-0.9,1-1.8,3.1-3.1,3.4
			c-1.4,0.4-3.2-0.9-5.4-1.6c-0.4,0.3-1.5,1.1-2.8,2c-0.7-1.7-1.2-3-2-4.9c-1.5,1.8-2.8,3.4-4.4,5.3c0.8,0.7,1.9,1.5,3.5,2.7
			c-2.1,0.2-3.5,0.3-4.9,0.4c-0.6,1.2-1.1,2.4-1.9,4.1c-1.2-3.1-2.1-5.6-3.1-8.4c-0.8,4-1.5,7.7-2.3,11.3c1.1,0.9,2.4,2,3.7,3
			c-0.2,0.3-0.5,0.5-0.7,0.8c-1.3,0.1-2.7,0.2-4.7,0.3c1.5,1.3,2.4,2.2,3.4,3.1c1-0.5,2-1,3-1.4c0.1,0.2,0.2,0.4,0.3,0.6
			c-1,0.8-2,1.5-3.1,2.4c0.4,0.7,0.9,1.3,1.3,2c-1.2,0.1-2.2,0.2-3.1,0.3c2.2,2.7,4.2,5.3,6.8,8.4c-0.4,1.7-1.9,1.3-3.9,0.5
			c-0.9-0.3-2,0-3,0c0.8,1.7-2.3,4.4,1.5,5.4c0.6,0.2,1.1,1.1,1.6,1.7c-2.1,0.3-4.1-0.7-5.7-0.3c-1.6,0.4-2.9,2.3-4.7,3.8
			c-0.2-1-0.3-2.2-0.5-3.2c-1.7-1-3.5-2.1-5.7-3.3c0.2,1,0.6,2,0.5,2.8c-0.2,0.8-0.9,1.4-1.4,2.1c0.6,0.6,1.2,1.2,2.2,2.1
			c-1.4,0.3-2.2,0.4-3,0.5c-0.1,0.3-0.2,0.5-0.3,0.8c2.2,1.2,4.5,2.4,6.7,3.6c-0.1,0.1-0.4,0.6-0.7,1c-3.7,4-3.6,4.7,1.2,7.7
			c0.4,0.2,0.8,1,0.7,1.4c-0.6,1.4-1.3,2.7-2.4,4.8c2.5,0.3,4.8,0.5,7.4,0.7c-0.4,1-0.7,1.9-1.1,2.9c1,0.3,2,0.5,3.3,0.8
			c-0.6,1.3-1.1,2.6-1.5,3.5c1.4,1.9,2.6,3.7,4.1,5.8c2.6-0.5,5.6-1,8.1-1.5c-1.2,2.5-2.3,4.5-3.3,6.6c1.7,0.4,3.4,0.7,5.3,1.1v4.8
			c0.9-0.7,1.3-1,1.8-1.4c0.1,0.8,0.1,1.5,0.2,2.1c3.1,0.3,6,0.6,9.1,1c0.1,0.9,0.3,1.8,0.4,2.8c0.7-0.2,1.2-0.4,1.7-0.5
			c0.1,0.8,0.1,1.5,0.2,2.6c2.8-2.6,6.5-3.7,6.8-7.8c0-0.4,1.1-0.6,2-1.2c-0.5,1.6-0.8,2.7-1.2,3.8l0.8,0.8c1.2-0.9,2.3-1.7,3.6-2.7
			c0.7,2.6,1.5,5.3,2.3,8c3.4-1.3,6.5-2.5,10.2-3.9c0.6,2.3,1.4,4.1,1.4,6c-0.1,5.4-0.4,10.9-1.1,16.3c-0.1,1.1-0.3,2-0.7,2.8
			c2.9-0.5,5.9-0.8,8.7-0.8c-0.2-0.6-0.4-1.2-0.4-2c-0.2-3.5-0.7-7-0.6-10.5c0.1-3.5,0.6-6.9,1.3-10.3c0.4-2,1.7-3.4,4.2-3.4
			c2.3,0,4.8,1,6.9-1c0.2-0.2,1.2,0.4,1.9,0.6c0.4,0.1,1.1,0.5,1.2,0.4c2.1-1.9,2.8,0,3.6,1.2c1.2-0.3,2.6-1.2,3.3-0.8
			c5.2,3.4,9.3-0.3,13.3-2.3c1.9-1,2.9-0.9,4.6,0c1.6,0.9,3.4,1.2,5.5,1.9c-0.5-2.4-0.8-4-1-5.6c2.2-0.5,4.3-1.1,6.6-1.7
			c-0.3-2.1-0.5-4.1-0.7-6.1c2.9-0.3,5.5-0.5,8.1-0.7c0-0.2,0-0.4,0-0.6c-1.5-0.6-3.1-1.2-4.6-1.8c0.1-0.2,0.1-0.4,0.2-0.6H301.8z
			 M185,239.2c-0.8,0.2-2-1.4-3-2.1c1.3-0.8,2.6-1.5,4.2-2.4c1.5,0.9,2.6,1.5,3.7,2.1C188.3,237.6,186.7,238.9,185,239.2z" />
			<path class="st0" d="M529.9,243.1c1.5,1,0.8,5.2,5.1,3.6c0.8-0.3,2,1,3,0.9c2.7-0.2,5.4-0.7,7.9-1.1c-0.1-0.8-0.2-1.4-0.4-2.3
			c1,0.5,2.1,1.2,2.1,1.1c1.2-1.8,4.9-0.6,4.6-4.2c2,0.9,3.7,1.6,5.5,2.4c0.7-0.4,1.6-2,3-0.5c-0.4,1.4-0.7,2.5-1,3.7
			c0.2,0.1,0.4,0.3,0.7,0.4c1.6-0.8,3.2-1.7,5-2.7c0.3,0.4,0.7,1,1.2,1.5c-5,4.2-11.2,4.3-17,5.6c0.1,0.9,0.2,1.9,0.3,2.9
			c-0.3,0-0.5,0.1-0.8,0.1c-0.2-0.7-0.4-1.4-0.7-2.2c-0.7,0.8-1.5,1.6-1.7,1.8c-2.6-0.3-4.7-0.5-6.7-0.7c-0.6,0.6-1.4,1.2-2.1,1.9
			c-0.5,0.5-0.8,1.1-1.3,1.7c0.7,0.3,1.5,0.7,2.2,0.9c0.3,0.1,0.6-0.2,1.1-0.3c0.3,2.1,1.3,2.7,3.2,2.1c1.8-0.5,3.7-0.8,5.5-0.9
			c0.6,0,1.3,0.9,2.1,1.6c2.7-0.7,2.7-0.7,3,1.2c-1.7,1-3.3,2-4.8,2.9c0.1,0.2,0.2,0.5,0.3,0.7c-0.6-0.3-1.1-0.6-1.7-1
			c-0.1,0.3-0.3,0.7-0.2,0.8c0.7,0.7,1.5,2,2.3,2c1.6,0.1,3.3-0.3,4.8-0.9c2.2-0.9,3.8-0.3,5.2,1.6c1.8-0.9,3.5-1.7,5.2-2.6
			c3.6,4.8,7.5,4.9,10.2,0.2c1.4,0.1,3,2.3,4,0.2c0.6-1.3-0.1-3.3-0.2-5.2c-0.2,0,0.3,0,0.8,0.1c0.5,0.1,1.1,0.3,1.9,0.6
			c-0.4-2.2-2.4-4-0.7-6c0.4-0.5,1.3-0.4,2-0.7c0.1,0.2,0.2,0.4,0.2,0.7c-0.7,0.3-1.4,0.6-2.5,1.1c1.9,0.9,5.5,1,2.2,4.4
			c0.5-0.2,1-0.3,1.7-0.5c-0.1,0.5-0.2,1.1-0.4,1.7c1.1,0.1,2,0.2,3.8,0.3c-1.2-2.1-2.3-4.2-3.5-6.3c0.2-0.2,0.4-0.5,0.6-0.7
			c2.7,1.2,5.5,2.4,8.2,3.5c0.6,0.3,1.4,0,2,0.4c0.9,0.5,1.7,1.2,2.6,1.9l-0.7,1c-1.2-0.6-2.4-1.3-3.7-1.9c-0.2,0.2-0.4,0.4-0.5,0.6
			c0.9,0.8,1.9,1.5,2.7,2.3c0.8,0.9,2,1.9,2.1,2.8c0.2,8,0.1,16,0.1,24.2c0.1,0,0.2,0,0.2,0c2.1-0.1,4.2-0.2,6.3,0
			c-0.3-10.6-0.7-20.7-1-30c1.8-1.3,2.8-2.4,4.1-2.9c2.4-0.9,5-1.5,7.4-2.2c2.8-0.8,5.5-1.8,8.4-2.4c2.3-0.5,4.7-0.7,7-0.9
			c2-0.2,4-0.3,5.9-0.5c-0.3-1-0.7-2-1-3c1.2-0.2,2.3-0.3,3.5-0.6c0.9-0.2,1.7-0.5,2.5-0.8c-0.3-0.2-0.5-0.3-0.8-0.5
			c0.3-2,0.7-3.9,1.1-6.2c-1.1,0.5-2.3,1.1-3.2,1.5c-0.4-0.6-0.7-1.1-1.1-1.8c0,0,0,0,0,0c0,0,0,0,0,0c0,0.1,0,0,0,0c0,0,0,0,0-0.1
			c0,0,0,0,0,0.1c1.8-0.5,3.6-1.3,5.4-1.5c0.7-0.1,1.6,1.1,2.3,1.7c1,0,2.2,0.2,3.4,0c1.3-0.3,2.7-0.8,2-2.9c-0.6,0.4-1,0.7-1.3,0.9
			c-0.8-0.5-1.6-0.9-2.6-1.5c0-0.1,0.2-0.6,0.4-1.1c-1.8-0.2-3.5-0.4-5.2-0.6c0-0.2,0-0.3,0-0.5c1.2-0.5,2.5-0.9,3.8-1.4
			c-0.1-0.2-0.1-0.5-0.2-0.7c-0.6,0-1.2,0.1-2,0.2c0.1-0.5,0.2-1,0.2-1.5c-0.2-0.1-0.4-0.3-0.6-0.4c-0.4,0.7-0.8,1.4-1.2,2.1
			c0-2.5-1-3.8-3.2-4.2c0.1-0.3,0.1-0.6,0.2-0.8c2.1,0.5,4.1,0.9,6.6,1.5c-0.5-0.8-0.7-1.1-1.1-1.7c2,0.8,3.7,1.5,5.5,2.2
			c0.2-0.3,0.4-0.5,0.6-0.8c-1.6-2.2-6.1-2.7-4.4-7c1.9-0.4,2.5,1.2,2.9,2.5c0.6,2.1,1.2,3.1,3.3,1.4c0.3-0.2,1,0,2.2,0
			c0.3-0.6,1-1.6,1.4-2.3c-3.5-2.1-6.5-4-9.5-5.8c0.2-0.3,0.3-0.5,0.5-0.8c2,1.1,4.1,2.2,6.1,3.2c0.1-0.2,0.3-0.3,0.4-0.5
			c-0.3-0.6-0.6-1.3-1.1-2.1c0.6,0,1.6,0,1.6,0c0.2,4.3,2.8,1.9,4.6,1.8c0.7-4.1,0.2-4.6-7.1-7.6c0.1-1.6,0.2-3.2,0.3-5.1
			c-2.9,0.5-3.3-1.5-3.7-3.8c-0.6,0.2-1.2,0.4-2.6,0.9c1.9-4.5,0.7-8.2-1.1-12c-1.1,0.1-2.1,0.2-3.2,0.3c-0.9-3-8.3-6.3-10.8-5.3
			c-1.6-0.8-2.7-1.3-3.8-1.9c-1.1-1.2-2.7-2.3-2.3-4.8c0.2-1.2-2.5-2.7-3.8-4.1c-1,0.9-1.7,1.6-2.5,2.3c0.3-1.8,1.5-3.4-0.2-5
			c-0.1-0.1,0.7-1.4,1-1.4c2,0.1,2-0.8,1.6-2.4c-0.4-1.8-0.3-3.7,2.2-4.2c-1.1-1.9-3.9-1.9-5.6-0.2c-1.1-0.8-2.1-1.5-3.4-2.4
			c0.2-0.4,0.4-1,0.6-1.5c1.9,0.5,3.6,1,5.4,1.5l0.4-0.6c-2.2-3.7-4.3-7.3-6.5-11.1c-0.1,0.1-0.6,0.2-1,0.4
			c-0.8-0.5-0.2-3.2,0.7-3.7c0.1-0.1,0.2-0.2,0.3-0.4c-1.3-3.7-2.1-4-5.6-2.9c-0.8,0.3-1.8-0.1-2.8-0.3c1-1.6,1.8-2.8,2.6-4
			c-0.2-0.3-0.3-0.6-0.5-0.9c-1,0.3-1.9,0.5-2.4,0.6c-1.6-0.5-3.1-1-4.7-1.5c-0.3,1.3-0.7,2.5-0.9,3.3h-4.6c0.1,1.1,0.2,2.2,0.3,3.3
			c0.2,0,0.5,0,0.7,0c-0.8,0.9-1.6,1.8-2.6,2.9c-0.6-1-1.2-1.8-2.1-3.2c-1.2,3-2.2,5.6-3.2,8.2c0,0-0.6-0.3-0.7-0.3
			c-1.8,1.1-3.3,2-4,2.4c0.6,2.2,1.1,3.7,1.3,5.3c0.1,0.5-1.5,1.2-1.4,1.6c0.8,2.8-0.8,2.7-2.6,2.5c-0.3,0-0.9,0.1-0.9,0.3
			c-0.2,1.6-1,2.3-2.7,2.6c-1.1,0.2-1.9,1.5-2.9,2.3c-0.4-0.8-0.8-1.6-1.2-2.5c-1.3,0.2-3.4-0.2-4,0.6c-0.8,1-0.5,2.9-0.6,4.4
			c-4.1,0.3-4.5,0.8-2.7,4.3c-1,0.2-2.1,0.1-2.7,0.6c-1.2,1-3.2,2.3-3.1,3.4c0.2,2.6-1.1,3.9-2.8,5.2c1.6,1.7,4,2,5.1,0.3
			c2-3.2,3.8-1.6,5.8-0.3c0.5,0.3,1.1,0.4,1.1,0.4v2.6c-0.2,0.1-0.9,0.4-2,0.8c1,0.7,1.6,1.1,1.7,1.2c0,0.9-0.2,1.6,0,2.2
			c0.4,1,1,1.9,1.6,2.8c-0.1,0.2-0.2,0.5-0.4,0.7c-0.9-0.3-1.8-0.6-2.7-0.8c-0.3-0.1-0.7,0-0.9,0.2c-1.3,0.9-2.6,1.3-4.4,1.1
			c-0.8-0.1-1.8,2-2.7,3.2c-0.6,0.7-1.1,1.5-1.7,2.2c-0.4,0-0.9,0-1.3-0.1c0.6,1.3,1.2,2.7,1.7,3.9c-2.2,0.8-5.4,0.9-6.8,4.3
			c-0.1,0.3-1.7,0-2.8,0c0,0.8-0.1,1.8-0.1,2.8c-2.9,1-3.8,2.4-3.7,5.8c0,1.4,3.3,4.6,5.2,4.7c1.7,0.1,3.4-0.4,5.1-0.7
			c1.3-0.2,2.7-0.4,4.5-0.6c-0.5,1.5,2,3.9-1.9,3.9c-0.8,2.2-2.9,1.2-4.3,1.9c0.3,1.5,0.7,3.2,1.1,4.7c-2.2-1.1-4.4-2.2-7-3.4v5.1
			c-1.7,0.1-3.6,0.5-5.4,0.2c-1.7-0.3-3.4-1.3-5.3-2.2c-1.1,1.5-1,3.3,1,5c-0.6,0.8-1.2,1.6-2.1,2.8c-0.3-0.7-0.5-1.3-0.6-1.7
			C532,240.2,531.1,241.5,529.9,243.1z M632.2,218c1-0.6,2.2-1.5,3-1.1c3,1.3,4.7-1,6.9-1.9c3.8,4.6,3.8,9.5,0.6,10.3
			c-1.4-0.7-2.3-1.2-3.4-1.7c0.8-2.2-1.1-6-2.8-5.2C634.7,219.1,633.6,218.5,632.2,218z M613.7,181.6c-4.5,0.6-0.9,3.3-0.9,5.7
			c-2.1-0.9-3.9-1.6-5.8-2.4c1.1-0.6,1.9-1.1,3.4-2c-1.4-0.8-2.3-1.3-3.1-1.8c0.2-0.2,0.3-0.4,0.5-0.6c0.6,0.3,1.2,0.6,1.7,0.8
			c0.4-0.8,0.9-1.6,1-1.8C611.5,180.3,612.6,180.9,613.7,181.6z M603.7,254.9c3.7-1.7,7.2-4.7,12.3-1.6
			C611.5,253.4,607.9,256.4,603.7,254.9z M602.3,243.5c0.8-0.6,2.4-1.6,2.3-1.8c-1-2.1,1-2.1,1.8-2.7c1.5-1.1,3.1-1.9,4.2-2.6
			c1.4,0.8,2.7,1.6,4.3,2.5c-0.1,0.6-0.2,1.4-0.3,2.3c0.2,0.1,0.5,0.1,0.7,0.2c0.3-1.7,0.7-3.5,1-5.4h5.1c-1.5-1.6-2.6-2.8-3.7-4
			c0.6-0.4,1.3-0.7,1.9-1.1c1.2,3.1,3.8,0.9,5.6,1.6c-1.3,1.3-2.6,2.6-4.3,4.3c1.1,0.3,1.8,0.3,2.1,0.6c0.5,0.6,1,1.4,1,2.1
			c-0.1,0.9-0.7,2.4-1,2.4c-1.6,0-2.7,0.9-4,1.3c-1.5,0.5-3.3,0-4.9,0c-0.5,0-0.9,0.3-1.6,0.6c0.2-1,0.3-1.8,0.4-2.3
			c-1.5-0.2-2.8-0.4-4.5-0.6c-0.2,0.4-0.7,1.3-1.3,2.3c-1.4,0.3-3,0.7-4.7,1.1C602.5,243.9,602.4,243.7,602.3,243.5z M602.2,238.1
			c1.3-0.7,2.5-1.6,3.8-2.1c1.3-0.5,2.6-0.8,4-1.2c0.1,0.2,0.1,0.4,0.2,0.7c-2.5,1.2-4.4,3.6-7.4,3.7
			C602.5,238.8,602.4,238.4,602.2,238.1z M593.6,196.2c-0.5,0.9-1.1,1.9-1.8,3.1c-1.2-1.9-2.4-3.8-3.6-5.7c-0.7,0.6-1.2,1.1-2.1,1.9
			c1.1-2.9,2-4.1,4.4-4.2C593.8,191.2,593.2,194.2,593.6,196.2z M595,216.7c-2.7-1.2-4.9-2.1-7.2-3.1c0.9-1.3,1.8-2.4,2.7-3.7
			c0.9,0.5,1.7,1,2.7,1.5c-0.7,0.6-1.3,1.1-2,1.7c0.9,0.5,1.6,0.9,2.1,1.4C593.8,215,594.2,215.6,595,216.7z M586.8,251.4
			c3.5,0.3,6.9,0.7,10.3,1c0,0.3,0,0.7,0,1c-2.6,1.6-4.9,3.2-8.3,1.6C587.2,254.3,586.4,253.8,586.8,251.4z M587.4,248.3
			c0.2-0.2,0.3-0.4,0.5-0.6c0.3,0.3,0.5,0.6,0.8,0.9c1.4-0.2,2.8-0.3,4.1-0.7c3.5-1.1,4-0.8,3.6,2.8c-2.7-0.2-5.5-0.5-8.2-0.7
			c-1.2,0-3.2,0.3-3.3,0C584.3,247.8,586.7,249.1,587.4,248.3z M581.2,176.1c-0.9,0.8-1.8,2.3-2.7,2.3c-1.3,0-2.5-1-3.8-1.6
			C575.8,174.4,578.6,174.2,581.2,176.1z M572.3,194c0.9-1.2,2-2.8,3.2-4.4c0.6,1.8,0.7,3.3,1.3,3.6c1.5,0.7,3.2,0.8,4.6,1.2
			c-0.3,0.2-1.1,0.6-1.9,1.1v1.4c-1.9-0.2-3.7-0.4-5.5-0.6C573.6,195.7,573.1,195,572.3,194z" />
			<path class="st1" d="M525.9,363.9c-5.8,0-11.7,0-17.5,0c0.3-0.8,0.5-1.6,0.8-2.3c2.1-4.2,2.6-8.6,2.8-13.2c0-0.7-0.4-1.6-1-2
			c-0.9-0.7-2-1-3-1.5c-0.1,0.8-0.1,1.5-0.2,2.1c-0.1,0.7-0.3,1.5-0.6,2.4c-0.6-0.3-0.9-0.4-1-0.5c-1.4,1.3-2.7,2.5-4,3.7
			c-0.2-0.1-0.4-0.3-0.5-0.4c0-0.7,0-1.4,0-2.8c-1,1.5-1.6,2.4-2.2,3.4c-2.1,3.6-2.1,3.6-5.4,2.2c-1.5,1.5-3,2.9-4.4,4.4
			c-0.5-0.4-1.1-0.8-1.1-0.8c-1.6,0.4-3.2,1.3-3.7,0.9c-0.8-0.7-0.9-2.3-1.3-3.7c-1,0.9-1.8,1.7-2.6,2.4c-0.9,0.7-1.8,1.2-3.2,2.1
			c0-1.9,0-3.1,0-4.4c-5.3,4.2-5.9,4.3-7.5,1.6c-0.8,0.5-1.5,1-1.9,1.2c-1.5-0.7-2.6-1.2-3.9-1.7c0.6-1.1,1.2-2.3,2-3.7
			c-2.9,0.9-5.4,1.7-7.9,2.4c-0.1-0.2-0.2-0.4-0.3-0.7c1.1-1.3,2.3-2.5,3.8-4.3c-1.7,0.3-2.9,0.7-4,0.7c-0.8,0-1.6-0.3-2.5-0.4
			c0.7-0.6,1.2-1.4,2-1.8c0.8-0.4,1.8-0.5,2.7-0.7c1.6-0.4,3.1-0.8,4.7-1.3c-3-2.4-5.2,1.3-7.9,1c-0.1-0.8-0.2-1.4-0.2-1.8
			c-1.7,0.3-3.3,0.7-5,1c0-1,0-1.4,0-1.9c-1.7,0.8-3.2,1.5-5.2,2.4c0.5-1.4,0.8-2,1-2.7c-1.1,0.1-1.9,0.1-2.8,0.1
			c-0.1-0.2-0.3-0.4-0.4-0.6c0.7-0.9,1.5-1.9,2.2-2.8c-2.8,0.4-5.6,0.8-8.4,1.3c0-0.3,0-0.6,0-0.9c2.4-1.2,4.7-2.4,7.6-3.9
			c-1.9-0.6-3.2-0.9-4.4-1.3c0-0.3,0.1-0.6,0.1-0.9c2.1-0.2,4.2-0.4,6.4-0.6c-0.3-0.7-0.5-1.2-0.9-2c1.6,0.1,3,0.1,3.7,0.2
			c0.6-0.7,0.9-1.3,1.3-1.3c0.7-0.1,1.6,0,2.3,0.3c4.3,2.1,8.6,0.6,12.8-0.2c1.7-0.3,2.3-1.4,2.1-3.2c-1.2,0.9-2.3,1.6-3.4,2.4
			c-0.2-0.2-0.5-0.3-0.7-0.5c0.6-1.5,1.2-3,1.7-4.3c-2.5,2-5,4.2-7.6,6.3c-0.1-0.1-0.3-0.3-0.4-0.4c0.2-1.5,0.5-3,0.7-4.6
			c-2,1.2-3.7,2.2-5.7,3.4c-0.5-1.9-0.9-3.2-1.2-4.7c-1.8,0.4-3.4,0.8-5.1,1.2c-0.2-0.2-0.3-0.4-0.5-0.6c0.9-1.4,1.9-2.8,3-4.6
			c-1.4,0.4-2.3,0.8-3.2,0.9c-1.9,0.2-3.8,0.4-5.7,0.4c-0.5,0-1-0.8-1.4-1.2c0.4-0.4,0.8-0.9,1.3-1.1c0.8-0.3,1.6-0.3,2.5-0.4
			c1.2-0.2,2.5-0.4,3.7-0.6c0.1-0.2,0.1-0.5,0.2-0.7c-1.1-0.7-2.3-1.4-3.7-2.3c7.2-1.2,14.4,0.4,21.3-1.1c0-0.3,0-0.6,0-1
			c-1.8-0.2-3.7-0.3-5.6-0.5c0.4-0.6,0.7-1.1,1.1-1.9c-1.8,0.5-3.2,1-4.8,1.5c0.2-0.7,0.3-1.1,0.4-1.4c-1.7-0.3-3.4-0.6-5-1
			c-0.2-0.1-0.4-1.4-0.2-1.7c0.9-0.9,2.1-1.5,3.2-2.3c-6.8-0.3-6.8-0.3-7.6-2.1c3.3-0.6,6.5-1.1,10-1.8c1.4-1.8,0.5-3.3-1-4.2
			c-1.6,0.5-3,1.3-4.2,1.2c-1.3-0.1-2.8-1-3.8-1.9c-1-0.8-1.5-2.2-2.3-3.3c-0.3,0-0.7,0-1,0c1-1.2,2-2.5,3.1-3.8
			c-3-0.5-6.1-0.5-8.7-3c3.2-1.6,6.2-0.1,9.3,0.2c-0.8-1.1-1.4-2-2-2.9c0.1-0.2,0.2-0.4,0.3-0.7c2.6,0.4,5.1,0.8,7.7,1.2
			c-0.1-0.7-0.2-1.2-0.4-2.4c2.7,0.5,5.1,1,7.5,1.5c1.4,0.3,3,0.8,4.3,0.5c3.5-0.8,7-1.9,10.3-3.2c1.2-0.5,1.9-2,2.8-3.1
			c-0.1-0.1-0.3-0.2-0.4-0.3c-1.9,0.7-3.7,1.4-6.2,2.3c0.5-1.8,0.8-2.7,1.1-3.8c-0.8,0.5-1.3,0.9-1.4,1c-1.4-0.8-2.6-1.4-3.8-2.2
			c0.1-0.1,0.3-0.6,0.5-1.1c-2.3-0.2-4.9,2.3-6.7-0.7c-0.9,0.2-1.8,0.4-3.2,0.7c0.8-1.2,1.3-1.8,1.9-2.6c-0.9-0.1-1.5-0.1-2-0.4
			c-1.1-0.4-2.1-0.9-3.1-1.4c0.9-0.4,1.8-0.9,2.7-1.3c0.1-0.1,0.2-0.2,0.3-0.2c-4.1-1.1-5.9-2.2-6.8-4c4.9,0.7,9.9,1.4,15.2,2.2
			c-0.7-1-1-1.6-1.4-2.2c0.1-0.2,0.2-0.3,0.3-0.5c0.9,0.3,1.8,0.4,2.6,0.9c1.9,1.2,3.8,1.6,5.9,1.1c4.7-1.2,9.4-2.3,14-3.6
			c0.7-0.2,1.3-0.7,1.7-0.9c-1.8-0.8-3.8-2.6-5-2.2c-2.1,0.8-3.7-0.7-5.6,0c0.1-1,0.2-1.6,0.2-2.4c-1.5,0.8-2.9,1.5-4.6,2.4
			c0-1.8,0-2.9,0-4.3c-1.3,0.8-2.5,2-3.8,2c-1,0-2.2-1.3-3.1-1.9c-1.2,0.3-2.5,0.7-3.7,1c-0.1-0.2-0.1-0.4-0.2-0.6
			c0.5-0.9,1-1.8,1.4-2.7c-0.9,0.2-1.4,0.7-2.1,1.1c-0.6,0.3-1.3,0.6-1.9,0.4c-2.4-0.7-4.7-1.6-7.2-2.5c1.1-0.8,2.4-1.8,3.8-2.9
			c-1.7-1.3-4.6-0.5-5.5-3c10.9-3.1,22.4-1.3,33.3-4.2c-2.1-1.3-5.3-0.1-6.2-3.1c2.8-0.8,5.6-1.6,8.3-2.3c2.8-0.7,5.6-1.2,7.6-3.9
			c-1.7-0.2-3-0.4-4.6-0.5c-0.3,0.6-0.9,1.7-1.7,3.2c-0.5-1.2-0.7-1.9-1.1-2.8c-0.8,0.9-1.5,1.7-2.4,2.6c-0.5-1-0.8-1.8-1-2.1
			c-1.3,1-2.5,2.4-4,2.9c-1.7,0.6-3.6,0-4-2.1c-0.9,0.8-1.7,1.5-2.6,2.3c-1.1-4.8-4.3-1.4-6.1-2.6c-1-0.6-2.1-1.2-3.2-1.9
			c0.3-0.6,0.7-1.3,1.2-2.1c-3.8-0.6-5.3-1.4-6.5-3.5c1.5-0.1,3-0.3,4.4-0.4c1.6-0.1,2.8-0.3,3.3-2.2c0.1-0.5,1.2-1,1.9-1.1
			c6.1-0.5,12.1-1.5,17.2-4.9c-0.4-1.2-0.8-2.4-1.3-3.6c1.2-0.4,2.4-0.7,3.6-1.1c-1.5-1.9-2.8-1.9-4.9-0.1c-2,1.8-3.7,4.4-7,1.7
			c0-0.2-0.1-0.6-0.1-1.2c-0.8-0.1-1.4-0.1-2.2-0.1c-0.2-0.9-0.5-1.7-0.7-2.5c-0.1,0.2-0.2,0.4-0.3,0.7c-1.3-0.5-3.5-0.6-3.8-1.5
			c-0.6-1.5-1.5-2-2.6-2.6c-0.7-0.4-1.3-0.8-2.1-1.2c0.4-0.4,0.5-0.6,0.6-0.6c1.6,0,3.2,0,4.9,0c0.4-2.1,1.7-1.8,3.1-0.8
			c0.3,0.2,0.6,0.4,1,0.6c2.6,1.3,7.4,0.3,8.7-1.7c-1.6-0.7-4.6,1.5-4.4-2.4c-3.5,1-3.9,0.8-4.7-2.2c-0.8-0.1-1.6-0.2-2.4-0.3
			c0.2-0.2,0.3-0.4,0.5-0.6c-1.4-1.5-2.8-3.1-4.2-4.6c2-2.9,5,1.1,7.2-0.9c0-0.3-0.1-0.7-0.1-1.1c0-0.4,0.1-0.8,0.2-1.9
			c5.8,4.4,11.3,2.2,16.8,0.3c-3.2-3.2-6.3-6.4-9.4-9.6c-0.7,0.6-1.3,1.1-1.7,1.6c-2.4-2.7-5.5-3.6-8.8-4.3c0.2-0.8,0.4-1.4,0.5-1.7
			c-2.1-1.1-3.9-2-5.8-3c0.1-0.3,0.2-0.6,0.3-0.9c2.4,0.3,4.9,0.6,7.5,0.9c-0.2-1.2-0.3-2.1-0.6-3.8c2.5,1.5,4.5,2.7,6.4,3.9
			c1.9-2.6-0.2-4-1.4-5.7c2.9-0.7,5.6-2,8.4,0.6c0.3-1,0.6-2.4,0.2-2.6c-1.1-0.7-2.5-0.9-3.8-1.4c-0.1,0.2-0.2,0.4-0.3,0.6
			c-0.1-0.7-0.3-1.4-0.4-2c-0.9-0.1-1.7-0.1-2.5-0.2c0.4-3.1-2.4-1.1-3.3-2.3c0.3-0.6,0.6-1.1,0.6-1.3c-0.7-0.8-1.3-1.3-1.8-1.8
			c0.8-0.6,1.5-1.4,2.4-1.8c0.5-0.2,1.3,0.3,2,0.4c1.7,0.3,3.3,0.5,3.2-2.1c2.4,0.7,4.7,1.3,7,1.9c-0.4-1.2-0.7-2.1-1-2.9
			c0.2-0.1,0.3-0.3,0.5-0.4c2.1,1,4.3,2,6.4,2.9c0.7,0.3,1.8,0.7,2.3,0.4c3.9-2.3,7.7-4.7,11.4-7.3c0.8-0.6,1.1-2,1.6-3
			c-0.2-0.1-0.4-0.2-0.6-0.2c-2,2.9-3.7,4-6,4.4c-2.6,0.5-5.5,0.4-7.3,3c-0.1,0.2-0.5,0.2-1,0.4c-0.1-0.7-0.2-1.4-0.4-2.1
			c-0.4,0.2-0.7,0.5-0.9,0.5c-1,0.1-2,0.1-2.9,0.2c0.5-0.8,0.9-1.7,1.6-2.4c0.9-0.9,1.9-1.6,2.9-2.4c-2.8,1-5.3,2.3-7.9,3.4
			c-0.3,0.1-1.1-0.2-1.4-0.6c-0.6-0.8-1-1.8-1.6-3c1-0.7,2.1-1.5,3.2-2.3c-0.1-0.2-0.3-0.4-0.4-0.6c-0.9,0.6-1.8,1.2-2.7,1.7
			c-1.1,0.7-2.2,1.4-3.4,1.9c-0.5,0.2-1.5-0.2-1.7-0.6c-0.2-0.3,0.2-1.2,0.6-1.7c0.4-0.6,1-0.9,1.2-1.1c-2.6-0.6-5.3-1.1-7.9-1.8
			c-0.5-0.1-0.8-1-1.1-1.5c0.5-0.3,1-0.7,1.5-0.8c1.9-0.3,3.9-0.6,5.5-0.8c0.2-1.2,0.2-2.5,0.6-2.7c0.7-0.3,1.7,0,2.6,0.3
			c0.6,0.2,1.1,0.9,1.7,1.2c2.7,1.4,5.5,2.7,8.2,4c0.1-0.2,0.2-0.4,0.3-0.6c-1-0.8-1.9-1.6-3-2.6c1.7-1.5,3.1-0.6,4.2,0.2
			c4.3,3.2,9.1,2.8,13.9,2.2c1.7-0.2,2.1-1,1.4-2.5c-0.3-0.6-0.6-1.3-1.2-2.4c-0.7,2.8-2.7,2.9-4.4,3.1c-0.2,0-0.6-1.7-0.8-2.3
			c-1.3,0.2-2.6,0.3-4,0.5c-0.1-0.3-0.1-0.5-0.2-0.8c0.8-0.9,1.6-1.7,2.4-2.6c-1-0.2-1.8,0.2-2.6,0.4c-0.8,0.2-1.9,0.7-2.2,0.4
			c-1.6-1.6-3.2-1.3-5.1-0.9c-0.7,0.1-1.7-1-2.5-1.5c0.6-0.5,1-1.3,1.7-1.5c1.1-0.5,2.4-0.6,3.8-1c-2.3-1.6-2.6-4.7-5.9-4.6
			c-1,0-0.7-1.3,0.2-1.8c0.7-0.4,1.6-0.6,2.5-0.9c-1.9-1.4-4.1-2.3-3.1-5.7c2.5,1.4,4.8,2.7,7.1,4.1c1.5,0.9,3,2.2,4.5-0.1
			c0.2-0.4,1-0.3,1.6-0.5c-1.1-1.9-3.8-2.7-3.1-5.8c1.7,0.8,3.2,1.4,5,2.3c-0.1-1.6-0.2-2.8-0.3-4c-0.1,0.2-0.3,0.4-0.4,0.6
			c-1.3-0.1-3.1,0.2-3.6-0.5c-1.5-1.8,1.2-1.9,1.8-3.2c-1.2-1.7-2.6-3.5-3.7-5.4c-0.3-0.6-0.1-1.5-0.1-2.3c0.7,0.1,1.5,0.1,2.1,0.4
			c1.1,0.5,2.1,1.3,2.8,1.7c0.9-1.2,1.4-2,2-2.7c0.6,0.8,1.2,1.6,1.7,2.5c0.2,0.4,0.1,0.9,0.3,1.3c0.6,1.8,1.2,3.6,1.8,5.4
			c0.7-0.5,0.9-0.9,0.9-1.3c0.3-3.5-0.4-6.6-2.9-9.3c-1.3-1.5-3.1-3-2.2-6c2,1.8,3.7,3.4,5.4,5c0.2-0.1,0.4-0.2,0.6-0.3
			c0-3.8,0-7.6,0-11.6c4.4,2.3,1.8,6.8,3.7,10.2c1.4-2.2,2.4-4.6,5.7-4c-1.9,5.3-8.1,8.4-6.1,15.2c1.6-2.6,3.3-5.1,4.9-7.7
			c0.2,0.1,0.4,0.2,0.6,0.3c0.1,0.7,0.2,1.4,0.3,1.9c2.3-1,4.6-1.9,6.8-2.8c0.2,0.3,0.3,0.5,0.4,0.8c-1.4,1.2-2.8,2.5-4.1,3.6
			c1.6,0.9,3.1,1.8,4.9,2.8c-3.3,2-6.6-0.1-9.6,1c2.8,0.8,5.2,2.1,6.6,5c-0.6,0.2-1,0.6-1.4,0.6c-1.8-0.4-3.4,0-4.7,1.4
			c-0.1,0.1-1.1-0.3-1.4-0.7c-0.3-0.4-0.1-1.1-0.2-1.7c-3.1,0.4-4.1,2.1-3.6,5c0.4,2.2,0.6,4.4,0.9,6.5c0.1,0.7,0.2,1.5,0.3,2.7
			c3.6-2.2,6.6-4.2,8.2-7.8c0.8-1.9,1.9-3.8,3-5.9c1.2,1.1,1.9,1.7,2.7,2.4c1.2-1.1,2.4-2.2,3.6-3.2c0.4-0.3,1.2-0.3,1.8-0.4
			c0,0.6,0.1,1.3-0.1,1.9c-0.6,1.2-1.4,2.3-2.1,3.4c1.8,0.3,3.3,0.5,5.1,0.8c-2,1.9-3.6,3.4-5.2,5c0.1,0.2,0.2,0.5,0.4,0.7
			c1.2,0.3,2.5,0.5,3.6,1c0.5,0.2,0.9,0.8,1,1.3c0.1,0.2-0.6,0.7-1,0.9c-1.4,1-2.9,2-4.5,3c-3.3-1.4-3.5-1.3-3.7,1.7
			c2.1,0.4,4.3,0.9,6.4,1.3c0,0.3,0,0.5,0.1,0.8c-1.4,0.7-2.8,1.4-4.3,2.2c0.1,0.3,0.2,0.9,0.4,1.4c-1,0.5-1.9,1-2.8,1.5
			c0.1,0.3,0.2,0.5,0.3,0.8c1.2-0.5,2.5-1.2,3.7-1.5c1.2-0.2,2.5,0,3.8,0c-0.1,0.8-0.2,1.6-0.4,2.8c3.9,0.8,7.6,2.2,10.5,5.3
			c-2.5,2.5-6.8,3.3-9.3,1.5c-0.4,0.7-0.9,1.4-1.1,2.1c-0.4,1.9-1.3,2-2.5,0.9c-1.4-1.3-2.7-2.8-4.1-4.3c-0.5,0.3-1.1,0.8-1.7,1.2
			c0.3,0.9,0.5,1.7,0.8,2.5c-2.8,0.5-3.6,0-5.7-3.6c-0.2,0.5-0.2,1-0.4,1.3c-0.4,0.7-0.9,1.4-1.3,2c-0.6-0.5-1.6-0.8-1.9-1.5
			c-0.7-1.3-1.1-2.8-1.5-4.2c-0.2-0.5-0.2-1.1-0.3-1.7c-0.3,0.1-0.6,0.2-0.9,0.2c0.6,1.9,1,3.9,1.7,5.8c1.6,4.2,5.8,1.9,8.9,3.3
			c-0.6,1-1.1,1.8-1.7,2.7c2.1,1.1,4.2,2,6.5,0.8c2-1,3.9-2.2,5.9-3.4c0.1,0.9,0.3,1.5,0.4,2.2c1.2-0.2,2.2-0.4,3-0.6
			c0.8,1.4,1.4,2.5,2.1,3.8c1.8-0.7,3.7-1.4,5.6-2c0.7-0.2,2-0.3,2.1,0c0.8,2,2.5,1.3,3.9,1.5c1,0.2,2,0.5,3,0.8
			c-1.2,3.3-3.9,2-6,2.6c0.5,0.5,0.9,1,1.3,1.5c-1.5,0.5-2.9,1-4.4,1.6c0.6,0.7,1,1.2,1.4,1.7c-0.1,0.2-0.2,0.5-0.4,0.7
			c-2.3-1-4.5-1.9-7.4-3.1c1.7,1.8,2.9,3.1,4.2,4.4c-0.2,0.3-0.4,0.6-0.5,0.8c-1.6-0.7-3.1-1.5-4.7-2.2c-0.7-0.3-1.4-0.7-2.2-1.1
			c-0.2,0.8-0.6,1.7-0.6,2.5c-0.1,1.9-0.7,2.4-2.4,1.5c-1.2-0.6-2.2-1.5-3.2-2.3c-0.2,0.6-0.5,1.6-0.6,1.6c-0.8-0.1-1.6-0.4-2.3-0.7
			c-1.1-0.5-2.2-1.1-3.2-1.7c-0.2,0.3-0.3,0.5-0.5,0.8c0.5,0.7,0.9,1.7,1.6,2.1c2.9,1.5,5.9,2.8,8.8,4.3c5.2,2.6,8.4-1.8,12.5-3.5
			c-0.4,0.7-0.8,1.4-1,1.8c0.6,0.9,1.1,1.5,1.6,2.3c1.8-1,3.7-2,5.8-3.2c-0.3,1.1-0.5,1.7-0.8,2.6c2.3,0,4.4,0,6.4,0
			c0.1,0.2,0.1,0.4,0.2,0.6c-1.9,1-3.8,1.9-5.8,2.9c0.2,0.6,0.3,1.3,0.5,1.9c-2.6,1.7-4-1.1-6.5-1.5c0.7,1.2,1.1,2,1.5,2.8
			c-0.4,0.2-0.8,0.5-1.2,0.7c0.2,0.7,0.4,1.4,0.7,2.3c-1.5-0.3-2.6-0.5-3.8-0.8c0.1,1.9-1.4,4.6-2.8,4.6c-1.7,0-3.7-0.3-4.2-2.4
			c-2.3,3.4-3.9-0.2-5.9-0.4c-0.2,0.8-0.3,1.6-0.6,2.6c-2.7-1.6-5.5-2.6-8.8-2c3.7,2.8,7.7,4.6,11.9,6.1c4.5,1.6,8.7,1,12.7-1.6
			c0.2,0.2,0.4,0.4,0.6,0.6c-0.4,1.3-0.7,2.6-1.3,4.3c3.4-0.8,6.7-1.6,10.1-2.4c-0.1,0.8-0.2,1.4-0.3,1.7c2.7,0.8,5.2,1.6,8.2,2.5
			c-2.6,1.8-4.9,3.4-7.2,5c0.4,0.3,0.7,0.7,1.3,1.2c-1.2,0.6-2.2,1.1-3.2,1.6c0.5,0.8,0.8,1.5,1.5,2.7c-3.4,0-6.4,0-9.5,0
			c-0.1,0.8-0.1,1.4-0.2,2.4c-1.7-0.8-3.2-1.5-4.8-2.3c-0.2,0.8-0.5,1.5-0.7,2.4c-3-1.3-6.5,0.3-9-2.9c1.1,5.9,5.7,6.3,9.9,7.2
			c4.6,1,8.5-0.8,12-3.7c0.1,0.2,0.2,0.4,0.3,0.6c-0.3,0.7-0.6,1.4-1.1,2.4c1.4-0.4,2.5-0.6,4.2-1.1c-1.3,1.4-2.2,2.3-3.5,3.7
			c3-0.6,5.4-1,7.1-1.3c2.7,1.4,5,2.5,7.8,4c-1.6,1.1-2.7,1.8-3.8,2.5c1,1.3-0.3,1.4-1.2,1.4c-2.2,0.2-3.9,1-3.6,3.9
			c-2.5-0.2-4.9-0.4-7.2-0.5c-0.2,0.3-0.3,0.5-0.5,0.8c1.4,0.9,2.7,1.8,4.4,3c-7.6,2.5-7.6,2.5-10.9,0.8c-0.6,0.9-1.2,1.8-2,2.9
			c7.4,2.2,15,1.9,22.6,0.6c0.1,0.2,0.3,0.3,0.4,0.5c-0.8,0.7-1.5,1.4-2.5,2.3c0.2,0.1,0.8,0.3,1.3,0.5c-0.1,0.2-0.2,0.5-0.3,0.7
			c-1.4,0.2-2.7,0.3-4.2,0.5c1,1.2,1.9,2.3,3.2,3.8c-2.7-0.3-4.7-0.6-6.8-0.9c1.2,3.1,3.4,4.3,6.6,3.7c3.3-0.7,6.5-1.6,9.8-2.4
			c0.8-0.2,1.7-0.2,3.1-0.4c-1.3,1.6-2.3,2.7-3.2,3.9c0.5,0.7,1,1.3,1.5,2c-1.1,1.5-2.2,3-3.4,4.6c-0.8-0.2-1.7-0.4-2.7-0.7
			c0.4,0.7,0.6,1.3,1.2,2.5c-2.4,0-4.8,0.7-6.2-0.1c-2.9-2-5,0.6-7.5,0.4c6.2,3.7,12.6,5.8,19.7,2.3c0.1,1.2,0.2,2,0.3,3
			c1.7-0.4,3.3-0.9,4.8-1.2c1.5-0.3,3-0.6,4.7-0.9c-0.2,3.2-2.7,3.7-4.2,4.9c-1.5,1.2-3.4,1.8-5.1,2.7c0.8,0.4,1.8,1,3.5,1.9
			c-2.4,0.2-4.1,0.3-5.8,0.5c-0.1,0.2-0.2,0.4-0.4,0.6c0.8,0.5,1.7,0.9,2.5,1.4c-0.1,0.3-0.2,0.6-0.4,0.9c-3.9-1.2-7.7-2.3-11.4,0.8
			c4.9,2.9,10.6,2.1,16,3.1c-0.5,0.7-0.8,1.1-1.4,2c5.6-0.2,10.6-0.5,15.7-0.7c0.1,0.1,0.1,0.3,0.2,0.4c-2.3,0.9-4.5,1.9-6.9,2.9
			c1.3,1.6,2.5,3.2,3.9,4.8c-0.4,0.1-1.1,0.3-1.7,0.4c-3.1,0.9-6.4,1.5-9.3,3c-1.6,0.8-2.7,1-4.2,0.5c-0.1,0-0.3,0.1-0.4,0.1
			c0.4,0.5,0.8,1,1.2,1.7c-2.7,1.2-4.9,4-7.9,1.1c-0.4,0.7-0.6,1.1-1,1.8c-1-0.7-1.8-1.3-2.4-1.7c-0.5,0.4-0.9,1.1-1.3,1
			c-3.7-0.4-7.4-0.5-10.9-1.5c-2.4-0.7-4.4-0.6-7.3,0.1c4.7,3.9,10,4.7,15,6.5c5.2,1.9,10.4,1.7,16-0.3c-0.4,1.5-0.6,2.3-0.8,3.3
			c4.5,0,8.9,0,13.3,0c0.1,0.1,0.1,0.3,0.2,0.4c-0.7,0.5-1.4,1.1-2.2,1.6c2,0.9,4.4-0.1,5.9,2.1c-3.6,1.9-7.1,0.5-11.1,0.2
			c2.6,1.3,4.7,2.4,6.8,3.5c-0.1,0.3-0.1,0.6-0.2,1c-5.7-0.7-11.4-0.6-16.8,2c1.1,1.6,2.1,3,3,4.4c-0.2,0.2-0.4,0.4-0.6,0.6
			c-1.7-1.3-3.5-2.6-5.4-4.1c-1.1,3-3.1,2.1-5.2,1.1c0.1,1.3,0.1,2.4,0.2,3.6c-2.5-1.4-4.7-2.5-7.2-3.9c0,1.5,0,2.6,0,3.9
			c-1.2-1-2.3-1.9-3.4-2.8c-2.5,2.3-3.8-0.6-5.7-1.2c0.5,0.8,1,1.5,1.7,1.9c1.5,0.9,3,1.9,4.6,2.6c4.3,2,8.7,3.9,13.1,5.6
			c4.1,1.6,8.2,1.3,12.2-0.9c1.9-1,4-1.7,6.1-2.6c0.1,0.2,0.3,0.5,0.4,0.7c-1,1.1-2,2.3-3.2,3.6c3.7-0.2,6.9-2.1,10.4-1.4
			c0.1,0.3,0.2,0.6,0.2,0.9c-3.5,1.2-7.1,2.4-10.6,3.6c0,0.1,0,0.3,0.1,0.4c2.9,0.5,5.9,1,8.8,1.5c0,0.2,0,0.5,0,0.7
			c-1.8,0.1-3.6,0.2-5.4,0.4c0,0.2,0,0.3-0.1,0.5c1.5,0.7,3.1,1.4,4.6,2.1c-0.1,0.2-0.1,0.3-0.2,0.5c-2.2,0-4.3,0-6.6,0
			c0.6,0.7,1.1,1.2,1.8,2c-1.4,0.4-2.4,0.6-3.6,0.9c1.2,0.6,2.2,1,3.2,1.5c0,0.2,0,0.5-0.1,0.7c-1.9,0.2-3.8,0.3-5.6,0.5
			c-0.1,0.1-0.2,0.3-0.3,0.4c0.7,0.4,1.5,0.7,2.2,1.1c-0.2,0.3-0.3,0.5-0.5,0.8c-1.6,0.1-3.3,0.2-5,0.3c0.3,0.6,0.5,1.1,0.8,2
			c-1.6-0.2-2.8-0.3-4.1-0.5c-0.1,0.3-0.1,0.5-0.2,0.8c6.1,3.2,13,3.2,19.6,4.4c0,0.2,0,0.5,0.1,0.7c-2.1,0.5-4.3,1.1-6.4,1.6
			c0.7,0.6,1.3,1.2,1.8,1.7c-0.1,0.3-0.3,0.5-0.4,0.8c-2.6-1.1-5.2-2.3-7.9-3.4c-0.1,0.2-0.2,0.4-0.3,0.6c0.9,0.9,1.7,1.8,2.6,2.7
			c-0.8,0.3-1.7,0.6-2.7,1c0.6,1,1.1,1.8,1.5,2.7c-0.1,0.2-0.3,0.4-0.4,0.6c-2-1-4-1.9-6-2.9c-1.2,3-2,3.2-4.5,1.1
			c-1.2-1-2.4-2.1-4.2-3.6c0.6,1.8,1,2.9,1.3,4.1c0.5,2.3-1.9,2.8-4.4,0.9c-0.4,0.8-0.9,1.6-1.4,2.5c-0.5-0.6-0.8-1.3-1.4-1.6
			c-0.5-0.3-1.5-0.7-1.9-0.4c-1.5,1-2.2,0.1-2.7-1c-0.6-1.6-1.7-1.9-3.2-1.6c0,0.4,0.1,0.8,0.1,1.6c-1.8-0.6-3.3-1.2-4.5-1.6
			c-0.2,1.7-0.3,3.1-0.4,4.3c-3.6-0.2-6.9-0.4-10.2-0.6c-0.1,0.4-0.2,1-0.2,1.3c-1.8-0.4-3.4-1-5.1-1.2c-3-0.4-5.4-1.5-6.3-4.6
			c0-0.1-0.2-0.1-0.4-0.2c-0.1,0.5-0.2,1-0.3,1.7c-1.3-1.5-2.5-2.8-4-4.6c-0.2,1.4-0.4,2.1-0.3,2.8c0.4,2.6,1,5.3,1.5,7.9
			C525.7,361.9,525.8,362.9,525.9,363.9z M459.2,303.9c3.8,1.9,13.7,1.3,15.8-1.2c-1.1,0.4-2.3,0.8-3.2,1.2
			c-1.4-0.9-2.8-1.8-4.4-2.8c-0.8,1-1.5,1.9-2.6,3.3c-0.9-1.3-1.8-2.5-2.7-3.9C460.8,302,460,302.9,459.2,303.9z M499.2,167.9
			c-3.1,4.5-5.9,1.7-8.6-0.1c-0.5,2.7,0.4,4.3,2.4,4.2c2.9-0.2,5.7-0.7,8.6-1.2c0.7-0.1,1.3-0.9,2-1.4
			C499.9,169.8,499.9,169.8,499.2,167.9z M525.6,130.4c-0.2-0.4-0.3-0.7-0.5-1.1c-0.5,0.2-1.2,0.4-1.6,0.8c-1.7,1.5-3,3.4-5.8,2.9
			c-1.8-0.3-2.3,1-1.1,3C519.6,134.1,522.6,132.2,525.6,130.4z M510.1,129.3c0.1-3.1-2.5-5.5-6-5C506,125.9,508,127.6,510.1,129.3z
			 M506.6,113.4c1.2,2.6,2.4,5.2,3.8,8.4C511.2,117.6,509.4,115.2,506.6,113.4z M517.5,161.8c0.3,0,0.7-0.1,1-0.1
			c-0.1-2-0.2-4.1-0.3-6.1c-0.2,0-0.5,0-0.7,0C517.5,157.6,517.5,159.7,517.5,161.8z M523.2,140.8c-2.3-0.2-4-0.3-5.8-0.4
			C519,142.1,520.6,142.5,523.2,140.8z" />
			<path class="st0" d="M516.6,294.8c0.6-2.6,1.1-4.7,1.6-6.7c-2.7,0.3-5.5,0.6-8.6,0.9c-0.1,0.3-0.3,1.8-0.6,1.8
			c-5.9,0.5-11.9,1.3-17.8,1c-2.9-0.2-2.3-2.6,0-4.4c0.8,1.3,1.4,2.4,2.2,3.8c1.7-2.4,3.3-4.5,4.8-6.6c0.9,1.1,1.9,2.4,2.3,2.9
			c2.4-2.3,4.5-4.2,6.5-6.2c1.7-1.8,3.3-3.7,5-5.5c-0.4-0.4-0.7-0.8-1.1-1.3c-6.1,6.8-14.4,2.9-21.5,4.8c-1.2,0.3-2.7-0.8-3.8-1.1
			c1.5-3.1,2.8-5.8,4.2-8.7c0.9,4.2,3.5,4.8,6.8,3.2c-0.2-1.8-0.5-3.7-0.7-5.3c3.2-0.3,5.7-0.5,8.5-0.8c0.8-1,1.9-2.2,3.3-3.9
			c-2.3-1.2-4.4-2.3-6.6-3.4c0-0.4,0-0.8,0-1.2c1.7-0.3,3.6-0.3,5.1-1c1.9-0.9,3.5-2.4,5.3-3.6c-0.3-0.1-0.5-0.1-0.8-0.2
			c0.9-2.7,1.8-5.5,2.7-8c-3.4-3-7.3,6-10.7-0.4c1.4-0.9,2.4-1.5,4-2.4c-1.9-0.6-3-1-4.7-1.6c1.9-3.2,3.8-6.2,5.9-9.8
			c-2.3,0.8-3.9,1.4-5.5,2c-0.3-0.3-0.5-0.5-0.8-0.8c0.8-1,1.6-2,2.2-2.9c-0.3-3.1-0.6-6.2-0.9-9.4c-0.8,1.9-5,1.8-2.9,5
			c-0.8,0.3-1.6,1-2.3,0.9c-1.1-0.2-2.2-0.9-3.3-1.4c2.6-4.2-0.6-10-7.3-12.8c-0.6,3.7-1.1,7.2-1.7,10.9c-1.5-0.5-3.7-1.2-5.9-2
			c0.1-0.3,0.1-0.5,0.2-0.8c1-0.1,2-0.1,3.6-0.2c-3.6-3.4,1.1-1.8,1.2-3.5c-1-0.6-2.2-1.2-3.3-1.8c0.3-0.1,0.6-0.3,0.9-0.4
			c-0.5-1.1-1-2.3-1.4-3.2c2.1-0.9,4.4-1.9,5.7-2.4c-0.5-3.4-0.8-5.9-1.3-8.4c-0.2-1.1-0.9-2.1-1.3-3.2c-0.4,0.1-0.8,0.1-1.2,0.2
			c0.4-1.2,0.7-2.5,1.1-3.7c-0.3-0.3-0.6-0.6-0.9-0.8c-2.3,3.8-5.1,6.2-10.8,4.5c6.3-4.1,2.5-9.1,2.8-13.5c0.1-1-0.3-2-0.6-3.2
			c-2.5,3.4-4.8,6.4-7,9.4c-0.7-2-1.1-4.3-0.3-6c1.1-2.4,3.1-4.3,5.5-7.4c-3.1,0.9-4.8,1.4-6.3,1.8c1.7-2.7,3.4-5.3,5-7.8
			c-0.2-0.2-0.5-0.4-0.7-0.6c-0.9,0.5-1.7,0.9-3.8,2c1.3-2.7,2-4.3,2.8-5.9c-0.8-0.9-1.7-1.9-2.1-2.4c-1.2,0.8-2.3,1.5-3.4,2.2
			c0.2,0.1,0.4,0.1,0.7,0.2c-0.7,1.4-1.4,2.8-2.1,4.3c-1-0.5-2-1-3.2-1.6c-0.4,0.3-1.1,0.9-1.9,1.5c-0.3-0.2-0.5-0.5-0.8-0.7
			c0.9-1.1,1.9-2.2,2.6-3.4c0.6-1,1-2.2,1.5-3.3c-3.3-1.1-1.5-3.7-1.6-5.8c-0.1-0.9-0.5-2.6-0.8-2.6c-2.6-0.2-1.7-1.8-1.6-3.2
			c0.1-1.3,0-2.6,0-4.2c-1.5,0.2-2.6,0.3-4.4,0.5c0.8-2,1.5-3.6,2-5.2c0.3-0.9,0.9-2.3,0.5-2.8c-0.7-0.8-2-1-3.6-1.7
			c-0.7-2.3-1.9-5-3.7-7.8c-3-4.6-3.8-10.6-5.5-16.1c-0.9-2.9-2.6-3.7-4.7-1.6c-1.5,1.5-2.7,3.4-3.8,5.3c-2.6,4.6-5.4,8.9-10.4,11.7
			c0.9,1,1.8,2,2.4,2.6c-1.9,3.8,0.7,6.1,2.7,8.7c-1.5,0.1-2.6,0.1-3.7,0.2c-0.5-1.8-1-3.6-1.6-5.3l-1.3,0.4
			c-0.3,4.1-0.7,8.3-1.1,13.1c-0.3,0.5-1.2,1.8-2.3,3.5c-1.1-2.4-2-4.7-3-6.9c-0.3,0.1-0.6,0.1-1,0.2c-0.2,3.2-0.4,6.4-0.7,10.3
			c0.9,1.5,2.4,3.9,3.9,6.2c-0.3,0.2-0.6,0.4-0.9,0.6c-2.5-0.8-5.1-1.6-8.2-2.6c0.4,2.5,0.7,4.5,1.2,7c-1.9-1-3.3-1.7-4.7-2.4
			c3.2,3.8,2.4,10.8,9.1,11.6c0,0.2-0.1,0.5-0.1,1.1c-2.4-0.3-4.9-0.5-7.4-0.8c-0.1,0.3-0.2,0.6-0.3,0.9c1.2,0.7,2.3,1.4,3.5,2.1
			c-0.8,0.4-1.6,0.9-2.4,1.3c0.1,0.2,0.1,0.5,0.2,0.7h7.6c-3.1,3.7-3.1,3.7-7.4,1.5c-1.1,1.6-2.2,3.3-3.5,5.2
			c-0.7-2-1.3-3.5-1.9-5.1c-6.8,3.6-5.8,8.1-1.5,12.8c-2.1,0.5-3.6,0.8-5,1.2c0,0.3,0,0.7-0.1,1c2.5,1.3,5.1,2.5,8.5,4.2
			c-1.1,1.3-2.2,3.8-3.8,4.2c-1.7,0.5-4-1.1-6.8-2c-0.5,0.4-1.9,1.4-3.5,2.5c-0.8-2.1-1.5-3.8-2.5-6.1c-1.9,2.3-3.5,4.3-5.5,6.6
			c1.1,0.8,2.4,1.8,4.4,3.4c-2.6,0.2-4.4,0.4-6.1,0.5c-0.7,1.5-1.4,3-2.4,5.1c-1.4-3.9-2.6-7-3.9-10.5c-1,5-1.9,9.6-2.8,14.2
			c1.3,1.1,3,2.5,4.6,3.8c-0.3,0.3-0.6,0.6-0.9,1c-1.7,0.1-3.3,0.2-5.9,0.3c1.8,1.7,3,2.8,4.2,3.9c1.3-0.6,2.5-1.2,3.8-1.8
			c0.1,0.2,0.3,0.5,0.4,0.7c-1.2,1-2.5,1.9-3.9,3.1c0.5,0.8,1.1,1.7,1.7,2.6c-1.5,0.2-2.7,0.3-3.9,0.4c2.7,3.4,5.3,6.6,8.5,10.5
			c-0.5,2.1-2.4,1.6-4.9,0.6c-1.1-0.4-2.5,0-3.8,0c0.9,2.1-2.8,5.6,1.9,6.8c0.8,0.2,1.3,1.4,2,2.1c-2.6,0.4-5.1-0.9-7.1-0.4
			c-2,0.5-3.6,2.8-5.8,4.7c-0.2-1.2-0.4-2.7-0.6-3.9c-2.2-1.3-4.4-2.6-7.1-4.1c0.3,1.3,0.8,2.5,0.6,3.5c-0.2,1-1.2,1.8-1.8,2.6
			c0.8,0.7,1.5,1.5,2.8,2.6c-1.8,0.3-2.8,0.5-3.7,0.7c-0.1,0.3-0.2,0.6-0.3,1c2.8,1.5,5.6,3,8.4,4.5c-0.1,0.1-0.5,0.7-0.9,1.2
			c-4.7,5-4.5,5.9,1.5,9.7c0.5,0.3,1,1.3,0.8,1.7c-0.7,1.7-1.7,3.4-3,5.9c3.2,0.3,6,0.6,9.2,0.9c-0.5,1.2-0.9,2.3-1.4,3.7
			c1.3,0.3,2.5,0.6,4.1,1c-0.7,1.6-1.4,3.2-1.9,4.4c1.7,2.4,3.2,4.6,5.1,7.3c3.3-0.6,7-1.3,10.1-1.9c-1.6,3.1-2.8,5.7-4.1,8.2
			c2.2,0.4,4.3,0.9,6.7,1.4v6c1.1-0.9,1.6-1.3,2.2-1.8c0.1,1,0.1,1.9,0.2,2.7c3.9,0.4,7.5,0.8,11.4,1.2c0.2,1.1,0.3,2.2,0.5,3.5
			c0.9-0.3,1.5-0.5,2.1-0.7c0.1,1,0.2,1.9,0.3,3.2c3.5-3.2,8.1-4.6,8.5-9.8c0-0.5,1.4-0.8,2.5-1.4c-0.6,2-1,3.4-1.4,4.8l1,1
			c1.4-1.1,2.9-2.2,4.5-3.3c0.9,3.2,1.9,6.6,2.9,10c4.2-1.6,8.2-3.1,12.7-4.9c0.7,2.8,1.8,5.2,1.8,7.5c-0.2,6.8-0.5,13.6-1.3,20.4
			c-0.2,1.4-0.4,2.5-0.8,3.5c3.6-0.6,7.3-1,10.9-1c-0.3-0.7-0.5-1.5-0.5-2.5c-0.2-4.4-0.8-8.7-0.7-13.1c0.1-4.3,0.8-8.7,1.6-12.9
			c0.5-2.5,2.2-4.3,5.2-4.3c2.9,0,6,1.2,8.7-1.3c0.3-0.3,1.5,0.4,2.4,0.7c0.5,0.2,1.3,0.6,1.5,0.4c2.6-2.4,3.5,0,4.4,1.5
			c1.5-0.4,3.3-1.5,4.1-1c6.5,4.2,11.6-0.4,16.7-2.9c2.4-1.2,3.7-1.1,5.8,0c2,1.1,4.3,1.5,6.9,2.4c-0.6-3-0.9-5.1-1.3-7
			c2.8-0.7,5.4-1.3,8.3-2.1c-0.3-2.7-0.6-5.1-0.9-7.6c3.7-0.3,6.9-0.6,10.1-0.9c0-0.2,0-0.5,0-0.7c-1.9-0.8-3.8-1.5-5.7-2.3
			c0.1-0.2,0.1-0.5,0.2-0.7H516.6z M370.5,260.7c-1.1,0.2-2.5-1.7-3.8-2.6c1.6-0.9,3.3-1.9,5.3-3c1.9,1.1,3.3,1.9,4.7,2.7
			C374.7,258.8,372.7,260.3,370.5,260.7z" />
			<path class="st0" d="M735.9,177.1c1.5,1,0.8,5.2,5.1,3.6c0.8-0.3,2,1,3,0.9c2.7-0.2,5.4-0.7,7.9-1.1c-0.1-0.8-0.2-1.4-0.4-2.3
			c1,0.5,2.1,1.2,2.1,1.1c1.2-1.8,4.9-0.6,4.6-4.2c2,0.9,3.7,1.6,5.5,2.4c0.7-0.4,1.6-2,3-0.5c-0.4,1.4-0.7,2.5-1,3.7
			c0.2,0.1,0.4,0.3,0.7,0.4c1.6-0.8,3.2-1.7,5-2.7c0.3,0.4,0.7,1,1.2,1.5c-5,4.2-11.2,4.3-17,5.6c0.1,0.9,0.2,1.9,0.3,2.9
			c-0.3,0-0.5,0.1-0.8,0.1c-0.2-0.7-0.4-1.4-0.7-2.2c-0.7,0.8-1.5,1.6-1.7,1.8c-2.6-0.3-4.7-0.5-6.7-0.7c-0.6,0.6-1.4,1.2-2.1,1.9
			c-0.5,0.5-0.8,1.1-1.3,1.7c0.7,0.3,1.5,0.7,2.2,0.9c0.3,0.1,0.6-0.2,1.1-0.3c0.3,2.1,1.3,2.7,3.2,2.1c1.8-0.5,3.7-0.8,5.5-0.9
			c0.6,0,1.3,0.9,2.1,1.6c2.7-0.7,2.7-0.7,3,1.2c-1.7,1-3.3,2-4.8,2.9c0.1,0.2,0.2,0.5,0.3,0.7c-0.6-0.3-1.1-0.6-1.7-1
			c-0.1,0.3-0.3,0.7-0.2,0.8c0.7,0.7,1.5,2,2.3,2c1.6,0.1,3.3-0.3,4.8-0.9c2.2-0.9,3.8-0.3,5.2,1.6c1.8-0.9,3.5-1.7,5.2-2.6
			c3.6,4.8,7.5,4.9,10.2,0.2c1.4,0.1,3,2.3,4,0.2c0.6-1.3-0.1-3.3-0.2-5.2c-0.2,0,0.3,0,0.8,0.1c0.5,0.1,1.1,0.3,1.9,0.6
			c-0.4-2.2-2.4-4-0.7-6c0.4-0.5,1.3-0.4,2-0.7c0.1,0.2,0.2,0.4,0.2,0.7c-0.7,0.3-1.4,0.6-2.5,1.1c1.9,0.9,5.5,1,2.2,4.4
			c0.5-0.2,1-0.3,1.7-0.5c-0.1,0.5-0.2,1.1-0.4,1.7c1.1,0.1,2,0.2,3.8,0.3c-1.2-2.1-2.3-4.2-3.5-6.3c0.2-0.2,0.4-0.5,0.6-0.7
			c2.7,1.2,5.5,2.4,8.2,3.5c0.6,0.3,1.4,0,2,0.4c0.9,0.5,1.7,1.2,2.6,1.9l-0.7,1c-1.2-0.6-2.4-1.3-3.7-1.9c-0.2,0.2-0.4,0.4-0.5,0.6
			c0.9,0.8,1.9,1.5,2.7,2.3c0.8,0.9,2,1.9,2.1,2.8c0.2,8,0.1,16,0.1,24.2c0.1,0,0.2,0,0.2,0c2.1-0.1,4.2-0.2,6.3,0
			c-0.3-10.6-0.7-20.7-1-30c1.8-1.3,2.8-2.4,4.1-2.9c2.4-0.9,5-1.5,7.4-2.2c2.8-0.8,5.5-1.8,8.4-2.4c2.3-0.5,4.7-0.7,7-0.9
			c2-0.2,4-0.3,5.9-0.5c-0.3-1-0.7-2-1-3c1.2-0.2,2.3-0.3,3.5-0.6c0.9-0.2,1.7-0.5,2.5-0.8c-0.3-0.2-0.5-0.3-0.8-0.5
			c0.3-2,0.7-3.9,1.1-6.2c-1.1,0.5-2.3,1.1-3.2,1.5c-0.4-0.6-0.7-1.1-1.1-1.8c0,0,0,0,0,0c0,0,0,0,0,0c0,0.1,0,0,0,0c0,0,0,0,0-0.1
			c0,0,0,0,0,0.1c1.8-0.5,3.6-1.3,5.4-1.5c0.7-0.1,1.6,1.1,2.3,1.7c1,0,2.2,0.2,3.4,0c1.3-0.3,2.7-0.8,2-2.9c-0.6,0.4-1,0.7-1.3,0.9
			c-0.8-0.5-1.6-0.9-2.6-1.5c0-0.1,0.2-0.6,0.4-1.1c-1.8-0.2-3.5-0.4-5.2-0.6c0-0.2,0-0.3,0-0.5c1.2-0.5,2.5-0.9,3.8-1.4
			c-0.1-0.2-0.1-0.5-0.2-0.7c-0.6,0-1.2,0.1-2,0.2c0.1-0.5,0.2-1,0.2-1.5c-0.2-0.1-0.4-0.3-0.6-0.4c-0.4,0.7-0.8,1.4-1.2,2.1
			c0-2.5-1-3.8-3.2-4.2c0.1-0.3,0.1-0.6,0.2-0.8c2.1,0.5,4.1,0.9,6.6,1.5c-0.5-0.8-0.7-1.1-1.1-1.7c2,0.8,3.7,1.5,5.5,2.2
			c0.2-0.3,0.4-0.5,0.6-0.8c-1.6-2.2-6.1-2.7-4.4-7c1.9-0.4,2.5,1.2,2.9,2.5c0.6,2.1,1.2,3.1,3.3,1.4c0.3-0.2,1,0,2.2,0
			c0.3-0.6,1-1.6,1.4-2.3c-3.5-2.1-6.5-4-9.5-5.8c0.2-0.3,0.3-0.5,0.5-0.8c2,1.1,4.1,2.2,6.1,3.2c0.1-0.2,0.3-0.3,0.4-0.5
			c-0.3-0.6-0.6-1.3-1.1-2.1c0.6,0,1.6,0,1.6,0c0.2,4.3,2.8,1.9,4.6,1.8c0.7-4.1,0.2-4.6-7.1-7.6c0.1-1.6,0.2-3.2,0.3-5.1
			c-2.9,0.5-3.3-1.5-3.7-3.8c-0.6,0.2-1.2,0.4-2.6,0.9c1.9-4.5,0.7-8.2-1.1-12c-1.1,0.1-2.1,0.2-3.2,0.3c-0.9-3-8.3-6.3-10.8-5.3
			c-1.6-0.8-2.7-1.3-3.8-1.9c-1.1-1.2-2.7-2.3-2.3-4.8c0.2-1.2-2.5-2.7-3.8-4.1c-1,0.9-1.7,1.6-2.5,2.3c0.3-1.8,1.5-3.4-0.2-5
			c-0.1-0.1,0.7-1.4,1-1.4c2,0.1,2-0.8,1.6-2.4c-0.4-1.8-0.3-3.7,2.2-4.2c-1.1-1.9-3.9-1.9-5.6-0.2c-1.1-0.8-2.1-1.5-3.4-2.4
			c0.2-0.4,0.4-1,0.6-1.5c1.9,0.5,3.6,1,5.4,1.5l0.4-0.6c-2.2-3.7-4.3-7.3-6.5-11.1c-0.1,0.1-0.6,0.2-1,0.4
			c-0.8-0.5-0.2-3.2,0.7-3.7c0.1-0.1,0.2-0.2,0.3-0.4c-1.3-3.7-2.1-4-5.6-2.9c-0.8,0.3-1.8-0.1-2.8-0.3c1-1.6,1.8-2.8,2.6-4
			c-0.2-0.3-0.3-0.6-0.5-0.9c-1,0.3-1.9,0.5-2.4,0.6c-1.6-0.5-3.1-1-4.7-1.5c-0.3,1.3-0.7,2.5-0.9,3.3h-4.6c0.1,1.1,0.2,2.2,0.3,3.3
			c0.2,0,0.5,0,0.7,0c-0.8,0.9-1.6,1.8-2.6,2.9c-0.6-1-1.2-1.8-2.1-3.2c-1.2,3-2.2,5.6-3.2,8.2c0,0-0.6-0.3-0.7-0.3
			c-1.8,1.1-3.3,2-4,2.4c0.6,2.2,1.1,3.7,1.3,5.3c0.1,0.5-1.5,1.2-1.4,1.6c0.8,2.8-0.8,2.7-2.6,2.5c-0.3,0-0.9,0.1-0.9,0.3
			c-0.2,1.6-1,2.3-2.7,2.6c-1.1,0.2-1.9,1.5-2.9,2.3c-0.4-0.8-0.8-1.6-1.2-2.5c-1.3,0.2-3.4-0.2-4,0.6c-0.8,1-0.5,2.9-0.6,4.4
			c-4.1,0.3-4.5,0.8-2.7,4.3c-1,0.2-2.1,0.1-2.7,0.6c-1.2,1-3.2,2.3-3.1,3.4c0.2,2.6-1.1,3.9-2.8,5.2c1.6,1.7,4,2,5.1,0.3
			c2-3.2,3.8-1.6,5.8-0.3c0.5,0.3,1.1,0.4,1.1,0.4v2.6c-0.2,0.1-0.9,0.4-2,0.8c1,0.7,1.6,1.1,1.7,1.2c0,0.9-0.2,1.6,0,2.2
			c0.4,1,1,1.9,1.6,2.8c-0.1,0.2-0.2,0.5-0.4,0.7c-0.9-0.3-1.8-0.6-2.7-0.8c-0.3-0.1-0.7,0-0.9,0.2c-1.3,0.9-2.6,1.3-4.4,1.1
			c-0.8-0.1-1.8,2-2.7,3.2c-0.6,0.7-1.1,1.5-1.7,2.2c-0.4,0-0.9,0-1.3-0.1c0.6,1.3,1.2,2.7,1.7,3.9c-2.2,0.8-5.4,0.9-6.8,4.3
			c-0.1,0.3-1.7,0-2.8,0c0,0.8-0.1,1.8-0.1,2.8c-2.9,1-3.8,2.4-3.7,5.8c0,1.4,3.3,4.6,5.2,4.7c1.7,0.1,3.4-0.4,5.1-0.7
			c1.3-0.2,2.7-0.4,4.5-0.6c-0.5,1.5,2,3.9-1.9,3.9c-0.8,2.2-2.9,1.2-4.3,1.9c0.3,1.5,0.7,3.2,1.1,4.7c-2.2-1.1-4.4-2.2-7-3.4v5.1
			c-1.7,0.1-3.6,0.5-5.4,0.2c-1.7-0.3-3.4-1.3-5.3-2.2c-1.1,1.5-1,3.3,1,5c-0.6,0.8-1.2,1.6-2.1,2.8c-0.3-0.7-0.5-1.3-0.6-1.7
			C738.1,174.1,737.1,175.4,735.9,177.1z M838.2,151.9c1-0.6,2.2-1.5,3-1.1c3,1.3,4.7-1,6.9-1.9c3.8,4.6,3.8,9.5,0.6,10.3
			c-1.4-0.7-2.3-1.2-3.4-1.7c0.8-2.2-1.1-6-2.8-5.2C840.8,153,839.6,152.5,838.2,151.9z M819.8,115.5c-4.5,0.6-0.9,3.3-0.9,5.7
			c-2.1-0.9-3.9-1.6-5.8-2.4c1.1-0.6,1.9-1.1,3.4-2c-1.4-0.8-2.3-1.3-3.1-1.8c0.2-0.2,0.3-0.4,0.5-0.6c0.6,0.3,1.2,0.6,1.7,0.8
			c0.4-0.8,0.9-1.6,1-1.8C817.6,114.2,818.6,114.8,819.8,115.5z M809.7,188.9c3.7-1.7,7.2-4.7,12.3-1.6
			C817.5,187.4,813.9,190.4,809.7,188.9z M808.4,177.4c0.8-0.6,2.4-1.6,2.3-1.8c-1-2.1,1-2.1,1.8-2.7c1.5-1.1,3.1-1.9,4.2-2.6
			c1.4,0.8,2.7,1.6,4.3,2.5c-0.1,0.6-0.2,1.4-0.3,2.3c0.2,0.1,0.5,0.1,0.7,0.2c0.3-1.7,0.7-3.5,1-5.4h5.1c-1.5-1.6-2.6-2.8-3.7-4
			c0.6-0.4,1.3-0.7,1.9-1.1c1.2,3.1,3.8,0.9,5.6,1.6c-1.3,1.3-2.6,2.6-4.3,4.3c1.1,0.3,1.8,0.3,2.1,0.6c0.5,0.6,1,1.4,1,2.1
			c-0.1,0.9-0.7,2.4-1,2.4c-1.6,0-2.7,0.9-4,1.3c-1.5,0.5-3.3,0-4.9,0c-0.5,0-0.9,0.3-1.6,0.6c0.2-1,0.3-1.8,0.4-2.3
			c-1.5-0.2-2.8-0.4-4.5-0.6c-0.2,0.4-0.7,1.3-1.3,2.3c-1.4,0.3-3,0.7-4.7,1.1C808.5,177.9,808.5,177.6,808.4,177.4z M808.2,172
			c1.3-0.7,2.5-1.6,3.8-2.1c1.3-0.5,2.6-0.8,4-1.2c0.1,0.2,0.1,0.4,0.2,0.7c-2.5,1.2-4.4,3.6-7.4,3.7
			C808.6,172.7,808.4,172.4,808.2,172z M799.7,130.1c-0.5,0.9-1.1,1.9-1.8,3.1c-1.2-1.9-2.4-3.8-3.6-5.7c-0.7,0.6-1.2,1.1-2.1,1.9
			c1.1-2.9,2-4.1,4.4-4.2C799.9,125.1,799.2,128.2,799.7,130.1z M801,150.6c-2.7-1.2-4.9-2.1-7.2-3.1c0.9-1.3,1.8-2.4,2.7-3.7
			c0.9,0.5,1.7,1,2.7,1.5c-0.7,0.6-1.3,1.1-2,1.7c0.9,0.5,1.6,0.9,2.1,1.4C799.8,148.9,800.2,149.6,801,150.6z M792.9,185.3
			c3.5,0.3,6.9,0.7,10.3,1c0,0.3,0,0.7,0,1c-2.6,1.6-4.9,3.2-8.3,1.6C793.2,188.2,792.5,187.7,792.9,185.3z M793.4,182.2
			c0.2-0.2,0.3-0.4,0.5-0.6c0.3,0.3,0.5,0.6,0.8,0.9c1.4-0.2,2.8-0.3,4.1-0.7c3.5-1.1,4-0.8,3.6,2.8c-2.7-0.2-5.5-0.5-8.2-0.7
			c-1.2,0-3.2,0.3-3.3,0C790.4,181.7,792.7,183.1,793.4,182.2z M787.3,110.1c-0.9,0.8-1.8,2.3-2.7,2.3c-1.3,0-2.5-1-3.8-1.6
			C781.9,108.3,784.7,108.1,787.3,110.1z M778.3,127.9c0.9-1.2,2-2.8,3.2-4.4c0.6,1.8,0.7,3.3,1.3,3.6c1.5,0.7,3.2,0.8,4.6,1.2
			c-0.3,0.2-1.1,0.6-1.9,1.1v1.4c-1.9-0.2-3.7-0.4-5.5-0.6C779.7,129.7,779.1,129,778.3,127.9z" />
			<path class="st0" d="M729.2,252.2c0.5-2,0.9-3.7,1.3-5.4c-2.2,0.2-4.4,0.4-6.9,0.7c-0.1,0.3-0.2,1.4-0.5,1.5
			c-4.7,0.4-9.5,1.1-14.2,0.8c-2.3-0.1-1.8-2.1,0-3.5c0.6,1,1.1,1.9,1.8,3c1.4-1.9,2.6-3.6,3.9-5.3c0.7,0.9,1.5,1.9,1.8,2.3
			c2-1.8,3.6-3.4,5.2-5c1.4-1.4,2.7-2.9,4-4.4c-0.3-0.3-0.6-0.7-0.8-1c-4.9,5.5-11.5,2.4-17.2,3.8c-0.9,0.2-2.2-0.6-3-0.9
			c1.2-2.5,2.2-4.7,3.4-7c0.7,3.4,2.8,3.9,5.5,2.6c-0.2-1.4-0.4-3-0.5-4.2c2.5-0.2,4.6-0.4,6.8-0.6c0.6-0.8,1.5-1.8,2.6-3.1
			c-1.8-0.9-3.5-1.8-5.3-2.7c0-0.3,0-0.6,0-0.9c1.4-0.2,2.9-0.2,4.1-0.8c1.5-0.7,2.8-1.9,4.2-2.9c-0.2,0-0.4-0.1-0.6-0.1
			c0.7-2.2,1.5-4.4,2.1-6.4c-2.7-2.4-5.8,4.8-8.5-0.3c1.1-0.7,2-1.2,3.2-1.9c-1.5-0.5-2.4-0.8-3.8-1.3c1.6-2.6,3-5,4.7-7.8
			c-1.8,0.7-3.1,1.1-4.4,1.6c-0.2-0.2-0.4-0.4-0.6-0.6c0.6-0.8,1.3-1.6,1.8-2.3c-0.2-2.4-0.5-5-0.7-7.5c-0.6,1.5-4,1.5-2.3,4
			c-0.6,0.2-1.3,0.8-1.9,0.7c-0.9-0.1-1.8-0.7-2.7-1.1c2.1-3.3-0.5-8-5.9-10.2c-0.5,2.9-0.9,5.8-1.3,8.7c-1.2-0.4-2.9-1-4.7-1.6
			c0.1-0.2,0.1-0.4,0.2-0.6c0.8-0.1,1.6-0.1,2.9-0.2c-2.9-2.7,0.9-1.5,1-2.8c-0.8-0.4-1.7-0.9-2.7-1.4c0.2-0.1,0.5-0.2,0.7-0.3
			c-0.4-0.9-0.8-1.8-1.1-2.6c1.7-0.7,3.5-1.5,4.5-1.9c-0.4-2.7-0.6-4.7-1-6.7c-0.2-0.9-0.7-1.7-1.1-2.6c-0.3,0.1-0.6,0.1-0.9,0.2
			c0.3-1,0.6-2,0.9-3c-0.2-0.2-0.5-0.4-0.7-0.7c-1.9,3-4.1,4.9-8.7,3.6c5.1-3.3,2-7.2,2.2-10.8c0.1-0.8-0.3-1.6-0.4-2.6
			c-2,2.7-3.8,5.1-5.6,7.5c-0.6-1.6-0.9-3.4-0.2-4.8c0.9-1.9,2.5-3.4,4.4-5.9c-2.4,0.7-3.9,1.1-5.1,1.4c1.4-2.2,2.7-4.2,4-6.3
			c-0.2-0.2-0.4-0.3-0.6-0.5c-0.7,0.4-1.4,0.7-3,1.6c1-2.2,1.6-3.5,2.2-4.7c-0.6-0.7-1.3-1.5-1.7-1.9c-1,0.6-1.8,1.2-2.7,1.8
			c0.2,0,0.4,0.1,0.5,0.1c-0.6,1.1-1.1,2.3-1.7,3.4c-0.8-0.4-1.6-0.8-2.6-1.3c-0.3,0.2-0.9,0.7-1.6,1.2c-0.2-0.2-0.4-0.4-0.6-0.5
			c0.7-0.9,1.5-1.7,2.1-2.7c0.5-0.8,0.8-1.7,1.2-2.6c-2.6-0.9-1.2-3-1.3-4.6c-0.1-0.7-0.4-2.1-0.6-2.1c-2.1-0.1-1.4-1.4-1.3-2.6
			c0.1-1,0-2.1,0-3.4c-1.2,0.1-2.1,0.2-3.5,0.4c0.6-1.6,1.2-2.8,1.6-4.1c0.2-0.7,0.7-1.8,0.4-2.2c-0.5-0.6-1.6-0.8-2.9-1.4
			c-0.6-1.8-1.5-4-3-6.3c-2.4-3.7-3.1-8.5-4.4-12.9c-0.7-2.3-2.1-2.9-3.8-1.2c-1.2,1.2-2.2,2.7-3,4.2c-2.1,3.6-4.4,7.1-8.3,9.3
			c0.7,0.8,1.5,1.6,1.9,2.1c-1.5,3,0.6,4.8,2.1,6.9c-1.2,0.1-2.1,0.1-3,0.1c-0.4-1.5-0.8-2.9-1.2-4.3l-1.1,0.3
			c-0.3,3.3-0.6,6.6-0.9,10.5c-0.3,0.4-0.9,1.4-1.8,2.8c-0.8-2-1.6-3.7-2.4-5.5c-0.3,0-0.5,0.1-0.8,0.1c-0.2,2.6-0.3,5.1-0.6,8.2
			c0.7,1.2,1.9,3.1,3.1,5c-0.2,0.2-0.5,0.3-0.7,0.5c-2-0.6-4.1-1.3-6.6-2.1c0.3,2,0.6,3.6,0.9,5.6c-1.5-0.8-2.6-1.3-3.7-1.9
			c2.5,3.1,1.9,8.6,7.2,9.3c0,0.2,0,0.4-0.1,0.8c-2-0.2-3.9-0.4-5.9-0.7c-0.1,0.2-0.2,0.5-0.2,0.7c0.9,0.6,1.9,1.1,2.8,1.7
			c-0.6,0.3-1.3,0.7-1.9,1c0.1,0.2,0.1,0.4,0.2,0.6h6.1c-2.5,2.9-2.5,2.9-6,1.2c-0.9,1.3-1.8,2.6-2.8,4.2c-0.6-1.6-1-2.8-1.5-4
			c-5.5,2.9-4.7,6.5-1.2,10.2c-1.7,0.4-2.9,0.7-4,0.9c0,0.3,0,0.5-0.1,0.8c2,1,4.1,2,6.8,3.3c-0.9,1-1.8,3.1-3.1,3.4
			c-1.4,0.4-3.2-0.9-5.4-1.6c-0.4,0.3-1.5,1.1-2.8,2c-0.7-1.7-1.2-3-2-4.9c-1.5,1.8-2.8,3.4-4.4,5.3c0.8,0.7,1.9,1.5,3.5,2.7
			c-2.1,0.2-3.5,0.3-4.9,0.4c-0.6,1.2-1.1,2.4-1.9,4.1c-1.2-3.1-2.1-5.6-3.1-8.4c-0.8,4-1.5,7.7-2.3,11.3c1.1,0.9,2.4,2,3.7,3
			c-0.2,0.3-0.5,0.5-0.7,0.8c-1.3,0.1-2.7,0.2-4.7,0.3c1.5,1.3,2.4,2.2,3.4,3.1c1-0.5,2-1,3-1.4c0.1,0.2,0.2,0.4,0.3,0.6
			c-1,0.8-2,1.5-3.1,2.4c0.4,0.7,0.9,1.3,1.3,2c-1.2,0.1-2.2,0.2-3.1,0.3c2.2,2.7,4.2,5.3,6.8,8.4c-0.4,1.7-1.9,1.3-3.9,0.5
			c-0.9-0.3-2,0-3,0c0.8,1.7-2.3,4.4,1.5,5.4c0.6,0.2,1.1,1.1,1.6,1.7c-2.1,0.3-4.1-0.7-5.7-0.3c-1.6,0.4-2.9,2.3-4.7,3.8
			c-0.2-1-0.3-2.2-0.5-3.2c-1.7-1-3.5-2.1-5.7-3.3c0.2,1,0.6,2,0.5,2.8c-0.2,0.8-0.9,1.4-1.4,2.1c0.6,0.6,1.2,1.2,2.2,2.1
			c-1.4,0.3-2.2,0.4-3,0.5c-0.1,0.3-0.2,0.5-0.3,0.8c2.2,1.2,4.5,2.4,6.7,3.6c-0.1,0.1-0.4,0.6-0.7,1c-3.7,4-3.6,4.7,1.2,7.7
			c0.4,0.2,0.8,1,0.7,1.4c-0.6,1.4-1.3,2.7-2.4,4.8c2.5,0.3,4.8,0.5,7.4,0.7c-0.4,1-0.7,1.9-1.1,2.9c1,0.3,2,0.5,3.3,0.8
			c-0.6,1.3-1.1,2.6-1.5,3.5c1.4,1.9,2.6,3.7,4.1,5.8c2.6-0.5,5.6-1,8.1-1.5c-1.2,2.5-2.3,4.5-3.3,6.6c1.7,0.4,3.4,0.7,5.3,1.1v4.8
			c0.9-0.7,1.3-1,1.8-1.4c0.1,0.8,0.1,1.5,0.2,2.1c3.1,0.3,6,0.6,9.1,1c0.1,0.9,0.3,1.8,0.4,2.8c0.7-0.2,1.2-0.4,1.7-0.5
			c0.1,0.8,0.1,1.5,0.2,2.6c2.8-2.6,6.5-3.7,6.8-7.8c0-0.4,1.1-0.6,2-1.2c-0.5,1.6-0.8,2.7-1.2,3.8l0.8,0.8c1.2-0.9,2.3-1.7,3.6-2.7
			c0.7,2.6,1.5,5.3,2.3,8c3.4-1.3,6.6-2.5,10.2-3.9c0.6,2.3,1.4,4.1,1.4,6c-0.1,5.4-0.4,10.9-1.1,16.3c-0.1,1.1-0.3,2-0.7,2.8
			c2.9-0.5,5.9-0.8,8.7-0.8c-0.2-0.6-0.4-1.2-0.4-2c-0.2-3.5-0.7-7-0.6-10.5c0.1-3.5,0.6-6.9,1.3-10.3c0.4-2,1.7-3.4,4.2-3.4
			c2.3,0,4.8,1,6.9-1c0.2-0.2,1.2,0.4,1.9,0.6c0.4,0.1,1.1,0.5,1.2,0.4c2.1-1.9,2.8,0,3.6,1.2c1.2-0.3,2.6-1.2,3.3-0.8
			c5.2,3.4,9.3-0.3,13.3-2.3c1.9-1,2.9-0.9,4.6,0c1.6,0.9,3.4,1.2,5.5,1.9c-0.5-2.4-0.8-4-1-5.6c2.2-0.5,4.3-1.1,6.6-1.7
			c-0.3-2.1-0.5-4.1-0.7-6.1c2.9-0.3,5.5-0.5,8.1-0.7c0-0.2,0-0.4,0-0.6c-1.5-0.6-3.1-1.2-4.6-1.8c0.1-0.2,0.1-0.4,0.2-0.6H729.2z
			 M612.4,224.9c-0.8,0.2-2-1.4-3-2.1c1.3-0.8,2.6-1.5,4.2-2.4c1.5,0.9,2.6,1.5,3.7,2.1C615.7,223.4,614.2,224.6,612.4,224.9z" />
		</g>
	</g>
</svg>
