<svg version="1.1" id="background" xmlns="http://www.w3.org/2000/svg" xmlns:xlink="http://www.w3.org/1999/xlink" x="0px" y="0px" viewBox="0 0 800 295" xml:space="preserve">
<style type="text/css">
	.st0 {
        fill-rule: evenodd;
        clip-rule: evenodd;
        fill: #CBDDCF
    }
</style>
<path class="st0" d="M801.2,97.8H794c0.3-1,0.5-1.5,0.9-2.8c-2.5,1.4-4.6,2.6-6.7,3.8c-0.6-0.8-1.1-1.5-1.8-2.5c0.3-0.5,0.7-1.3,1.2-2.1c-4.6,1.9-8.3,7-14.3,4c-3.4-1.7-6.8-3.2-10.1-4.9c-0.8-0.4-1.2-1.6-1.8-2.4c0.2-0.3,0.4-0.6,0.6-0.9	c1.2,0.7,2.4,1.4,3.7,2c0.8,0.4,1.7,0.7,2.6,0.9c0.1,0,0.4-1.1,0.7-1.8c1.2,0.8,2.3,1.9,3.7,2.6c2,1,2.7,0.5,2.7-1.7c0-1,0.4-1.9,0.7-2.9c0.8,0.4,1.6,0.8,2.5,1.2c1.8,0.8,3.6,1.7,5.4,2.5c0.2-0.3,0.4-0.6,0.6-0.9c-1.4-1.5-2.8-3-4.8-5c3.3,1.4,5.9,2.5,8.5,3.6c0.1-0.3,0.3-0.6,0.4-0.8c-0.5-0.6-1-1.1-1.6-1.9c1.8-0.6,3.3-1.2,5-1.8c-0.5-0.6-1-1.1-1.5-1.7c2.4-0.7,5.5,0.9,6.8-3c-1.2-0.3-2.3-0.6-3.5-0.9c-1.6-0.3-3.6,0.5-4.5-1.8c-0.1-0.3-1.7-0.2-2.4,0c-2.2,0.7-4.3,1.5-6.4,2.3c-0.8-1.4-1.6-2.8-2.5-4.3c-0.9,0.2-2.1,0.4-3.5,0.6c-0.1-0.8-0.3-1.5-0.4-2.5c-2.4,1.4-4.5,2.7-6.8,3.9c-2.6,1.3-5.1,0.3-7.4-1c0.7-1,1.3-1.9,2-3.1c-3.5-1.6-8.4,1-10.2-3.8c-0.8-2.1-1.3-4.4-2-6.6c0.4-0.1,0.7-0.2,1.1-0.3c0.1,0.6,0.2,1.3,0.4,1.9c0.5,1.6,1,3.3,1.8,4.8c0.4,0.7,1.4,1.1,2.2,1.7c0.5-0.8,1.1-1.5,1.5-2.3c0.3-0.4,0.3-1,0.5-1.5c2.4,4.1,3.3,4.7,6.5,4.1c-0.3-0.9-0.6-1.8-0.9-2.9c0.7-0.5,1.4-1,2-1.4c1.6,1.7,3,3.4,4.7,4.9c1.4,1.3,2.5,1.1,2.9-1c0.2-0.8,0.8-1.6,1.2-2.4c2.9,2.1,7.8,1.2,10.6-1.7c-3.3-3.5-7.6-5.1-12-6c0.2-1.3,0.3-2.3,0.4-3.2c-1.4,0-2.9-0.3-4.3,0c-1.5,0.3-2.9,1.1-4.3,1.7c-0.1-0.3-0.2-0.6-0.4-0.9c1-0.5,2.1-1.1,3.2-1.7c-0.2-0.6-0.3-1.3-0.4-1.6c1.8-0.9,3.4-1.7,5-2.6c0-0.3-0.1-0.6-0.1-0.9c-2.5-0.5-4.9-1-7.4-1.5c0.2-3.4,0.4-3.5,4.2-1.9c1.8-1.2,3.5-2.3,5.1-3.5c0.5-0.3,1.3-0.8,1.2-1.1c-0.2-0.6-0.6-1.3-1.1-1.5c-1.3-0.5-2.8-0.8-4.2-1.1c-0.1-0.3-0.3-0.5-0.4-0.8c1.8-1.8,3.7-3.5,6-5.7c-2.1-0.3-3.8-0.6-5.9-0.9c0.8-1.3,1.7-2.5,2.4-3.9c0.3-0.6,0.1-1.4,0.2-2.1c-0.7,0.2-1.5,0.1-2,0.5c-1.4,1.1-2.7,2.4-4.1,3.7c-1-0.9-1.7-1.5-3.1-2.8c-1.3,2.4-2.5,4.5-3.5,6.7c-1.8,4.2-5.2,6.5-9.4,9c-0.2-1.5-0.2-2.3-0.3-3.1c-0.3-2.5-0.5-5-1-7.5c-0.6-3.4,0.6-5.2,4.1-5.8c0,0.7-0.1,1.5,0.2,1.9c0.3,0.5,1.5,1,1.6,0.8c1.5-1.7,3.3-2,5.4-1.6c0.4,0.1,0.9-0.4,1.6-0.6c-1.6-3.3-4.3-4.7-7.6-5.7c3.5-1.2,7.2,1.2,11-1.1c-2.1-1.2-3.8-2.2-5.6-3.3c1.5-1.4,3.1-2.8,4.7-4.2c-0.2-0.3-0.3-0.6-0.5-0.9c-2.6,1-5.1,2.1-7.8,3.2c-0.1-0.6-0.2-1.4-0.4-2.2c-0.2-0.1-0.5-0.2-0.7-0.4c-1.9,2.9-3.7,5.9-5.6,8.8c-2.3-7.8,4.8-11.3,7-17.4c-3.8-0.7-5,2-6.7,4.6c-2.2-3.9,0.6-9-4.4-11.7v13.3c0,0.1-0.2,0.2-0.4,0.3c-2-1.8-3.8-3.7-6.1-5.8c-1,3.4,1,5.2,2.6,6.9c2.9,3.1,3.8,6.7,3.4,10.7c0,0.5-0.3,0.9-1.1,1.5c-0.7-2.1-1.4-4.1-2-6.2c-0.2-0.5-0.1-1.1-0.3-1.5c-0.6-1-1.3-1.9-1.9-2.9c-0.7,0.9-1.3,1.8-2.3,3.1c-0.8-0.5-1.9-1.3-3.2-1.9c-0.7-0.3-1.6-0.3-2.4-0.5c0,0.9-0.3,2,0.1,2.7c1.3,2.2,2.9,4.2,4.3,6.1c-0.7,1.5-3.8,1.6-2.1,3.6c0.7,0.8,2.7,0.4,4.2,0.6c0.2-0.2,0.3-0.5,0.5-0.7c0.1,1.4,0.2,2.7,0.3,4.6c-2.1-1-3.7-1.7-5.7-2.6c-0.8,3.5,2.2,4.5,3.5,6.7c-0.7,0.2-1.6,0.1-1.8,0.6c-1.7,2.6-3.4,1.1-5.1,0.1c-2.6-1.5-5.2-3-8.1-4.6c-1.2,3.9,1.4,4.9,3.5,6.5c-1.1,0.4-2.1,0.6-2.9,1.1c-1.1,0.5-1.4,2.1-0.3,2.1c3.8-0.1,4.2,3.5,6.8,5.3c-1.7,0.4-3.1,0.6-4.4,1.2c-0.8,0.3-1.3,1.2-1.9,1.8c1,0.6,2,1.9,2.9,1.7c2.2-0.4,4-0.7,5.8,1.1c0.3,0.4,1.7-0.2,2.6-0.5c0.9-0.3,1.8-0.7,3-0.5c-0.9,1-1.8,2-2.8,3c0.1,0.3,0.2,0.6,0.2,0.9c1.5-0.2,3.1-0.4,4.6-0.6c0.2,0.7,0.6,2.6,0.9,2.6c2-0.2,4.3-0.3,5.1-3.5c0.6,1.3,1,2,1.3,2.8c0.8,1.7,0.3,2.6-1.6,2.8c-5.6,0.7-11,1.2-15.9-2.5c-1.2-0.9-2.8-1.9-4.8-0.2c1.2,1,2.3,2,3.4,2.9c-0.1,0.2-0.2,0.4-0.3,0.7c-3.1-1.5-6.3-3-9.4-4.6c-0.7-0.4-1.2-1.1-1.9-1.4c-0.9-0.3-2.1-0.7-2.9-0.4c-0.5,0.2-0.4,1.7-0.7,3.1c-1.8,0.2-4,0.5-6.2,0.9c-0.6,0.1-1.2,0.6-1.7,0.9c0.4,0.6,0.8,1.6,1.3,1.7c3,0.8,6.1,1.4,9.1,2.1c-0.2,0.2-0.9,0.7-1.4,1.3c-0.4,0.6-0.9,1.6-0.7,2c0.3,0.5,1.5,0.9,2,0.7c1.4-0.5,2.6-1.4,3.9-2.2c1.1-0.6,2.1-1.3,3.1-2c0.1,0.2,0.3,0.4,0.4,0.7c-1.3,0.9-2.5,1.8-3.7,2.6c0.7,1.3,1.1,2.5,1.8,3.4c0.3,0.4,1.2,0.9,1.6,0.7c2.9-1.3,5.8-2.8,9-3.9c-1.1,0.9-2.3,1.7-3.3,2.7c-0.7,0.8-1.2,1.8-1.8,2.7c1.1-0.1,2.3-0.1,3.4-0.2c0.3,0,0.6-0.3,1.1-0.6c0.1,0.8,0.3,1.5,0.4,2.3c0.5-0.2,1-0.2,1.1-0.4c2-3,5.3-2.9,8.3-3.5c2.7-0.5,4.6-1.7,6.9-5c0.2,0.1,0.4,0.2,0.6,0.3c-0.6,1.2-0.8,2.8-1.8,3.5c-4.2,3-8.6,5.7-13,8.4c-0.6,0.4-1.8-0.1-2.7-0.4c-2.5-1-4.9-2.2-7.3-3.3c-0.2,0.2-0.3,0.3-0.5,0.5c0.3,1,0.7,2,1.1,3.4c-2.7-0.7-5.3-1.4-8-2.2c0.1,2.9-1.7,2.7-3.6,2.4c-0.8-0.1-1.7-0.7-2.3-0.5c-1,0.4-1.8,1.4-2.7,2.1c0.6,0.6,1.2,1.2,2,2.1c-0.1,0.2-0.4,0.8-0.7,1.5c1.1,1.4,4.3-0.9,3.8,2.6c1,0.1,1.8,0.1,2.9,0.2c0.1,0.7,0.3,1.5,0.4,2.3c0.1-0.2,0.2-0.5,0.4-0.7c1.5,0.5,3.1,0.8,4.3,1.6c0.4,0.3,0.1,1.8-0.3,3c-3.1-3-6.2-1.4-9.6-0.6c1.4,1.9,3.8,3.6,1.6,6.5c-2.2-1.3-4.4-2.7-7.3-4.5c0.3,1.9,0.4,3,0.6,4.3c-3-0.4-5.8-0.7-8.6-1c-0.1,0.3-0.3,0.7-0.4,1c2.1,1.1,4.3,2.2,6.6,3.4c-0.1,0.3-0.3,1-0.5,1.9c3.8,0.8,7.3,1.9,10.1,4.9c0.5-0.5,1.2-1.1,2-1.8c3.6,3.7,7.1,7.3,10.8,11c-6.3,2.2-12.7,4.7-19.3-0.4c-0.2,1.2-0.3,1.6-0.3,2.1c0,0.4,0,0.9,0.1,1.2c-2.6,2.3-5.9-2.3-8.2,1c1.6,1.8,3.2,3.5,4.8,5.2c-0.2,0.2-0.4,0.4-0.6,0.6c0.9,0.1,1.9,0.2,2.8,0.3c0.9,3.5,1.3,3.7,5.4,2.6c-0.3,4.4,3.2,1.9,5,2.7c-1.5,2.4-7,3.4-9.9,2c-0.4-0.2-0.8-0.4-1.1-0.7c-1.6-1.2-3-1.5-3.5,0.9c-2,0-3.8,0-5.7,0c-0.1,0-0.2,0.2-0.7,0.6c0.9,0.5,1.6,0.9,2.4,1.4c1.3,0.7,2.3,1.3,3,3c0.4,1,2.9,1.1,4.4,1.7c0.1-0.3,0.2-0.5,0.4-0.8c0.3,0.9,0.5,1.8,0.8,2.8c0.8,0.1,1.6,0.1,2.5,0.2c0.1,0.6,0.1,1.2,0.1,1.3c3.8,3,5.7,0,8-2c2.4-2.1,3.9-2,5.6,0.1c-1.4,0.4-2.8,0.8-4.2,1.3c0.5,1.4,1,2.8,1.4,4.1c-5.9,3.9-12.7,5-19.7,5.6c-0.8,0.1-2.1,0.7-2.2,1.2c-0.6,2.1-2,2.4-3.8,2.5c-1.6,0.1-3.3,0.3-5,0.4c1.4,2.4,3.1,3.3,7.5,4c-0.5,0.9-1,1.8-1.4,2.4c1.2,0.7,2.4,1.4,3.6,2.1c2,1.4,5.7-2.5,7,3c1.1-0.9,2-1.7,3-2.6c0.5,2.5,2.6,3.1,4.6,2.5c1.7-0.6,3.1-2.2,4.6-3.4c0.1,0.3,0.6,1.3,1.1,2.4c0.9-1,1.8-2,2.7-3c0.4,1,0.7,1.8,1.2,3.2c0.9-1.7,1.5-2.9,1.9-3.6c1.8,0.2,3.4,0.4,5.3,0.6c-2.3,3.1-5.6,3.7-8.8,4.4c-3.2,0.8-6.3,1.7-9.5,2.6c1,3.5,4.7,2.1,7.1,3.6c-7.9,2.1-16.1,2.1-24.2,2.6c-1.9-3.2-3.8-6.4-5.7-9.7c-0.1,0.1-0.6,0.2-1,0.4c-0.8-0.5-0.2-3.2,0.7-3.7c0.1-0.1,0.2-0.2,0.3-0.4c-1.3-3.7-2.1-4-5.6-2.9c-0.8,0.3-1.8-0.1-2.8-0.3c1-1.6,1.8-2.8,2.6-4c-0.2-0.3-0.3-0.6-0.5-0.9c-1,0.3-1.9,0.5-2.4,0.6c-1.6-0.5-3.1-1.3-4.7-1.9c-0.3,1.3-0.7,2-0.9,3h-4.6c0.1,1,0.2,2.5,0.3,3.6c0.2,0,0.5,0.2,0.7,0.2c-0.8,0.9-1.6,1.9-2.6,3c-0.6-1-1.2-1.8-2.1-3.2c-1.2,3-2.2,5.6-3.2,8.2c0,0-0.6-0.2-0.7-0.3c-1.8,1.1-3.3,2-4,2.4c0.6,2.2,1.1,3.7,1.3,5.3c0.1,0.5-1.5,1.2-1.4,1.6c0.8,2.8-0.8,2.7-2.6,2.5c-0.3,0-0.9,0.1-0.9,0.3c-0.2,1.6-1,2.3-2.7,2.6c-1.1,0.2-1.9,1.5-2.9,2.3c-0.4-0.8-0.8-1.6-1.2-2.5c-1.3,0.2-3.4-0.2-4,0.6c-0.8,1-0.5,2.9-0.6,4.4c-4.1,0.3-4.5,0.8-2.7,4.3c-1,0.2-2.1,0.1-2.7,0.6c-1.2,1-3.2,2.3-3.1,3.4c0.2,2.6-1.1,3.9-2.8,5.2c1.6,1.7,4,2,5.1,0.3c2-3.2,3.6-1.6,5.6-0.3c0.5,0.3,0.9,0.4,0.9,0.4v2.6c0,0.1-0.7,0.4-1.8,0.8c1,0.7,1.7,1.1,1.8,1.2c0,0.9-0.1,1.6,0.1,2.2c0.4,1,1.1,1.9,1.6,2.8c-0.1,0.2-0.2,0.5-0.4,0.7c-0.9-0.3-1.8-0.6-2.7-0.8c-0.3-0.1-0.7,0-0.9,0.2c-0.9,0.7-1.9,1-3,1.1c0-0.1-0.1-0.3-0.3-0.5c0.9-0.6,1.9-1.2,3.3-2.2c-2.4-1.2-4.3-2.2-6.7-3.4c-1.5,0.3-3.5,0.7-6.1,1.1c1.1-1.2,1.9-2,3-3.2c-1.5,0.4-2.4,0.6-3.6,0.9c0.4-0.9,0.6-1.5,0.9-2.1c-0.1-0.2-0.2-0.3-0.2-0.5c-3,2.5-6.3,4-10.3,3.2c-3.7-0.8-7.6-1.1-8.5-6.2c2.2,2.7,5.2,1.4,7.8,2.5c0.3-0.8,0.4-1.4,0.6-2.1c1.4,0.6,2.7,1.2,4.2,1.9c0.1-0.8,0.1-2.2,0.1-2.2h8.1c-0.6-1-0.9-1.5-1.3-2.2c0.8-0.4,1.7-0.8,2.7-1.3c-0.5-0.4-0.8-0.7-1.1-1c1.9-1.4,3.9-2.7,6.2-4.3c-2.6-0.8-4.7-1.4-7-2.1c0-0.2,0.1-0.7,0.2-1.4c-3,0.7-5.8,1.4-8.7,2.1c0.4-1.5,0.8-2.6,1.1-3.7c-0.2-0.2-0.3-0.3-0.5-0.5c-3.5,2.3-7.1,2.7-10.9,1.4c-3.6-1.3-7.1-2.8-10.2-5.2c2.8-0.5,5.2,0.3,7.5,1.7c0.2-0.9,0.3-1.6,0.5-2.3c1.7,0.1,3.1,3.3,5.1,0.4c0.4,1.9,2.1,2.1,3.6,2.1c1.1,0,2.4-2.3,2.4-3.9c1,0.2,2,0.4,3.3,0.7c-0.2-0.8-0.4-1.4-0.6-2c0.3-0.2,0.7-0.4,1-0.6c-0.4-0.7-0.7-1.4-1.3-2.4c2.1,0.4,3.4,2.8,5.6,1.3c-0.1-0.5-0.3-1.1-0.4-1.6c1.7-0.9,3.4-2.2,5-3c-0.1-0.2-0.1,0-0.2-1h-5.5c0.2,0,0.4-0.8,0.7-1.8c-1.9,1-3.4,2.1-5,3c-0.4-0.6-0.8-1.1-1.4-1.8c0.2-0.4,0.5-0.9,0.9-1.5c-3.5,1.4-6.2,5.3-10.7,3.1c-2.5-1.2-5.1-2.4-7.6-3.7c-0.6-0.3-0.9-1.2-1.3-1.8c0.2-0.2,0.3-0.4,0.4-0.7c0.9,0.5,1.8,1,2.8,1.5c0.6,0.3,1.3,0.5,2,0.6c0.1,0,0.3-0.8,0.5-1.4c0.9,0.6,1.8,1.4,2.8,1.9c1.5,0.8,2,0.3,2.1-1.3c0-0.7,0.3-1.4,0.5-2.2c0.6,0.3,1.2,0.6,1.9,0.9c1.3,0.6,2.7,1.3,4,1.9c0.2-0.2,0.3-0.5,0.5-0.7c-1.1-1.1-2.1-2.2-3.6-3.8c2.5,1,4.4,1.9,6.3,2.7c0.1-0.2,0.2-0.4,0.3-0.6c-0.4-0.4-0.7-0.8-1.2-1.4c1.3-0.5,2.5-0.9,3.8-1.4c-0.4-0.4-0.7-0.8-1.2-1.3c1.8-0.5,4.1,0.6,5.1-2.2c-0.9-0.2-1.8-0.5-2.6-0.6c-1.2-0.2-2.7,0.4-3.4-1.3c-0.1-0.2-1.2-0.2-1.8,0c-1.6,0.5-3.2,1.1-4.8,1.7c-0.6-1.1-1.2-2.1-1.8-3.2c-0.7,0.1-1.6,0.3-2.6,0.5c-0.1-0.6-0.2-1.1-0.3-1.9c-1.8,1-3.4,2.1-5.1,2.9c-2,1-3.8,0.3-5.6-0.7c0.5-0.8,0.9-1.5,1.5-2.3c-2.7-1.2-6.3,0.7-7.7-2.8c-0.6-1.6-1-3.3-1.5-5c0.3-0.1,0.5-0.1,0.8-0.2c0.1,0.5,0.1,1,0.3,1.4c0.4,1.2,0.7,2.5,1.3,3.6c0.3,0.6,1.1,0.9,1.6,1.3c0.4-0.6,0.8-1.1,1.2-1.7c0.2-0.3,0.2-0.7,0.4-1.2c1.8,3.1,2.4,3.5,4.9,3.1c-0.2-0.7-0.4-1.4-0.7-2.1c0.5-0.4,1.1-0.7,1.5-1c1.2,1.3,2.3,2.6,3.5,3.7c1,1,1.9,0.8,2.2-0.8c0.1-0.6,0.6-1.2,0.9-1.8c2.2,1.6,5.8,0.9,8-1.3c-2.5-2.6-5.7-3.8-9-4.5c0.1-1,0.2-1.7,0.3-2.4c-1.1,0-2.2-0.2-3.2,0c-1.1,0.2-2.2,0.8-3.2,1.3c-0.1-0.2-0.2-0.4-0.3-0.6c0.8-0.4,1.6-0.8,2.4-1.2c-0.1-0.5-0.3-0.9-0.3-1.2c1.3-0.7,2.5-1.3,3.7-1.9c0-0.2,0-0.5-0.1-0.7c-1.9-0.4-3.7-0.8-5.5-1.1c0.1-2.6,0.3-2.6,3.1-1.4c1.4-0.9,2.6-1.8,3.9-2.6c0.3-0.2,0.9-0.6,0.9-0.8c-0.1-0.4-0.5-1-0.9-1.1c-1-0.4-2.1-0.6-3.1-0.8c-0.1-0.2-0.2-0.4-0.3-0.6c1.4-1.3,2.8-2.6,4.5-4.3c-1.6-0.3-2.9-0.5-4.4-0.7c0.6-1,1.3-1.9,1.8-2.9c0.2-0.4,0.1-1.1,0.1-1.6c-0.5,0.1-1.1,0.1-1.5,0.4c-1.1,0.8-2,1.8-3.1,2.8c-0.7-0.6-1.3-1.2-2.3-2.1c-0.9,1.8-1.9,3.4-2.6,5c-1.3,3.1-3.9,4.9-7,6.7c-0.1-1.1-0.2-1.7-0.2-2.4c-0.2-1.9-0.4-3.8-0.7-5.6c-0.5-2.5,0.4-3.9,3.1-4.3c0,0.5-0.1,1.1,0.1,1.4c0.2,0.3,1.1,0.7,1.2,0.6c1.1-1.2,2.4-1.5,4-1.2c0.3,0.1,0.7-0.3,1.2-0.5c-1.2-2.4-3.3-3.5-5.7-4.3c2.6-0.9,5.4,0.9,8.2-0.8c-1.6-0.9-2.8-1.6-4.2-2.4c1.1-1,2.3-2.1,3.5-3.1c-0.1-0.2-0.3-0.5-0.4-0.7c-1.9,0.8-3.8,1.6-5.9,2.4c-0.1-0.4-0.2-1-0.3-1.6c-0.2-0.1-0.3-0.2-0.5-0.3c-1.4,2.2-2.8,4.4-4.2,6.6c-1.8-5.8,3.6-8.5,5.2-13c-2.8-0.5-3.7,1.5-4.9,3.4c-1.6-2.9-0.2-6.8-3.2-8.7v10c0,0.1-0.3,0.1-0.4,0.2c-1.5-1.4-2.9-2.8-4.6-4.3c-0.8,2.6,0.8,3.9,1.9,5.2c2.1,2.3,2.8,5,2.5,8c0,0.4-0.2,0.7-0.8,1.2c-0.5-1.5-1-3.1-1.5-4.6c-0.1-0.4-0.1-0.8-0.2-1.2c-0.4-0.7-1-1.4-1.5-2.1c-0.5,0.7-1,1.3-1.7,2.4c-0.6-0.3-1.4-1-2.4-1.4c-0.5-0.3-1.2-0.2-1.8-0.3c0,0.7-0.2,1.5,0.1,2c1,1.6,2.2,3.1,3.2,4.6c-0.5,1.1-2.8,1.2-1.6,2.7c0.5,0.6,2.1,0.3,3.1,0.5c0.1-0.2,0.2-0.4,0.4-0.6c0.1,1,0.1,2.1,0.2,3.4c-1.6-0.7-2.8-1.3-4.3-1.9c-0.6,2.7,1.7,3.4,2.6,5c-0.5,0.1-1.2,0.1-1.4,0.4c-1.3,2-2.5,0.8-3.8,0.1c-2-1.1-3.9-2.2-6.1-3.5c-0.9,2.9,1,3.7,2.6,4.9c-0.8,0.3-1.5,0.5-2.2,0.8c-0.8,0.4-1.1,1.6-0.2,1.6c2.8-0.1,3.1,2.6,5.1,4c-1.3,0.3-2.3,0.5-3.3,0.9c-0.6,0.2-1,0.9-1.5,1.3c0.7,0.5,1.5,1.4,2.2,1.3c1.6-0.3,3-0.6,4.4,0.8c0.3,0.3,1.3-0.2,1.9-0.4c0.7-0.2,1.4-0.5,2.3-0.4c-0.7,0.7-1.4,1.5-2.1,2.2c0.1,0.2,0.1,0.4,0.2,0.7c1.2-0.1,2.3-0.3,3.4-0.4c0.2,0.5,0.5,2,0.7,2c1.5-0.1,3.2-0.2,3.8-2.6c0.5,1,0.7,1.5,1,2.1c0.6,1.3,0.2,1.9-1.2,2.1c-4.2,0.5-8.3,0.9-12-1.9c-0.9-0.7-2.1-1.4-3.6-0.2c0.9,0.8,1.7,1.5,2.5,2.2c-0.1,0.2-0.2,0.3-0.2,0.5c-2.4-1.1-4.7-2.3-7.1-3.5c-0.5-0.3-0.9-0.8-1.4-1c-0.7-0.3-1.6-0.5-2.2-0.3c-0.3,0.1-0.3,1.3-0.5,2.3c-1.3,0.2-3,0.4-4.7,0.7c-0.5,0.1-0.9,0.4-1.3,0.7c0.3,0.4,0.6,1.2,1,1.3c2.3,0.6,4.5,1.1,6.8,1.5c-0.2,0.2-0.7,0.5-1,1c-0.3,0.4-0.7,1.2-0.5,1.5c0.2,0.4,1.1,0.7,1.5,0.5c1-0.4,1.9-1,2.9-1.6c0.8-0.5,1.6-1,2.3-1.5c0.1,0.2,0.2,0.3,0.3,0.5c-0.9,0.7-1.9,1.4-2.8,2c0.5,1,0.8,1.8,1.4,2.6c0.2,0.3,0.9,0.7,1.2,0.5c2.2-1,4.3-2.1,6.7-2.9c-0.8,0.7-1.8,1.3-2.5,2c-0.6,0.6-0.9,1.4-1.3,2c0.8-0.1,1.7-0.1,2.5-0.2c0.2,0,0.5-0.2,0.8-0.4c0.1,0.6,0.2,1.1,0.3,1.8c0.4-0.1,0.7-0.1,0.8-0.3c1.5-2.3,4-2.2,6.2-2.6c2-0.4,3.5-1.3,5.2-3.8c0.2,0.1,0.3,0.1,0.5,0.2c-0.4,0.9-0.6,2.1-1.3,2.6c-3.2,2.2-6.5,4.3-9.8,6.3c-0.4,0.3-1.4-0.1-2-0.3c-1.9-0.8-3.7-1.6-5.5-2.5c-0.1,0.1-0.3,0.2-0.4,0.4c0.2,0.7,0.5,1.5,0.8,2.5c-2-0.6-4-1.1-6-1.7c0.1,2.2-1.3,2-2.7,1.8c-0.6-0.1-1.3-0.5-1.7-0.4c-0.8,0.3-1.4,1-2,1.5c0.4,0.5,0.9,0.9,1.5,1.6c-0.1,0.1-0.3,0.6-0.5,1.1c0.8,1,3.2-0.7,2.9,1.9c0.7,0,1.4,0.1,2.2,0.1c0.1,0.6,0.2,1.1,0.3,1.7c0.1-0.2,0.2-0.4,0.3-0.5c1.1,0.4,2.3,0.6,3.2,1.2c0.3,0.2,0.1,1.4-0.2,2.2c-2.3-2.2-4.7-1-7.2-0.5c1.1,1.4,2.9,2.7,1.2,4.9c-1.6-1-3.3-2-5.5-3.4c0.2,1.5,0.3,2.2,0.5,3.2c-2.3-0.3-4.4-0.5-6.4-0.8c-0.1,0.3-0.2,0.5-0.3,0.8c1.6,0.8,3.2,1.7,5,2.6c-0.1,0.2-0.2,0.8-0.4,1.4c2.8,0.6,5.5,1.4,7.5,3.7c0.4-0.4,0.9-0.8,1.5-1.3c2.7,2.7,5.4,5.5,8.1,8.2c-4.7,1.7-9.5,3.5-14.4-0.3c-0.1,0.9-0.2,1.2-0.2,1.6c0,0.3,0,0.6,0,0.9c-1.9,1.7-4.4-1.7-6.2,0.8c1.2,1.3,2.4,2.6,3.6,3.9c-0.1,0.2-0.3,0.3-0.4,0.5c0.7,0.1,1.4,0.2,2.1,0.2c0.7,2.6,1,2.8,4,1.9c-0.2,3.3,2.4,1.5,3.8,2c-1.1,1.8-5.3,2.6-7.5,1.5c-0.3-0.1-0.6-0.3-0.8-0.5c-1.2-0.9-2.3-1.1-2.6,0.7c-1.5,0-2.9,0-4.2,0c-0.1,0-0.2,0.2-0.5,0.5c0.7,0.4,1.2,0.7,1.8,1c0.9,0.5,1.8,1,2.2,2.2c0.3,0.7,2.1,0.9,3.3,1.3c0.1-0.2,0.2-0.4,0.3-0.6c0.2,0.7,0.4,1.4,0.6,2.1c0.6,0,1.2,0.1,1.9,0.1c0,0.5,0.1,0.9,0.1,1c2.9,2.3,4.3,0,6-1.5c1.8-1.6,2.9-1.5,4.2,0.1c-1,0.3-2.1,0.6-3.1,0.9c0.4,1,0.7,2.1,1.1,3.1c-4.4,3-9.5,3.8-14.8,4.2c-0.6,0.1-1.6,0.5-1.7,0.9c-0.4,1.5-1.4,1.8-2.6,1.8c-0.1-0.2-0.2-0.4-0.3-0.7c-0.3,0.1-0.6,0.1-0.9,0.2c0.3-1,0.6-2,0.9-3c-0.2-0.2-0.5-0.4-0.7-0.7c-1.9,3-4.1,4.9-8.7,3.6c5.1-3.3,2-7.2,2.2-10.8c0.1-0.8-0.3-1.6-0.4-2.6c-2,2.7-3.8,5.1-5.6,7.5c-0.6-1.6-0.9-3.4-0.2-4.8c0.9-1.9,2.5-3.4,4.4-5.9c-2.4,0.7-3.9,1.1-5.1,1.4c1.4-2.2,2.7-4.2,4-6.3c-0.2-0.2-0.4-0.3-0.6-0.5c-0.7,0.4-1.4,0.7-3,1.6c1-2.2,1.6-3.5,2.2-4.7c-0.6-0.7-1.3-1.5-1.7-1.9c-1,0.6-1.8,1.2-2.7,1.8c0.2,0,0.4,0.1,0.5,0.1c-0.6,1.1-1.1,2.3-1.7,3.4c-0.8-0.4-1.6-0.8-2.6-1.3c-0.3,0.2-0.9,0.7-1.6,1.2c-0.2-0.2-0.4-0.4-0.6-0.5c0.7-0.9,1.5-1.7,2.1-2.7c0.5-0.8,0.8-1.7,1.2-2.6c-2.6-0.9-1.2-3-1.3-4.6c-0.1-0.7-0.4-2.1-0.6-2.1c-2.1-0.1-1.4-1.4-1.3-2.6c0.1-1,0-2.1,0-3.4c-1.2,0.1-2.1,0.2-3.5,0.4c0.6-1.6,1.2-2.8,1.6-4.1c0.2-0.7,0.7-1.8,0.4-2.2c-0.5-0.6-1.6-0.8-2.9-1.4c-0.6-1.8-1.5-4-3-6.3c-2.4-3.7-3.1-8.5-4.4-12.9c-0.7-2.3-2.1-2.9-3.8-1.2c-1.2,1.2-2.2,2.7-3,4.2c-2.1,3.6-4.4,7.1-8.3,9.3c0.7,0.8,1.5,1.6,1.9,2.1c-1.5,3,0.6,4.8,2.1,6.9c-1.2,0.1-2.1,0.1-3,0.1c-0.4-1.5-0.8-2.9-1.2-4.3l-1.1,0.3c-0.3,3.3-0.6,6.6-0.9,10.5c-0.3,0.4-0.9,1.4-1.8,2.8c-0.8-2-1.6-3.7-2.4-5.5c-0.3,0-0.5,0.1-0.8,0.1c-0.2,2.6-0.3,5.1-0.6,8.2c0.7,1.2,1.9,3.1,3.1,5c-0.2,0.2-0.5,0.3-0.7,0.5c-2-0.6-4.1-1.3-6.6-2.1c0.3,2,0.6,3.6,0.9,5.6c-1.5-0.8-2.6-1.3-3.7-1.9c2.5,3.1,1.9,8.6,7.2,9.3c0,0.2,0,0.4-0.1,0.8c-2-0.2-3.9-0.4-5.9-0.7c-0.1,0.2-0.2,0.5-0.2,0.7c0.9,0.6,1.9,1.1,2.8,1.7c-0.6,0.3-1.3,0.6-1.9,0.9c0.1,0.2,0.1,0.5,0.2,0.5h6.1c-2.5,3-2.5,3.1-6,1.3c-0.9,1.3-1.8,2.7-2.8,4.2c-0.6-1.6-1-2.8-1.5-4c-5.5,2.9-4.7,6.5-1.2,10.3c-1.7,0.4-2.9,0.7-4,1c0,0.3,0,0.5-0.1,0.8c2,1,4.1,2,6.8,3.3c-0.9,1-1.8,3.1-3.1,3.4c-1.4,0.4-3.2-0.9-5.4-1.6c-0.4,0.3-1.5,1.1-2.8,2c-0.7-1.7-1.2-3-2-4.9c-0.9,1.1-1.7,2.1-2.5,3.1c-0.1-1.1-2.5-2.6-3.8-3.9c-1,0.9-1.7,1.6-2.5,2.3c0.3-1.8,1.5-3.4-0.2-5c-0.1-0.1,0.7-1.4,1-1.4c2,0.1,2-0.8,1.6-2.4c-0.4-1.8-0.3-3.7,2.2-4.2c-1.1-1.9-3.9-1.9-5.6-0.2c-1.1-0.8-2.1-1.5-3.4-2.4c0.2-0.4,0.4-1,0.6-1.5c1.9,0.5,3.6,1,5.4,1.5l0.4-0.6c-2.2-3.7-4.3-7.3-6.5-11.1c-0.1,0.1-0.6,0.2-1,0.4c-0.8-0.5-0.2-3.2,0.7-3.7c0.1-0.1,0.2-0.2,0.3-0.4c-1.3-3.7-2.1-4-5.6-2.9c-0.8,0.3-1.8-0.1-2.8-0.3c1-1.6,1.8-2.8,2.6-4c-0.2-0.3-0.3-0.6-0.5-0.9c-1,0.3-1.9,0.5-2.4,0.6c-1.6-0.5-3.1-1.4-4.7-1.9c-0.3,1.3-0.7,2-0.9,3h-4.6c0.1,1,0.2,2.5,0.3,3.6c0.2,0,0.5,0.2,0.7,0.2c-0.8,0.9-1.6,1.9-2.6,3c-0.6-1-1.2-1.8-2.1-3.2c-1.2,3-2.2,5.6-3.2,8.2c0,0-0.6-0.2-0.7-0.3c-1.8,1.1-3.3,2-4,2.4c0.6,2.2,1.1,3.7,1.3,5.3c0.1,0.5-1.5,1.2-1.4,1.6c0.8,2.8-0.8,2.7-2.6,2.5c-0.3,0-0.9,0.1-0.9,0.3c-0.2,1.6-1,2.3-2.7,2.6c-1.1,0.2-1.9,1.5-2.9,2.3c-0.4-0.8-0.8-1.6-1.2-2.5c-1.3,0.2-3.4-0.2-4,0.6c-0.6,0.7-0.6,1.9-0.6,3.1c-0.6,0.2-1.1,0.4-1.7,0.6c-0.6-1.1-1.2-2.1-1.8-3.2c-0.7,0.1-1.6,0.3-2.6,0.5c-0.1-0.6-0.2-1.1-0.3-1.9c-1.8,1-3.4,2.1-5.1,2.9c-2,1-3.8,0.3-5.6-0.7c0.5-0.8,0.9-1.5,1.5-2.3c-2.7-1.2-6.3,0.7-7.7-2.8c-0.6-1.6-1-3.3-1.5-5c0.3-0.1,0.5-0.1,0.8-0.2c0.1,0.5,0.1,1,0.3,1.4c0.4,1.2,0.7,2.5,1.3,3.6c0.3,0.6,1.1,0.9,1.6,1.3c0.4-0.6,0.8-1.1,1.2-1.7c0.2-0.3,0.2-0.7,0.4-1.2c1.8,3.1,2.4,3.5,4.9,3.1c-0.2-0.7-0.4-1.4-0.7-2.1c0.5-0.4,1.1-0.7,1.5-1c1.2,1.3,2.3,2.6,3.5,3.7c1,1,1.9,0.8,2.2-0.8c0.1-0.6,0.6-1.2,0.9-1.8c2.2,1.6,5.8,0.9,8-1.3c-2.5-2.6-5.7-3.8-9-4.5c0.1-1,0.2-1.7,0.3-2.4c-1.1,0-2.2-0.2-3.2,0c-1.1,0.2-2.2,0.8-3.2,1.3c-0.1-0.2-0.2-0.4-0.3-0.6c0.8-0.4,1.6-0.8,2.4-1.2c-0.1-0.5-0.3-0.9-0.3-1.2c1.3-0.7,2.5-1.3,3.7-1.9c0-0.2,0-0.5-0.1-0.7c-1.9-0.4-3.7-0.8-5.5-1.1c0.1-2.6,0.3-2.6,3.1-1.4c1.4-0.9,2.6-1.8,3.9-2.6c0.3-0.2,0.9-0.6,0.9-0.8c-0.1-0.4-0.5-1-0.9-1.1c-1-0.4-2.1-0.6-3.1-0.8c-0.1-0.2-0.2-0.4-0.3-0.6c1.4-1.3,2.8-2.6,4.5-4.3c-1.6-0.3-2.9-0.5-4.4-0.7c0.6-1,1.3-1.9,1.8-2.9c0.2-0.4,0.1-1.1,0.1-1.6c-0.5,0.1-1.1,0.1-1.5,0.4c-1.1,0.8-2,1.8-3.1,2.8c-0.7-0.6-1.3-1.2-2.3-2.1c-0.9,1.8-1.9,3.4-2.6,5c-1.3,3.1-3.9,4.9-7,6.7c-0.1-1.1-0.2-1.7-0.2-2.4c-0.2-1.9-0.4-3.8-0.7-5.6c-0.5-2.5,0.4-3.9,3.1-4.3c0,0.5-0.1,1.1,0.1,1.4c0.2,0.3,1.1,0.7,1.2,0.6c1.1-1.2,2.4-1.5,4-1.2c0.3,0.1,0.7-0.3,1.2-0.5c-1.2-2.4-3.3-3.5-5.7-4.3c2.6-0.9,5.4,0.9,8.2-0.8c-1.6-0.9-2.8-1.6-4.2-2.4c1.1-1,2.3-2.1,3.5-3.1c-0.1-0.2-0.3-0.5-0.4-0.7c-1.9,0.8-3.8,1.6-5.9,2.4c-0.1-0.4-0.2-1-0.3-1.6c-0.2-0.1-0.3-0.2-0.5-0.3c-1.4,2.2-2.8,4.4-4.2,6.6c-1.8-5.8,3.6-8.5,5.2-13c-2.8-0.5-4,1.5-5.3,3.4c-1.6-2.9,0.4-6.8-3.6-8.7v10c0,0.1,0.1,0.2-0.1,0.2c-1.5-1.4-2.7-2.8-4.4-4.3c-0.8,2.6,0.8,3.9,2,5.2c2.1,2.3,2.9,5,2.6,8c0,0.4-0.2,0.7-0.8,1.2c-0.5-1.5-1-3.1-1.5-4.6c-0.1-0.4-0.1-0.8-0.2-1.2c-0.4-0.7-1-1.4-1.4-2.1c-0.5,0.7-1,1.3-1.7,2.4c-0.6-0.3-1.4-1-2.4-1.4c-0.5-0.3-1.2-0.2-1.8-0.3c0,0.7-0.2,1.5,0.1,2c1,1.6,2.2,3.1,3.2,4.6c-0.5,1.1-2.8,1.2-1.6,2.7c0.5,0.6,2.1,0.3,3.1,0.5c0.1-0.2,0.2-0.4,0.4-0.6c0.1,1,0.1,2.1,0.2,3.4c-1.6-0.7-2.8-1.3-4.3-1.9c-0.6,2.7,1.7,3.4,2.6,5c-0.5,0.1-1.2,0.1-1.4,0.4c-1.3,2-2.5,0.8-3.8,0.1c-0.2-0.1-0.5-0.3-0.7-0.4c0.9-0.4,1.7-0.9,2.4-1.6c-2.5-2.6-5.7-3.8-9-4.5c0.1-1,0.2-1.7,0.3-2.4c-1.1,0-2.2-0.2-3.2,0c-1.1,0.2-2.2,0.8-3.2,1.3c-0.1-0.2-0.2-0.4-0.3-0.6c0.8-0.4,1.6-0.8,2.4-1.2c-0.1-0.5-0.3-0.9-0.3-1.2c1.3-0.7,2.5-1.3,3.7-1.9c0-0.2,0-0.5-0.1-0.7c-1.9-0.4-3.7-0.8-5.5-1.1c0.1-2.6,0.3-2.6,3.1-1.4c1.4-0.9,2.6-1.8,3.9-2.6c0.3-0.2,0.9-0.6,0.9-0.8c-0.1-0.4-0.5-1-0.9-1.1c-1-0.4-2.1-0.6-3.1-0.8c-0.1-0.2-0.2-0.4-0.3-0.6c1.4-1.3,2.8-2.6,4.5-4.3c-1.6-0.3-2.9-0.5-4.4-0.7c0.6-1,1.3-1.9,1.8-2.9c0.2-0.4,0.1-1.1,0.1-1.6c-0.5,0.1-1.1,0.1-1.5,0.4c-1.1,0.8-2,1.8-3.1,2.8c-0.7-0.6-1.3-1.2-2.3-2.1c-0.9,1.8-1.9,3.4-2.6,5c-1.3,3.1-3.9,4.9-7,6.7c-0.1-1.1-0.2-1.7-0.2-2.4c-0.2-1.9-0.4-3.8-0.7-5.6c-0.5-2.5,0.4-3.9,3.1-4.3c0,0.5-0.1,1.1,0.1,1.4c0.2,0.3,1.1,0.7,1.2,0.6c1.1-1.2,2.4-1.5,4-1.2c0.3,0.1,0.7-0.3,1.2-0.5c-1.2-2.4-3.3-3.5-5.7-4.3c2.6-0.9,5.4,0.9,8.2-0.8c-1.6-0.9-2.8-1.6-4.2-2.4c1.1-1,2.3-2.1,3.5-3.1c-0.1-0.2-0.3-0.5-0.4-0.7c-1.9,0.8-3.8,1.6-5.9,2.4c-0.1-0.4-0.2-1-0.3-1.6c-0.2-0.1-0.3-0.2-0.5-0.3c-1.4,2.2-2.8,4.4-4.2,6.6c-1.8-5.8,3.6-8.5,5.2-13c-2.8-0.5-4,1.5-5.3,3.4c-1.6-2.9,0.4-6.8-3.6-8.7v10c0,0.1,0.1,0.1-0.1,0.2c-1.5-1.4-2.7-2.8-4.4-4.3c-0.8,2.6,0.8,3.9,2,5.2c2.1,2.3,2.9,5,2.6,8c0,0.4-0.2,0.7-0.8,1.2c-0.5-1.5-1-3.1-1.5-4.6c-0.1-0.4-0.1-0.8-0.2-1.2c-0.4-0.7-1-1.4-1.4-2.1c-0.5,0.7-1,1.3-1.7,2.4c-0.6-0.3-1.4-1-2.4-1.4c-0.5-0.3-1.2-0.2-1.8-0.3c0,0.7-0.2,1.5,0.1,2c1,1.6,2.2,3.1,3.2,4.6c-0.5,1.1-2.8,1.2-1.6,2.7c0.5,0.6,2.1,0.3,3.1,0.5c0.1-0.2,0.2-0.4,0.4-0.6c0.1,1,0.1,2.1,0.2,3.4c-1.6-0.7-2.8-1.3-4.3-1.9c-0.6,2.7,1.7,3.4,2.6,5c-0.5,0.1-1.2,0.1-1.4,0.4c-1.3,2-2.5,0.8-3.8,0.1c-2-1.1-3.9-2.2-6.1-3.5c-0.9,2.9,1,3.7,2.6,4.9c-0.8,0.3-1.5,0.5-2.2,0.8c-0.8,0.4-1.1,1.6-0.2,1.6c2.8-0.1,3.1,2.6,5.1,4c-1.3,0.3-2.3,0.5-3.3,0.9c-0.6,0.2-1,0.9-1.5,1.3c0.7,0.5,1.5,1.4,2.2,1.3c1.6-0.3,3-0.6,4.4,0.8c0.3,0.3,1.3-0.2,1.9-0.4c0.7-0.2,1.4-0.5,2.3-0.4c-0.7,0.7-1.4,1.5-2.1,2.2c0.1,0.2,0.1,0.4,0.2,0.7c1.2-0.1,2.3-0.3,3.4-0.4c0.2,0.5,0.5,2,0.7,2c1.5-0.1,3.2-0.2,3.8-2.6c0.5,1,0.7,1.5,1,2.1c0.6,1.3,0.2,1.9-1.2,2.1c-4.2,0.5-8.3,0.9-12-1.9c-0.9-0.7-2.1-1.4-3.6-0.2c0.9,0.8,1.7,1.5,2.5,2.2c-0.1,0.2-0.2,0.3-0.2,0.5c-2.4-1.1-4.7-2.3-7.1-3.5c-0.5-0.3-0.9-0.8-1.4-1c-0.7-0.3-1.6-0.5-2.2-0.3c-0.3,0.1-0.3,1.3-0.5,2.3c-1.3,0.2-3,0.4-4.7,0.7c-0.5,0.1-0.9,0.4-1.3,0.7c0.3,0.4,0.6,1.2,1,1.3c2.3,0.6,4.5,1.1,6.8,1.5c-0.2,0.2-0.7,0.5-1,1c-0.3,0.4-0.7,1.2-0.5,1.5c0.2,0.4,1.1,0.7,1.5,0.5c1-0.4,1.9-1,2.9-1.6c0.8-0.5,1.6-1,2.3-1.5c0.1,0.2,0.2,0.3,0.3,0.5c-0.9,0.7-1.9,1.4-2.8,2c0.5,1,0.8,1.8,1.4,2.6c0.2,0.3,0.9,0.7,1.2,0.5c2.2-1,4.3-2.1,6.7-2.9c-0.8,0.7-1.8,1.3-2.5,2c-0.6,0.6-0.9,1.4-1.3,2c0.8-0.1,1.7-0.1,2.5-0.2c0.2,0,0.5-0.2,0.8-0.4c0.1,0.6,0.2,1.1,0.3,1.8c0.4-0.1,0.7-0.1,0.8-0.3c1.5-2.3,4-2.2,6.2-2.6c2-0.4,3.5-1.3,5.2-3.8c0.2,0.1,0.3,0.1,0.5,0.2c-0.4,0.9-0.6,2.1-1.3,2.6c-3.2,2.2-6.5,4.3-9.8,6.3c-0.4,0.3-1.4-0.1-2-0.3c-1.9-0.8-3.7-1.6-5.5-2.5c-0.1,0.1-0.3,0.2-0.4,0.4c0.2,0.7,0.5,1.5,0.8,2.5c-2-0.6-4-1.1-6-1.7c0.1,2.2-1.3,2-2.7,1.8c-0.6-0.1-1.3-0.5-1.7-0.4c-0.8,0.3-1.4,1-2,1.5c0.4,0.5,0.9,0.9,1.5,1.6c-0.1,0.1-0.3,0.6-0.5,1.1c0.8,1,3.2-0.7,2.9,1.9c0.7,0,1.4,0.1,2.2,0.1c0.1,0.6,0.2,1.1,0.3,1.7c0.1-0.2,0.2-0.4,0.3-0.5c1.1,0.4,2.3,0.6,3.2,1.2c0.3,0.2,0.1,1.4-0.2,2.2c-2.3-2.2-4.7-1-7.2-0.5c1.1,1.4,2.9,2.7,1.2,4.9c-1.6-1-3.3-2-5.5-3.4c0.2,1.5,0.3,2.2,0.5,3.2c-2.3-0.3-4.4-0.5-6.4-0.8c-0.1,0.3-0.2,0.5-0.3,0.8c1.6,0.8,3.2,1.7,5,2.6c-0.1,0.2-0.2,0.8-0.4,1.4c2.8,0.6,5.5,1.4,7.5,3.7c0.4-0.4,0.9-0.8,1.5-1.3c2.7,2.7,5.4,5.5,8.1,8.2c-4.7,1.7-9.5,3.5-14.4-0.3c-0.1,0.9-0.2,1.2-0.2,1.6c0,0.3,0,0.6,0,0.9c-1.9,1.7-4.4-1.7-6.2,0.8c1.2,1.3,2.4,2.6,3.6,3.9c-0.1,0.2-0.3,0.3-0.4,0.5c0.7,0.1,1.4,0.2,2.1,0.2c0.7,2.6,1,2.8,4,1.9c-0.2,3.3,2.4,1.5,3.8,2c-1.1,1.8-5.3,2.6-7.5,1.5c-0.3-0.1-0.6-0.3-0.8-0.5c-1.2-0.9-2.3-1.1-2.6,0.7c-1.5,0-2.9,0-4.2,0c-0.1,0-0.2,0.2-0.5,0.5c0.7,0.4,1.2,0.7,1.8,1c0.9,0.5,1.8,1,2.2,2.2c0.3,0.7,2.1,0.9,3.3,1.3c0.1-0.2,0.2-0.4,0.3-0.6c0.2,0.7,0.4,1.4,0.6,2.1c0.6,0,1.2,0.1,1.9,0.1c0,0.5,0.1,0.9,0.1,1c2.9,2.3,4.3,0,6-1.5c1.8-1.6,2.9-1.5,4.2,0.1c-1,0.3-2.1,0.6-3.1,0.9c0.4,1,0.7,2.1,1.1,3.1c-3.9,2.6-8.3,3.5-12.9,4c-0.2-0.2-0.4-0.4-0.7-0.6c-0.2,0.2-0.3,0.5-0.5,0.7c-0.3,0-0.5,0.1-0.8,0.1c-0.6,0.1-1.6,0.5-1.7,0.9c-0.4,1.6-1.5,1.8-2.8,1.9c-1.2,0.1-2.5,0.2-3.8,0.3c0.1,0.2,0.3,0.5,0.4,0.7c-0.4-0.1-0.8-0.2-1.3-0.3c6.1-3.9,2.3-8.7,2.6-12.9c0.1-0.9-0.3-1.9-0.5-3.1c-2.4,3.2-4.6,6.1-6.7,9c-0.7-1.9-1-4.1-0.2-5.7c1.1-2.2,3-4.1,5.3-7c-2.9,0.8-4.6,1.3-6,1.7c1.7-2.6,3.2-5,4.8-7.5c-0.2-0.2-0.5-0.4-0.7-0.6c-0.8,0.4-1.7,0.9-3.6,1.9c1.2-2.6,1.9-4.1,2.6-5.6c-0.8-0.9-1.6-1.8-2-2.3c-1.2,0.8-2.2,1.4-3.2,2.1c0.2,0.1,0.4,0.1,0.6,0.2c-0.7,1.4-1.3,2.7-2,4.1c-0.9-0.5-1.9-1-3-1.6c-0.3,0.3-1.1,0.9-1.9,1.5c-0.3-0.2-0.5-0.4-0.8-0.7c0.9-1.1,1.8-2.1,2.5-3.2c0.6-1,0.9-2.1,1.4-3.1c-3.2-1.1-1.4-3.6-1.6-5.5c-0.1-0.9-0.4-2.5-0.8-2.5c-2.5-0.2-1.6-1.7-1.5-3.1c0.1-1.3,0-2.5,0-4c-1.4,0.2-2.5,0.3-4.2,0.5c0.8-1.9,1.4-3.4,1.9-4.9c0.3-0.9,0.8-2.2,0.4-2.7c-0.6-0.8-1.9-1-3.4-1.7c-0.7-2.2-1.8-4.8-3.6-7.5c-2.8-4.4-3.7-10.2-5.2-15.4c-0.8-2.8-2.5-3.5-4.5-1.5c-1.5,1.4-2.6,3.3-3.6,5.1c-2.5,4.4-5.2,8.5-9.9,11.1c0.9,1,1.7,1.9,2.3,2.5c-1.8,3.6,0.7,5.8,2.6,8.3c-1.4,0.1-2.5,0.1-3.5,0.2c-0.5-1.8-1-3.4-1.5-5.1l-1.3,0.4c-0.3,4-0.7,7.9-1.1,12.5c-0.3,0.5-1.1,1.7-2.2,3.4c-1-2.3-1.9-4.5-2.9-6.6c-0.3,0-0.6,0.1-0.9,0.1c-0.2,3.1-0.4,6.1-0.7,9.8c0.9,1.4,2.3,3.7,3.7,6c-0.3,0.2-0.6,0.4-0.9,0.6c-2.4-0.8-4.9-1.5-7.9-2.5c0.4,2.4,0.7,4.3,1.1,6.7c-1.8-0.9-3.1-1.6-4.5-2.3c1.1,1.4,1.8,3.2,2.4,4.9c-2.8-1.4-6-2.2-7.5-1.6c-1.9-1-3.2-1.6-4.5-2.3c-1.3-1.4-3.2-2.7-2.8-5.7c0.2-1.4-2.9-3.3-4.6-4.9c-1.2,1.1-2.1,1.9-3,2.7c0.4-2.2,1.8-4-0.3-5.9c-0.1-0.1,0.8-1.7,1.2-1.7c2.4,0.1,2.4-0.9,1.9-2.9c-0.5-2.2-0.3-4.4,2.6-5c-1.3-2.3-4.6-2.3-6.7-0.2c-1.3-0.9-2.5-1.8-4-2.9c0.2-0.4,0.5-1.3,0.7-1.8c2.2,0.6,4.3,1.2,6.4,1.8l0.5-0.7c-2.6-4.4-5.2-8.7-7.8-13.2c-0.2,0.1-0.7,0.3-1.2,0.4c-0.9-0.6-0.2-3.8,0.8-4.4c0.2-0.1,0.3-0.3,0.4-0.4c-1.5-4.4-2.5-4.8-6.7-3.5c-1,0.3-2.2-0.2-3.4-0.3c1.2-1.9,2.2-3.3,3.1-4.8c-0.2-0.3-0.4-0.7-0.6-1c-1.1,0.3-2.3,0.6-2.9,0.8c-1.9-0.6-3.7-1.7-5.6-2.4c-0.4,1.6-0.8,3.4-1.1,3.4h-5.5c0.1,2,0.2,3.1,0.4,4.4c0.3,0,0.6,0.3,0.9,0.3c-0.9,1.1-1.9,2.3-3.1,3.7c-0.8-1.2-1.4-2.1-2.5-3.8c-1.4,3.5-2.6,6.7-3.9,9.9c0,0-0.7-0.3-0.9-0.4c-2.2,1.3-3.9,2.3-4.8,2.9c0.7,2.6,1.3,4.4,1.5,6.3c0.1,0.6-1.8,1.5-1.6,1.9c1,3.3-0.9,3.2-3.2,3c-0.4,0-1.1,0.2-1.1,0.3c-0.3,1.9-1.2,2.7-3.2,3.1c-1.3,0.3-2.3,1.8-3.5,2.8c-0.5-1-0.9-1.9-1.4-3c-1.6,0.2-4-0.2-4.8,0.7c-1,1.2-0.6,3.5-0.8,5.3c-4.9,0.4-5.4,1-3.2,5.2c-1.2,0.2-2.5,0.1-3.2,0.7c-1.5,1.1-3.8,2.8-3.7,4c0.3,3.1-1.4,4.7-3.3,6.2c1.9,2.1,4.8,2.4,6.1,0.4c2.3-3.8,4.3-1.9,6.7-0.4c0.6,0.4,1.2,0.5,1.2,0.5v3c0,0.1-0.9,0.4-2.2,1c1.2,0.8,2,1.3,2.1,1.4c0,1.1-0.2,1.9,0.1,2.6c0.5,1.2,1.3,2.2,1.9,3.4c-0.1,0.3-0.3,0.6-0.4,0.9c-1.1-0.3-2.2-0.7-3.3-1c-0.3-0.1-0.8,0-1.1,0.2c-0.6,0.4-1.2,0.8-1.9,1c-2.5-1.2-4.6-2.3-7.1-3.6c-1.7,0.3-4.2,0.8-7.3,1.3c1.3-1.4,2.2-2.3,3.6-3.8c-1.8,0.4-2.9,0.7-4.3,1.1c0.5-1.1,0.8-1.8,1.1-2.5c-0.1-0.2-0.2-0.4-0.3-0.6c-3.6,3-7.6,4.8-12.3,3.8c-4.4-0.9-9-1.3-10.2-7.4c2.6,3.3,6.2,1.6,9.3,3c0.3-1,0.5-1.7,0.8-2.5c1.6,0.8,3.2,1.4,5,2.2c0.1-1,0.1-1.6,0.2-2.6h9.7c-0.7-2-1.1-1.8-1.5-2.7c1-0.5,2-1,3.2-1.6c-0.6-0.5-0.9-0.8-1.3-1.2c2.3-1.6,4.7-3.2,7.4-5.1c-3.1-0.9-5.6-1.7-8.4-2.5c0-0.2,0.1-0.9,0.3-1.7c-3.6,0.9-6.9,1.7-10.4,2.5c0.5-1.8,0.9-3.1,1.3-4.5c-0.2-0.2-0.4-0.4-0.6-0.6c-4.2,2.7-8.4,3.3-13.1,1.7c-4.3-1.5-8.4-3.3-12.2-6.2c3.4-0.6,6.2,0.4,9,2c0.2-1.1,0.4-1.9,0.6-2.7c2,0.2,3.7,3.9,6.1,0.4c0.5,2.2,2.5,2.5,4.3,2.5c1.4,0,2.9-2.8,2.8-4.7c1.2,0.3,2.4,0.5,3.9,0.8c-0.3-1-0.5-1.6-0.7-2.3c0.4-0.2,0.8-0.5,1.2-0.7c-0.5-0.8-0.9-1.6-1.6-2.8c2.5,0.5,4,3.3,6.6,1.6c-0.2-0.6-0.3-1.3-0.5-1.9c2.1-1,4-2.3,6-3.3c-0.1-0.2-0.1-0.9-0.2-0.9h-6.6c0.3-1,0.5-1.3,0.8-2.5c-2.2,1.2-4.1,2.4-6,3.4c-0.5-0.8-1-1.3-1.6-2.3c0.2-0.4,0.6-1.1,1-1.8c-4.2,1.7-7.4,6.3-12.8,3.6c-3-1.5-6.1-2.8-9.1-4.4c-0.7-0.4-1.1-1.4-1.6-2.1c0.2-0.3,0.4-0.5,0.5-0.8c1.1,0.6,2.2,1.2,3.3,1.8c0.7,0.4,1.5,0.6,2.3,0.8c0.1,0,0.4-1,0.6-1.6c1.1,0.8,2.1,1.7,3.3,2.3c1.8,0.9,2.4,0.4,2.4-1.5c0-0.9,0.4-1.7,0.6-2.6c0.7,0.4,1.5,0.7,2.2,1.1c1.6,0.8,3.2,1.5,4.8,2.3c0.2-0.3,0.4-0.6,0.6-0.9c-1.3-1.3-2.5-2.7-4.3-4.5c2.9,1.2,5.3,2.2,7.6,3.2c0.1-0.3,0.2-0.5,0.4-0.8c-0.4-0.5-0.9-1-1.5-1.7c1.6-0.6,3-1.1,4.5-1.6c-0.5-0.5-0.9-1-1.4-1.5c2.1-0.6,4.9,0.8,6.1-2.7c-1.1-0.3-2.1-0.6-3.1-0.8c-1.4-0.3-3.2,0.5-4-1.6c-0.1-0.3-1.5-0.2-2.2,0c-1.9,0.6-3.8,1.4-5.7,2.1c-0.7-1.3-1.4-2.5-2.2-3.9c-0.8,0.2-1.9,0.3-3.1,0.6c-0.1-0.7-0.2-1.4-0.4-2.3c-2.1,1.2-4.1,2.5-6.1,3.5c-2.4,1.2-4.5,0.3-6.7-0.9c0.6-0.9,1.1-1.7,1.8-2.7c-3.2-1.4-7.5,0.9-9.1-3.4c-0.7-1.9-1.2-4-1.8-5.9c0.3-0.1,0.6-0.2,0.9-0.2c0.1,0.6,0.1,1.2,0.3,1.7c0.5,1.5,0.9,3,1.6,4.3c0.3,0.7,1.3,1,1.9,1.5c0.5-0.7,1-1.4,1.4-2.1c0.2-0.4,0.3-0.9,0.5-1.4c2.1,3.7,2.9,4.2,5.8,3.7c-0.3-0.8-0.5-1.6-0.8-2.6c0.6-0.4,1.3-0.9,1.8-1.2c1.4,1.5,2.7,3,4.2,4.4c1.2,1.1,2.2,1,2.6-0.9c0.1-0.8,0.7-1.4,1.1-2.2c2.6,1.9,6.9,1.1,9.5-1.5c-3-3.1-6.8-4.6-10.8-5.4c0.2-1.2,0.3-2,0.4-2.9c-1.3,0-2.6-0.3-3.9,0c-1.3,0.3-2.6,1-3.8,1.5c-0.1-0.3-0.2-0.5-0.3-0.8c0.9-0.5,1.9-1,2.9-1.5c-0.2-0.6-0.3-1.1-0.4-1.5c1.6-0.8,3-1.6,4.4-2.3c0-0.3,0-0.5-0.1-0.8c-2.2-0.5-4.4-0.9-6.6-1.4c0.1-3.1,0.4-3.1,3.8-1.7c1.6-1.1,3.1-2.1,4.6-3.1c0.4-0.3,1.1-0.7,1.1-1c-0.1-0.5-0.6-1.2-1-1.4c-1.2-0.5-2.5-0.7-3.7-1c-0.1-0.2-0.2-0.5-0.4-0.7c1.7-1.6,3.3-3.1,5.4-5.1c-1.9-0.3-3.4-0.6-5.3-0.8c0.7-1.2,1.6-2.3,2.2-3.5c0.3-0.5,0.1-1.3,0.1-1.9c-0.6,0.1-1.4,0.1-1.8,0.5c-1.3,1-2.4,2.2-3.7,3.3c-0.9-0.8-1.5-1.4-2.8-2.5c-1.1,2.2-2.3,4-3.1,6c-1.6,3.8-4.7,5.8-8.4,8.1c-0.1-1.3-0.2-2.1-0.3-2.8c-0.3-2.2-0.5-4.5-0.9-6.7c-0.6-3,0.5-4.7,3.7-5.2c0,0.6-0.1,1.3,0.2,1.7c0.3,0.4,1.3,0.9,1.4,0.7c1.3-1.5,2.9-1.8,4.8-1.4c0.4,0.1,0.8-0.3,1.4-0.6c-1.4-2.9-3.9-4.2-6.8-5.1c3.1-1.1,6.5,1.1,9.9-1c-1.9-1.1-3.4-1.9-5.1-2.9c1.4-1.2,2.8-2.5,4.2-3.7c-0.2-0.3-0.3-0.6-0.5-0.8c-2.3,0.9-4.6,1.9-7,2.9c-0.1-0.5-0.2-1.2-0.3-1.9c-0.2-0.1-0.4-0.2-0.6-0.3c-1.7,2.6-3.4,5.2-5,7.9c-2.1-7,4.3-10.2,6.3-15.6c-3.4-0.6-4.6,1.8-6.1,4.1c-1.9-3.5,1-8.1-4-10.5v11.9c0,0.1-0.1,0.2-0.3,0.3c-1.8-1.6-3.4-3.3-5.4-5.2c-0.9,3.1,0.9,4.7,2.3,6.2c2.6,2.8,3.4,6,3.1,9.6c0,0.4-0.2,0.8-0.9,1.4c-0.6-1.8-1.2-3.7-1.8-5.5c-0.1-0.4-0.1-1-0.3-1.4c-0.5-0.9-1.1-1.7-1.7-2.6c-0.6,0.8-1.2,1.6-2.1,2.8c-0.7-0.4-1.7-1.2-2.8-1.7c-0.6-0.3-1.5-0.3-2.2-0.4c0,0.8-0.3,1.8,0.1,2.4c1.2,1.9,2.6,3.7,3.8,5.5c-0.6,1.3-3.4,1.4-1.9,3.3c0.6,0.7,2.5,0.4,3.7,0.5c0.1-0.2,0.3-0.4,0.4-0.7c0.1,1.2,0.2,2.5,0.3,4.1c-1.9-0.9-3.3-1.5-5.1-2.3c-0.7,3.2,2,4.1,3.2,6c-0.6,0.2-1.4,0.1-1.7,0.5c-1.5,2.3-3,0.9-4.6,0.1c-2.3-1.3-4.7-2.7-7.3-4.2c-1,3.5,1.2,4.4,3.1,5.9c-1,0.4-1.8,0.6-2.6,1c-1,0.5-1.3,1.9-0.2,1.9c3.4-0.1,3.7,3.1,6.1,4.7c-1.5,0.4-2.8,0.6-3.9,1c-0.7,0.3-1.2,1-1.7,1.6c0.9,0.5,1.8,1.7,2.6,1.5c1.9-0.4,3.6-0.7,5.2,0.9c0.3,0.3,1.5-0.2,2.3-0.4c0.8-0.2,1.6-0.6,2.7-0.4c-0.8,0.9-1.7,1.8-2.5,2.7c0.1,0.3,0.1,0.5,0.2,0.8c1.4-0.2,2.8-0.3,4.1-0.5c0.2,0.6,0.6,2.4,0.8,2.4c1.8-0.1,3.8-0.2,4.6-3.2c0.6,1.2,0.9,1.8,1.2,2.5c0.7,1.5,0.3,2.3-1.5,2.5c-5,0.6-9.9,1.1-14.3-2.2c-1.1-0.8-2.5-1.7-4.3-0.2c1.1,0.9,2.1,1.8,3,2.6c-0.1,0.2-0.2,0.4-0.3,0.6c-2.8-1.4-5.6-2.7-8.4-4.1c-0.6-0.3-1.1-1-1.7-1.2c-0.8-0.3-1.9-0.6-2.6-0.3c-0.4,0.2-0.4,1.5-0.6,2.8c-1.6,0.2-3.6,0.5-5.6,0.8c-0.6,0.1-1,0.5-1.6,0.8c0.4,0.5,0.7,1.4,1.2,1.5c2.7,0.7,5.4,1.3,8.1,1.8c-0.2,0.2-0.8,0.6-1.2,1.2c-0.4,0.5-0.8,1.4-0.6,1.8c0.3,0.4,1.3,0.8,1.8,0.6c1.2-0.5,2.3-1.2,3.5-1.9c0.9-0.6,1.9-1.2,2.8-1.8c0.1,0.2,0.3,0.4,0.4,0.6c-1.1,0.8-2.3,1.6-3.3,2.4c0.6,1.2,1,2.2,1.6,3.1c0.3,0.4,1.1,0.8,1.4,0.6c2.6-1.2,5.2-2.5,8.1-3.5c-1,0.8-2.1,1.5-3,2.4c-0.7,0.7-1.1,1.6-1.6,2.4c1-0.1,2-0.1,3-0.2c0.3,0,0.6-0.3,1-0.5c0.1,0.7,0.2,1.3,0.4,2.1c0.4-0.2,0.9-0.2,1-0.4c1.8-2.7,4.8-2.6,7.4-3.1c2.4-0.4,4.1-1.5,6.2-4.5c0.2,0.1,0.4,0.2,0.6,0.3c-0.5,1.1-0.7,2.5-1.6,3.1c-3.8,2.7-7.7,5.1-11.7,7.5c-0.5,0.3-1.6-0.1-2.4-0.4c-2.2-0.9-4.4-2-6.6-2.9c-0.2,0.1-0.3,0.3-0.5,0.4c0.3,0.9,0.6,1.8,1,3c-2.4-0.7-4.7-1.3-7.2-2c0.1,2.6-1.5,2.4-3.2,2.1c-0.7-0.1-1.5-0.7-2-0.4c-0.9,0.4-1.6,1.2-2.4,1.9c0.5,0.6,1.1,1.1,1.8,1.9c-0.1,0.2-0.4,0.7-0.7,1.3c0.9,1.2,3.9-0.8,3.4,2.3c0.9,0.1,1.6,0.1,2.6,0.2c0.1,0.7,0.3,1.4,0.4,2.1c0.1-0.2,0.2-0.4,0.3-0.7c1.3,0.4,2.7,0.7,3.9,1.4c0.4,0.2,0.1,1.6-0.2,2.7c-2.8-2.6-5.6-1.2-8.6-0.6c1.3,1.7,3.4,3.2,1.5,5.9c-2-1.2-3.9-2.4-6.5-4c0.3,1.7,0.4,2.7,0.6,3.9c-2-0.2-3.9-0.5-5.8-0.7c0.8-0.9,1.6-1.9,2.5-3c-3.2,0.9-5,1.4-6.6,1.8c1.8-2.8,3.5-5.5,5.2-8.2c-0.2-0.2-0.5-0.4-0.8-0.6c-0.9,0.5-1.8,1-3.9,2.1c1.3-2.8,2.1-4.5,2.9-6.2c-0.8-1-1.7-2-2.2-2.5c-1.3,0.8-2.4,1.6-3.5,2.3c0.2,0.1,0.5,0.1,0.7,0.2c-0.7,1.5-1.5,3-2.2,4.4c-1-0.5-2.1-1.1-3.3-1.7c-0.4,0.3-1.2,0.9-2,1.6c-0.3-0.2-0.5-0.5-0.8-0.7c0.9-1.2,2-2.3,2.8-3.5c0.7-1,1-2.3,1.5-3.4c-3.4-1.2-1.5-3.9-1.7-6c-0.1-1-0.5-2.7-0.8-2.7c-2.7-0.2-1.8-1.9-1.7-3.3c0.1-1.4,0-2.7,0-4.4c-1.5,0.2-2.7,0.3-4.6,0.5c0.8-2.1,1.6-3.7,2.1-5.4c0.3-1,0.9-2.4,0.5-2.9c-0.7-0.8-2.1-1.1-3.7-1.8c-0.7-2.4-2-5.2-3.9-8.2c-3.1-4.8-4-11.1-5.7-16.8c-0.9-3-2.7-3.8-4.9-1.6c-1.6,1.6-2.8,3.6-3.9,5.5c-1.6,2.9-3.4,5.6-5.6,8v15.8c0,0,0.1,0.1,0.1,0.1c0,0-0.1,0-0.1,0v188.3c0.1,0,0.1-0.1,0.2-0.1v319.6h800V307.7c0.5,0,0.8,0,1-0.1v-44.2c-1-0.5-2.1-0.9-3.1-1.4c-1.8-0.8-3.6-1.9-5.3-3c-0.8-0.5-1.4-1.3-2-2.2c2.2,0.6,3.6,4,6.5,1.3c1.3,1,1.9,2,3.9,3.2v-24c-4.2-1.3-8.4-2.6-12.2-5.8c3.3-0.8,5.6-0.8,8.3,0c1.3,0.4,2.6,0.6,3.9,0.8v-41c-0.5-0.3-1-0.5-1.4-0.8c0.5,0,1,0,1.4-0.1v-14c-0.2-0.4-0.4-0.8-0.6-1.3c0.2,0,0.4,0.1,0.6,0.1v-7.6c-5.5,0.3-10.9-0.2-16.3-1.7c0.9-1.3,1.6-2.3,2.3-3.3c3.8,1.9,3.8,1.9,12.4-0.9c-1.9-1.3-3.5-2.3-5-3.4c0.2-0.3,0.4-0.6,0.6-0.9c2,0.1,3.9,0.3,6,0.5V145c-1.4,0.3-3.1,0.6-4.9,0.9c1.5-1.6,2.5-2.6,4-4.2c-2,0.5-3.2,0.8-4.8,1.2c0.5-1.2,0.9-2,1.2-2.8c-0.1-0.2-0.2-0.4-0.3-0.6c-4.1,3.4-8.4,5.4-13.7,4.3c-4.9-1-10.1-1.5-11.4-8.3c2.9,3.7,7,1.8,10.3,3.3c0.3-1.1,0.6-1.9,0.9-2.8c1.8,0.9,3.5,1.6,5.5,2.5c0.1-1.1,0.1-2.8,0.2-2.8h10.8c-0.8-2-1.2-2.1-1.7-3.1c1.1-0.6,2.2-1.1,3.6-1.8c-0.6-0.6-1-0.9-1.5-1.3c0.6-0.4,1.2-0.8,1.8-1.3v-6.4c-1-0.3-2-0.6-3-0.9c0-0.3,0.2-1,0.3-1.9c-4,1-7.7,1.9-11.6,2.8c0.6-2,1-3.5,1.4-5c-0.2-0.2-0.5-0.5-0.7-0.7c-4.6,3-9.4,3.6-14.6,1.9c-4.8-1.7-9.4-3.7-13.6-7c3.8-0.7,6.9,0.4,10,2.3c0.3-1.2,0.5-2.1,0.6-3c2.3,0.2,4.1,4.4,6.8,0.5c0.6,2.5,2.8,2.8,4.8,2.8c1.5,0,3.2-3.1,3.2-5.2c1.4,0.3,2.7,0.6,4.3,0.9c-0.3-1.1-0.6-1.8-0.8-2.6c0.5-0.3,0.9-0.5,1.4-0.8c-0.5-0.9-1-1.8-1.7-3.2c2.8,0.5,4.5,3.7,7.4,1.7c-0.2-0.7-0.4-1.5-0.6-2.2c2.2-1.1,4.3-2.4,6.4-3.4V97.8z M736.3,41c4-0.5,6.9,2.2,6.8,5.8C740.7,44.7,738.5,42.8,736.3,41z M743.5,38c-1.6-3.6-3-6.6-4.4-9.6C742.3,30.6,744.4,33.3,743.5,38z M580.1,132.8c3-0.4,5.2,1.7,5.1,4.3C583.4,135.5,581.8,134.2,580.1,132.8z M585.5,130.6c-1.2-2.7-2.2-4.9-3.3-7.2C584.6,125,586.2,127,585.5,130.6z M334.8,164.3c3-0.4,5.2,1.7,5.1,4.3C338.1,167.1,336.4,165.7,334.8,164.3z M340.2,162.1c-1.2-2.7-2.2-4.9-3.3-7.2C339.3,156.5,340.8,158.5,340.2,162.1z M79.2,140.9c3.5-0.5,6.2,2,6.1,5.2C83.2,144.3,81.2,142.6,79.2,140.9z M85.7,138.3c-1.5-3.2-2.7-5.9-3.9-8.6C84.6,131.6,86.5,134,85.7,138.3z M40.5,196.5c0.5-1.1,1.3-2.2,2.2-3.3c1.2,0.6,2.5,1.3,3.8,2c-2,2.7-3.9,5.1-5.7,7.6C40,200.7,39.7,198.3,40.5,196.5z M54.9,225c0.9-0.4,1.8-0.8,2.7-1.1c0.2,0,0.4,0.1,0.5,0.1c-0.5,0.8-1.6,1.5-2.9,1.9C55.2,225.6,55,225.3,54.9,225z M60.2,234.6c-0.1,0-0.2,0.1-0.3,0.1c0.1,0.2,0.1,0.4,0.2,0.5c-0.1,0.7-0.2,1.5-0.3,2.2c-1.1-0.4-2.6-0.9-4.1-1.4c1.1-0.6,2-1.7,3-2.6c0.7-0.6,1.3-1,1.9-1.2C60.4,233,60.3,233.8,60.2,234.6z M59,212.3c-0.3-0.6-0.6-1.3-0.9-1.9c-0.4,0.1-0.8,0.1-1.2,0.2c0.4-1.3,0.8-2.6,1.1-3.9c-0.3-0.3-0.6-0.6-0.9-0.9c-1.4,2.3-3.1,4.2-5.4,4.9c-0.5-0.3-1-0.6-1.5-1c-0.1,0.6-0.1,1-0.2,1.3c-1.2,0.1-2.6-0.1-4.2-0.6c5.9-3.8,3.3-8.4,2.9-12.7c2.7,0.7,5.2,1.8,7.3,4c0.5-0.4,1.1-1,1.8-1.6c3.2,3.3,6.4,6.5,9.7,9.8C64.6,211.1,61.8,212.1,59,212.3z M76.6,188.6c-2.9,0.6-5.9,1.1-8.8,1.3c-2,0.1-2.9-1.5-2.4-4.3c2.8,1.8,5.7,4.8,8.9,0.1c0.7,2,0.7,2,4.4,1.5C78,187.6,77.4,188.4,76.6,188.6z M92.8,157.4c1.9,0.1,3.6,0.2,6,0.4C96.2,159.6,94.5,159.2,92.8,157.4zM93.1,149.8c2.9,0.5,4.2-1.5,6-3c0.4-0.4,1.1-0.5,1.6-0.8c0.2,0.4,0.3,0.7,0.5,1.1c-3.1,1.9-6.2,3.8-9.3,5.8C90.8,150.9,91.3,149.5,93.1,149.8z M92.2,179.4V173c1,0,0.9,0,1.1,0c0.1,2.1,0,4.2,0.1,6.3C93.1,179.3,93.2,179.3,92.2,179.4zM131,253.7c-0.2,0.4-2,0-3.4,0c0,0.1,0,0.2,0,0.2c-1.6-0.3-3.2-0.6-4.8-1.1c0.8-1.2,1.4-2.1,2-3c3.4,1.7,3.4,1.7,11.2-0.8c-1.7-1.2-3.1-2.1-4.5-3c0.2-0.3,0.3-0.5,0.5-0.8c1.9,0.1,3.9,0.3,5.9,0.4c0.4,1,0.9,2,1.3,2.9C136.6,249.6,132.7,249.7,131,253.7zM168.6,213.1c-1.1,1-2.1,2.7-3.2,2.7c-1.5,0-3-1.2-4.5-2C162.1,211,165.4,210.7,168.6,213.1z M166.2,236.1v1.7c-2-0.3-4.3-0.5-6.4-0.7c-0.5-0.6-1-1.4-2-2.6c1.1-1.5,2.5-3.3,3.9-5.3c0.8,2.2,0.8,3.9,1.6,4.3c1.7,0.8,3.7,1,5.4,1.4C168.3,235,167.2,235.6,166.2,236.1z M179.7,231.2c3.9-0.2,3.1,3.5,3.6,5.8c-0.6,1.1-1.3,2.3-2.2,3.7c-1.4-2.3-2.9-4.5-4.3-6.8c-0.8,0.7-1.5,1.3-2.5,2.2C175.7,232.8,176.8,231.4,179.7,231.2z M176.4,257.9c1.1-1.5,2.1-2.9,3.2-4.4c1,0.6,2,1.1,3.2,1.8c-0.9,0.7-1.5,1.3-2.4,2c1,0.7,1.9,1,2.5,1.6c0.6,0.6,1.1,1.4,2.1,2.6C181.7,260.2,179.1,259,176.4,257.9z M198.1,284.6c0.9-0.4,1.8-0.7,2.8-0.9c0.1,0.1,0.2,0.2,0.3,0.3c0.5-0.3,1.1-0.5,1.6-0.8c0.1,0.2,0.1,0.5,0.2,0.7c-3,1.4-5.3,4.3-8.8,4.4c-0.2-0.4-0.4-0.8-0.6-1.2C195.1,286.3,196.5,285.3,198.1,284.6z M201,290.7c-0.3,0.5-0.8,1.4-1.3,2.3c-1.7,0.4-3.6,0.9-5.6,1.3c-0.1-0.3-0.2-0.6-0.3-0.9c1-0.7,2.9-2,2.8-2.2c-1.2-2.5,1.2-2.5,2.1-3.2c1-0.7,2.1-1.4,3.1-2c0.4,0.7,0.9,1.4,1.4,2.1c-1.4,0.2-2.6,0.3-3.7,0.4C199.9,289.4,200.5,290,201,290.7z M206.2,226.4c-2.5-1.1-4.7-2-7-2.9c1.3-0.8,2.2-1.3,4.1-2.4c-1.7-0.9-2.7-1.5-3.8-2.1c0.2-0.2,0.4-0.4,0.6-0.7c0.7,0.3,1.4,0.7,2,1c0.5-1,1-1.9,1.2-2.1c1.4,0.9,2.7,1.6,4,2.5C202,220.4,206.2,223.6,206.2,226.4z M320.9,262.2c-2.4,0.6-4.7,1.3-7.2,2c0.8,2.6,3.5,1.6,5.3,2.7c-2.6,0.7-5.2,1.1-7.9,1.3c-0.3-0.2-0.7-0.3-1-0.5c0,0.2-0.1,0.4-0.1,0.6c-1.7,0.1-3.4,0.2-5.2,0.3c-0.3-0.7-0.6-1.3-0.8-1.8c2-0.8,4.2-1.8,5.4-2.3c-0.1-1-0.3-1.8-0.4-2.7c0.8-0.7,1.5-1.3,2.2-1.9c0.4,1.9,2,2.3,3.4,1.8c1.3-0.4,2.3-1.7,3.5-2.5c0.1,0.2,0.4,0.9,0.8,1.8c0.7-0.8,1.3-1.5,2-2.2c0.3,0.7,0.5,1.4,0.9,2.4c0.7-1.3,1.1-2.2,1.4-2.7c1.4,0.2,2.5,0.3,4,0.5C325.7,261.2,323.3,261.7,320.9,262.2z M332.5,204.2c-2.4,0.5-4.9,0.9-7.4,1.1c-1.7,0.1-2.4-1.3-2-3.6c2.4,1.5,4.7,4,7.4,0.1c0.6,1.7,0.6,1.7,3.7,1.2C333.7,203.4,333.2,204,332.5,204.2z M380.2,186.1c-1.2-2.7-2.2-4.9-3.3-7.2C379.3,180.6,380.9,182.6,380.2,186.1z M379.9,192.6c-1.8-1.5-3.5-2.9-5.1-4.3C377.8,187.9,380,190,379.9,192.6z M346.4,171.7c2.5,0.4,3.6-1.3,5-2.5c0.4-0.3,0.9-0.4,1.4-0.7c0.1,0.3,0.3,0.6,0.4,0.9c-2.6,1.6-5.2,3.2-7.8,4.8C344.4,172.6,344.8,171.5,346.4,171.7z M351.1,178.4c-2.2,1.5-3.6,1.1-5-0.3C347.7,178.2,349.1,178.3,351.1,178.4z M346.2,196.5v-5.3c0,0,0.4,0,0.6,0c0.1,1.7,0.2,3.5,0.2,5.2C346.8,196.4,346.2,196.4,346.2,196.5z M355.5,202.2c-0.5,0.1-1,0.1-1.6,0.2c-0.1-0.2-0.2-0.4-0.4-0.6c0.2-0.2,0.3-0.4,0.4-0.7c0.5,0.3,1,0.6,1.6,0.9C355.6,202,355.5,202.1,355.5,202.2z M362.2,207.1c-0.2-0.1-0.4-0.2-0.7-0.3c0.3-0.2,0.6-0.4,0.9-0.6c0.1,0.2,0.2,0.3,0.3,0.5C362.6,206.8,362.4,207,362.2,207.1z M362.6,190c-1.5,0.9-3,1.8-4.5,2.6c-2,1-3.8,0.3-5.6-0.7c0.5-0.8,0.9-1.5,1.5-2.3c-2.7-1.2-6.3,0.7-7.7-2.8c-0.6-1.6-1-3.3-1.5-5c0.3-0.1,0.5-0.1,0.8-0.2c0.1,0.5,0.1,1,0.3,1.4c0.4,1.2,0.7,2.5,1.3,3.6c0.3,0.6,1.1,0.9,1.6,1.3c0.4-0.6,0.8-1.1,1.2-1.7c0.2-0.3,0.2-0.7,0.4-1.2c1.8,3.1,2.4,3.5,4.9,3.1c-0.2-0.7-0.4-1.4-0.7-2.1c0.5-0.4,1.1-0.7,1.5-1c1.2,1.3,2.3,2.6,3.5,3.7c1,1,1.9,0.8,2.2-0.8c0.1-0.6,0.6-1.2,0.9-1.8c0.2,0.1,0.4,0.2,0.6,0.3c0.6,0.7,1.4,1.2,2.2,1.8c-0.8,0.3-1.5,0.5-2.2,0.8C362.9,189.1,362.6,189.6,362.6,190z M363.4,190.4c0.8,0,1.4,0.3,1.9,0.7c-0.5,0.1-1.1,0.2-1.8,0.3C363.5,191.1,363.4,190.8,363.4,190.4z M366.7,204.6c-0.9-0.4-1.8-0.9-2.8-1.3c0-0.2,0.1-0.5,0.1-0.8c0-0.7,0.3-1.4,0.5-2.2c0.6,0.3,1.2,0.6,1.9,0.9c0,0,0,0,0,0c-0.6-0.1-1.3,0-2,0.6c0.9,0.8,1.7,1.5,2.5,2.2C366.9,204.3,366.8,204.5,366.7,204.6zM370.9,216.4c0.2-0.5,0.3-1.1,0.3-1.5c0.6,0.1,1.1,0.2,1.7,0.4C372.2,215.6,371.5,216,370.9,216.4z M374.1,214.5c-0.1-0.3-0.2-0.6-0.3-0.9c0.3-0.2,0.7-0.4,1-0.6c-0.3-0.5-0.5-1-0.8-1.5c0.4-0.1,0.8-0.1,1.1-0.2c0.7,0.4,1.4,0.9,2.2,1.1C376.2,213.1,375.2,213.8,374.1,214.5z M380.5,210.2c-0.5,0.4-1.1,0.7-1.6,1.1c-0.1-0.3-0.2-0.7-0.3-1c0.9-0.5,1.8-0.9,2.7-1.3C381.1,209.5,380.9,210,380.5,210.2z M380,204c-4.2,0.5-8.3,0.9-12-1.9c-0.1-0.1-0.2-0.1-0.3-0.2c0.9,0.4,1.8,0.8,2.7,1.3c0.2-0.2,0.3-0.5,0.5-0.7c-1.1-1.1-2.1-2.2-3.6-3.8c1.9,0.8,3.4,1.5,4.9,2.1c0,0,0,0.1,0,0.1c0,0,0.1,0,0.1,0c0.4,0.2,0.9,0.4,1.3,0.5c0.1-0.2,0.2-0.4,0.3-0.6c0,0-0.1-0.1-0.1-0.1c0.6-0.1,1.2-0.1,1.8-0.2c0.2,0.5,0.5,2,0.7,2c1.5-0.1,3.2-0.2,3.8-2.6c0.5,1,0.7,1.5,1,2.1C381.8,203.1,381.4,203.8,380,204z M386.2,202.1c1.6,0.1,3,0.2,5,0.3C389,204,387.6,203.6,386.2,202.1z M386.4,195.8c2.5,0.4,3.6-1.3,5-2.5c0.4-0.3,0.9-0.4,1.4-0.7c0.1,0.3,0.3,0.6,0.4,0.9c-2.6,1.6-5.2,3.2-7.8,4.8C384.5,196.6,384.9,195.5,386.4,195.8z M386.2,220.5v-5.3c0,0,0.5,0,0.7,0c0.1,1.7,0.1,3.5,0.2,5.2C386.8,220.4,386.2,220.5,386.2,220.5z M394.1,225.1c0.9,0.5,1.8,1,2.8,1.5c0.6,0.3,1.3,0.5,2,0.6c0.1,0,0.3-0.8,0.5-1.4c0.6,0.4,1.2,0.9,1.8,1.4c0.1,1.3-0.2,2.2-0.7,3c-1.8-0.9-3.7-1.7-5.5-2.7c-0.6-0.3-0.9-1.2-1.3-1.8C393.8,225.6,393.9,225.4,394.1,225.1z M403.2,243.5c-0.6-0.1-1.4,1.2-2.1,2.3c-3.2-1.2-6.1-2.6-8.9-4.8c2.8-0.5,5.2,0.3,7.5,1.7c0.2-0.9,0.3-1.6,0.5-2.3c1.7,0.1,3.1,3.3,5.1,0.4c0.3,1.2,1,1.7,1.9,1.9C406,243.4,404.8,243.7,403.2,243.5z M404.1,231.8c1.2-1.4,2.4-1.1,3.6-0.4C406.6,231.9,405.4,232.1,404.1,231.8z M411.3,243.1c-0.6-0.2-1.1-0.4-1.7-0.5c0.5-0.3,0.9-1,1.2-1.6c0.3,0.5,0.6,0.9,0.9,1.4C411.5,242.6,411.4,242.8,411.3,243.1z M421.2,242.3v1.4c-2-0.2-3.3-0.4-5.1-0.6c-0.4-0.5-0.7-1.2-1.5-2.2c0.9-1.2,2.1-2.8,3.3-4.4c0.6,1.8,0.8,3.3,1.4,3.6c1.5,0.7,2.8,0.8,4.3,1.2C423.2,241.4,422.2,241.8,421.2,242.3z M421.1,225.3c-1.3,0-2.5-1-3.8-1.6c1.1-2.4,3.8-2.6,6.5-0.6C422.9,223.8,422,225.3,421.1,225.3z M433.1,238.2c3.2-0.1,2.6,2.9,3,4.8c-0.5,0.9-1.1,1.9-1.8,3.1c-1.2-1.9-2.4-3.8-3.6-5.7c-0.7,0.6-1.2,1.1-2.1,1.9C429.7,239.5,430.7,238.3,433.1,238.2z M430.3,260.5c0.9-1.3,1.8-2.4,2.7-3.7c0.9,0.5,1.7,1,2.7,1.5c-0.7,0.6-1.3,1.1-2,1.7c0.9,0.5,1.6,0.9,2.1,1.4c0.5,0.5,0.9,1.1,1.7,2.2C434.8,262.4,432.6,261.4,430.3,260.5z M437.9,295.3c0.1-0.2,0.3-0.4,0.4-0.5c-0.1-0.2-0.2-0.3-0.3-0.5c0.6,0.1,0.8,0.4,1,1H437.9zM447,283.6c0.1,0.1,0.2,0.1,0.3,0.2c0.4,0.2,0.8,1,0.7,1.4c0,0,0,0.1,0,0.1c-0.8,0.4-1.7,0.7-2.7,0.7c-0.2-0.3-0.3-0.7-0.5-1C445.5,284.5,446.2,284.1,447,283.6z M445.1,291c-0.1-0.2-0.2-0.5-0.3-0.7c0.2-0.2,0.5-0.3,0.7-0.5c0,0,0,0.1,0,0.1c1.1,0.1,2.1,0.2,3.1,0.3C447.5,290.5,446.3,290.8,445.1,291z M455.3,234.1c-2.1-0.9-3.9-1.6-5.8-2.4c1.1-0.6,1.9-1.1,3.4-2c-1.4-0.8-2.3-1.3-3.1-1.8c0.2-0.2,0.3-0.4,0.5-0.6c0.6,0.3,1.2,0.6,1.7,0.8c0.4-0.8,0.9-1.6,1-1.8c1.2,0.7,2.2,1.4,3.4,2.1C451.7,229.1,455.3,231.8,455.3,234.1z M547.6,224.6c-0.2,0.3-0.3,0.5-0.4,0.8c0-0.3-0.1-0.6-0.1-0.9C547.2,224.5,547.4,224.6,547.6,224.6z M550.1,286.6c-0.8,0.2-1.8-0.4-2.6-0.7c0.4-0.5,0.7-0.9,1.1-1.4c1,0.6,1.9,1.2,2.8,1.8C550.9,286.4,550.5,286.5,550.1,286.6z M554.8,286.2c-0.1,0-0.3,0-0.4,0c0.2-0.1,0.4-0.2,0.6-0.2C555,286,554.9,286.1,554.8,286.2zM566.4,253c-1.8,0.5-3.5,0.9-5.3,1.4c0.8-1.3,1.6-2.7,2.4-4c1-0.4,2.8,1.2,4.3,1.9C567.5,252.4,567,252.9,566.4,253z M566.3,230.7c-2.4,0.6-4.7,1.3-7.2,2c0.8,2.6,3.5,1.6,5.3,2.7c-3.5,0.9-7.1,1.3-10.6,1.5c-1.1-1.7-3-3.3-5.5-4.3c-0.2,1.6-0.5,3.1-0.7,4.6c-1.1,0.1-2.2,0.1-3.3,0.2c0-0.8,2-0.4,2-1.4c-0.8-0.4-1.7-0.9-2.7-1.4c0.2-0.1,0.5-0.2,0.7-0.3c-0.4-0.9-0.8-1.8-1.1-2.6c1.7-0.7,3.5-1.5,4.5-1.9c-0.2-1.1-0.3-2.1-0.4-3c0.6,0.4,1.3,0.8,1.9,1.1c1.5,1,4.3-1.9,5.2,2.2c0.8-0.7,1.5-1.3,2.2-2c0.4,1.9,2,2.3,3.4,1.8c1.3-0.4,2.3-1.7,3.5-2.5c0.1,0.2,0.4,0.9,0.8,1.8c0.7-0.8,1.3-1.5,2-2.2c0.3,0.7,0.5,1.4,0.9,2.4c0.7-1.3,1.1-2.2,1.4-2.7c1.4,0.2,2.5,0.3,4,0.5C571.1,229.7,568.7,230.1,566.3,230.7z M577.9,172.6c-2.4,0.5-4.9,0.9-7.4,1.1c-1.7,0.1-2.4-1.3-2-3.6c2.4,1.5,4.7,4,7.4,0.1c0.6,1.7,0.6,1.7,3.7,1.2C579,171.8,578.5,172.5,577.9,172.6z M591.4,146.6c1.6,0.1,3,0.2,5,0.3C594.3,148.4,592.9,148,591.4,146.6z M591.7,140.2c2.5,0.4,3.6-1.3,5-2.5c0.4-0.3,0.9-0.4,1.4-0.7c0.1,0.3,0.3,0.6,0.4,0.9c-2.6,1.6-5.2,3.2-7.8,4.8C589.8,141.1,590.2,139.9,591.7,140.2z M591.2,164.9v-5.3c0,0,0.6,0,0.8,0c0.1,1.7,0.1,3.5,0.2,5.2C591.9,164.9,591.2,164.9,591.2,164.9z M621.5,295.3c-0.2-0.2-0.3-0.4-0.5-0.7c0.4,0.1,0.8,0.4,1.2,0.7H621.5z M616.6,226.5c0.7-1,1.2-1.7,1.7-2.5c2.8,1.4,2.8,1.4,9.3-0.7c-1.4-1-2.6-1.8-3.8-2.5c0.1-0.2,0.3-0.5,0.4-0.7c1.9,0.1,3.7,0.3,5.7,0.4c-0.3,0.4-0.7,0.9-1,1.3c-0.4,0-0.9,0-1.3-0.1c0.6,1.3,1.2,2.7,1.7,3.9c-1.6,0.6-3.6,0.8-5.2,2.1C621.6,227.6,619.1,227.2,616.6,226.5z M628.9,295.3v-0.6c0.4,0.2,0.7,0.4,1.1,0.6H628.9z M629.3,245.9c-0.6-0.3-1.1-0.6-1.7-0.9c1.1,0.1,2.2-0.5,3.2-0.8C631.1,245,631,245.8,629.3,245.9z M630.7,219.5c-0.1,0.1-0.2,0.2-0.3,0.3c0-1.4,0.7-2.1,1.8-2.5C631.7,218.1,631.2,218.9,630.7,219.5z M634.9,295.3c0-0.1,0-0.2,0-0.4c0.3,0.1,0.6,0.3,0.8,0.4H634.9z M638.5,294.8c0.3,0,0.6-0.7,0.8-1.3c0.6,0.5,1.2,1.3,1.8,1.3H638.5z M667.7,236.5c-2.7-1.2-4.9-2.1-7.2-3.1c0.7-0.9,1.4-1.9,2-2.8c0.8,0.6,1.6,1.1,2.4,1.4c-0.3,0.3-0.7,0.6-1.1,0.9c0.9,0.5,1.6,0.9,2.1,1.4C666.5,234.8,666.9,235.4,667.7,236.5z M663.3,211.1c3.2-0.1,2.6,2.9,3,4.8c-0.5,0.9-1.1,1.9-1.8,3.1c-1.2-1.9-2.4-3.8-3.6-5.7c-0.7,0.6-1.2,1.1-2.1,1.9C660,212.4,660.9,211.2,663.3,211.1z M660.1,268.1c0.2-0.2,0.3-0.4,0.5-0.6c0.3,0.3,0.5,0.6,0.8,0.9c0.5-0.1,0.9-0.1,1.4-0.2c0.5,0.5,1.1,1.4,1.6,1.4c1.6,0,3.2-0.1,4.8-0.2c0,0.3,0,0.7-0.1,1.1c-2.7-0.2-5.5-0.5-8.2-0.7c-0.8,0-2.2,0.1-2.9,0.1c-0.2-0.2-0.4-0.4-0.5-0.7C657.5,267.8,659.5,268.8,660.1,268.1z M669.9,272.2c0,0.3,0,0.7,0,1c-2.6,1.6-4.9,3.2-8.3,1.6c-1.6-0.8-2.3-1.3-1.9-3.6C663.1,271.5,666.5,271.9,669.9,272.2z M654,195.9c-0.9,0.8-1.8,2.3-2.7,2.3c-1.3,0-2.5-1-3.8-1.6C648.6,194.2,651.4,193.9,654,195.9z M648.2,209.4c0.6,1.8,0.7,3.3,1.3,3.6c1.5,0.7,3.2,0.8,4.6,1.2c-0.3,0.2-1,0.6-2,1.1v1.4c-2-0.2-3.7-0.4-5.5-0.6c-0.4-0.5-0.9-1.2-1.7-2.2C645.9,212.6,647.1,211,648.2,209.4z M668.3,282.8c0.1,0.1,0.2,0.2,0.3,0.3c-1.3,0.1-2.6,0.2-3.9,0.4c0,0.4-0.1,0.7-0.1,1.1c1.4,0.4,2.4,0.8,4.6,1.4c-3.3,1.7-6,3.1-9,4.4v1.1c4-0.5,6.7-1,9.8-1.4c0,0.1,0.2,0.1,0.2,0.2c-0.8,1-1.5,2-2.3,3c0.2,0.2,0.4,0.4,0.5,0.6c0.6,0,1.3-0.3,2-0.4c0,0.5,0,1.3,0,1.3h-27.1c-0.5,0-1-1.1-1.5-1.9c4.6-2.2,9.5-2.1,14.4-1.5c0.1-0.3,0.1-0.5,0.2-0.8c-1.8-0.9-3.6-1.8-5.8-2.9c3.4,0.3,6.5,1.5,9.5-0.1c-1.3-1.9-3.3-1.1-5-1.8c0.7-0.5,1.3-1,1.9-1.5c0-0.1-0.1-0.5-0.1-0.5H652c0-1-0.4-2.2-0.4-3.5c0,0,0,0,0,0c0,0,0,0,0,0c0.1,0,0.4,0.1,0.8,0.2c0.5,0.1,1.1,0.3,1.9,0.6c-0.4-2.2-2.4-4-0.7-6c0.4-0.5,1.3-0.4,2-0.6c0.1,0.2,0.2,0.5,0.2,0.7c-0.7,0.3-1.4,0.6-2.5,1.1c1.9,0.9,5.5,1,2.2,4.4c0.5-0.2,1-0.3,1.7-0.5c-0.1,0.5-0.2,1.1-0.4,1.7c1.1,0.1,2,0.2,3.8,0.3c-1.2-2.1-2.3-4.2-3.5-6.3c0.2-0.2,0.4-0.5,0.6-0.7c2.7,1.2,5.5,2.4,8.2,3.5c0.6,0.3,1.4,0,2,0.4c0.9,0.5,1.7,1.2,2.6,1.9l-0.7,1c-1.2-0.6-2.4-1.3-3.7-1.9c-0.2,0.2-0.4,0.4-0.5,0.6C666.5,281.2,667.5,281.9,668.3,282.8z M688.2,261c0.1-0.4,0.2-0.9,0.3-1.3c1.2,0.1,2.3,0.2,3.4,0.3c0,0.4,0,0.7,0,1.1c-2,0.4-4.1,0.7-6.1,0.7c0.1-0.3,0.1-0.6,0.1-0.8c-1.5-0.2-2.8-0.4-4.5-0.6c-0.1,0.2-0.4,0.8-0.8,1.4c-1.2,0-2.4,0-3.6-0.1c0.3-0.2,0.5-0.4,0.4-0.5c-1-2.1,1-2.1,1.8-2.7c0.8-0.6,1.6-1.1,2.3-1.5c0.1,0,0.2,0,0.3,0c-0.1,0.4-0.2,0.8-0.5,1.7c1.6-0.5,3-0.9,4.6-1.4c0.2,0.1,0.4,0.2,0.6,0.3c-0.3,0.6-0.6,1-0.9,1.6c0.7,0.1,1.4,0.1,2.1,0.2c0,0.4-0.1,0.8-0.2,1.2C687.7,260.9,687.9,261,688.2,261z M680.4,200.3c0.6,0.3,1.2,0.6,1.7,0.8c0.4-0.8,0.9-1.6,1-1.8c1.2,0.7,2.2,1.4,3.4,2.1c-3.2,0.5-2.3,2-1.6,3.6c-1.6-0.2-3.2-0.5-4.7-0.7c0.9-0.5,1.6-0.9,2.9-1.7c-1.4-0.8-2.3-1.3-3.1-1.8C680.1,200.7,680.3,200.5,680.4,200.3z M674.9,257.9c0.8-0.5,1.6-1,2.4-1.4c0.9,0.2,1.8,0.4,2.7,0.5c-1.4,1-2.8,1.9-4.6,1.9C675.3,258.6,675.1,258.2,674.9,257.9z M675.9,280c0-0.1,0-0.1,0-0.2c0.2-0.1,0.3-0.2,0.4-0.3C676.2,279.6,676.1,279.8,675.9,280z M677.9,274c0.1,0.4,0.2,0.7,0.3,1.1c-0.6-0.1-1.2-0.2-1.8-0.4C677,274.5,677.4,274.3,677.9,274z M681.2,295.3c0.3-0.1,0.6-0.1,0.9-0.2c0,0.1,0,0.1,0,0.2H681.2z M694,279.3c-4.9,0.9-9.7,2.6-14.7,0.2c-0.8-0.4-1.7-0.4-2.6-0.4c0,0-0.1,0-0.1,0c0.9-0.7,1.5-1.2,2.2-1.7c0,0.2,0.1,0.4,0.1,0.6c1.1-0.7,2.2-1.3,3.2-1.9c1-0.3,2.1-0.6,3.1-0.9c-0.2,1.5-0.5,2.8-0.7,4.2c0.2,0.2,0.3,0.3,0.5,0.5c2.9-2.4,5.8-4.8,8.7-7.2c-0.6,1.6-1.3,3.3-2,5c0.3,0.2,0.6,0.4,0.9,0.6c1.2-0.9,2.4-1.7,3.8-2.7C696.7,277.7,696,279,694,279.3z M718,201.3c-5.3,1.4-10.7,2.8-16,4.1c-0.4,0.1-0.7,0.2-1.1,0.2c-0.8-0.4-1.6-0.8-2.3-1.1c-1.1-1.2-2.7-2.3-2.3-4.8c0.2-1.2-2.5-2.7-3.8-4.1c-1,0.9-1.7,1.6-2.5,2.3c0.3-1.8,1.5-3.4-0.2-5c-0.1-0.1,0.7-1.4,1-1.4c0.3,0,0.5,0,0.7,0c-0.4,0.7-0.7,1.3-1.1,2c0.1,0.2,0.2,0.4,0.3,0.7c1.5-0.4,2.8-0.8,4.1-1.2c1.1,0.7,2.2,2.3,3.4,2.2c1.5-0.1,3-1.5,4-2.3v4.9c2-1,3.8-1.8,5.6-2.7c-0.1,0.8,0,1.6-0.1,2.7c2.2-0.7,4.1,1,6.5,0c1.4-0.5,3.7,1.5,5.7,2.5C719.5,200.5,718.8,201.1,718,201.3z M733.4,94.1c-3.2,0.6-6.5,1.2-9.8,1.4c-2.2,0.1-3.2-1.7-2.7-4.8c3.2,2,6.3,5.3,9.9,0.1c0.8,2.3,0.8,2.3,4.9,1.6C734.9,93,734.2,94,733.4,94.1z M744.2,294.9c0,0-0.1-0.1-0.2-0.1h-3.5c0.1,0,0.1-1.1,0.1-1.7c1.2,0.5,2.4,1,3.3,1.7h0.3C744.3,294.8,744.3,294.9,744.2,294.9z M751.4,59.4c2.1,0.1,4,0.3,6.7,0.5C755.2,61.8,753.3,61.3,751.4,59.4z M751.8,50.9c3.3,0.6,4.7-1.7,6.7-3.3c0.5-0.4,1.2-0.6,1.8-0.9c0.2,0.4,0.4,0.8,0.6,1.2c-3.5,2.1-6.9,4.3-10.4,6.4C749.2,52.1,749.7,50.5,751.8,50.9z M751.2,83.9v-7.1c0,0,0.8,0,1,0c0.1,2.3,0.1,4.7,0.2,7C752.1,83.8,751.2,83.8,751.2,83.9z"/>
</svg>
